<?xml version="1.0" encoding="utf-8"?>
<!-- Generator: Adobe Illustrator 19.2.1, SVG Export Plug-In . SVG Version: 6.00 Build 0)  -->
<svg version="1.1" id="layer" xmlns="http://www.w3.org/2000/svg" xmlns:xlink="http://www.w3.org/1999/xlink" x="0px" y="0px"
	 viewBox="0 0 652 652" style="enable-background:new 0 0 652 652;" xml:space="preserve">
<style type="text/css">
	.st0{fill:#251D1E;}
	.st1{fill:#231815;}
</style>
<g>
	<path class="st0" d="M274.6,409h-8.4v-21h8.4c7.5,0,10.9,3.6,10.9,10.3C285.5,404.5,282.3,409,274.6,409 M274.6,385.1h-14.5
		c0.6,1,0.9,1.9,0.9,4.3l0,18.4c0,2.4-0.5,3.4-0.9,4.3h14.6c8.4,0,16-4.4,16-13.8C290.6,387.1,281.7,385.1,274.6,385.1 M348,389.4
		c0-2.4,0.3-3.4,0.8-4.3h-4.7c0.4,0.9,0.8,1.9,0.8,4.3v16.5L327.4,385H321c0.5,1,0.9,1.9,0.9,4.3l0,18.3c0,2.4-0.3,3.4-0.8,4.3h4.6
		c-0.4-1-0.9-1.9-0.9-4.3v-17.9l18.6,22.3h4.6V389.4z M179.9,407.8c-1.9,1.4-7.2,1.3-11.8,1.2c-1.4,0-4.8-0.1-4.8-0.1l0.1-19.7
		c0-2.4,0.4-3.4,0.9-4.3h-6.7c0.6,1,0.8,1.9,0.8,4.3v18.3c0,2.4-0.5,3.4-0.9,4.3H179L179.9,407.8z M595.3,407.8
		c-1.9,1.4-7.2,1.3-11.8,1.2c-1.4,0-4.8-0.1-4.8-0.1l0.1-19.7c0-2.4,0.4-3.4,0.9-4.3c0,0-6.7,0-6.7,0c0.6,1,0.9,1.9,0.9,4.3v18.3
		c0,2.4-0.5,3.4-0.9,4.3h21.5L595.3,407.8z M307.2,389.4c0-2.4,0.4-3.4,0.9-4.3h-6.7c0.6,1,0.9,1.9,0.9,4.3l0,18.4
		c0,2.4-0.4,3.4-0.9,4.3h6.7c-0.6-1-0.9-1.9-0.9-4.3L307.2,389.4z M614.3,384.8c-6.4-0.1-11.9,1.6-12.4,6.8c-0.1,1.3,0.2,2.8,1.2,4
		c3.5,4.2,12.7,4.5,16.3,7.3c1,0.8,1.6,2,1.5,3.1c-0.3,3.1-4.2,3.9-9,3.7c-6.5-0.1-9.6-2.6-10.6-3.5c0,0.2,0.1,4.4,0.1,4.4
		c2,0.8,5.8,1.9,10.5,2c7.2,0.2,13.6-1.7,14.1-7.5c0.1-1.2-0.1-3.2-1.2-4.4c-2.2-2.6-6.5-3.6-10.5-4.9c-3.8-1.3-7.3-1.9-7.2-4.6
		c0.1-2.4,3.8-3.3,7.2-3.3c2.7,0,5.7,0.5,7.8,1.4c1,0.4,1.9,0.7,2.7,1.6l0-4.1C622,385.6,617.6,384.9,614.3,384.8 M464.7,398.3
		c0,3.6,1.1,6.5,4,8.9c1.4,1.2,4,2.4,7.7,2.4c3.7,0,5.9-0.8,7.8-2.4c2.6-2.3,3.9-5.5,3.9-8.9c0-3.7-1.2-6.8-4.1-8.8
		c-1.9-1.3-4.2-2.1-7.5-2.1c-3.7,0-6,0.9-7.6,2C466.4,391.3,464.7,394.4,464.7,398.3 M476.3,384.6c5.5,0,10.6,1.8,13.5,4.9
		c2.1,2.2,3.3,5.3,3.3,8.9c0,2.6-1.3,6.2-3.3,8.5c-3.6,4-8,5.7-13.5,5.7c-5.6,0-10.6-2-13.7-5.6c-2-2.4-3.2-5.6-3.2-8.7
		c0.1-3.5,1.4-6.4,3.8-8.8C466.6,386.2,471.1,384.6,476.3,384.6 M447.6,389.4c0-2.5,0.4-3.4,0.9-4.3c0,0-6.7,0-6.7,0
		c0.6,0.9,0.8,1.9,0.8,4.3v6.7h-17v-6.7c0-2.5,0.4-3.4,0.9-4.3c0,0-6.7,0-6.7,0c0.6,0.9,0.8,1.9,0.8,4.3v18.3c0,2.4-0.5,3.4-0.9,4.3
		h6.6c-0.5-1-0.9-1.9-0.9-4.3v-8.6h17l0,8.6c0,2.4-0.4,3.4-0.9,4.3h6.6c-0.6-1-0.9-1.9-0.9-4.3L447.6,389.4z M89.1,389.4
		c0-2.5,0.4-3.4,0.9-4.3c0,0-6.7,0-6.7,0c0.6,0.9,0.9,1.9,0.9,4.3v6.7h-17v-6.7c0-2.5,0.4-3.4,0.9-4.3c0,0-6.7,0-6.7,0
		c0.6,0.9,0.8,1.9,0.8,4.3v18.3c0,2.4-0.5,3.4-0.9,4.3H68c-0.6-1-0.8-1.9-0.8-4.3v-8.6h17v8.6c0,2.4-0.5,3.4-0.9,4.3h6.6
		c-0.5-1-0.8-1.9-0.8-4.3L89.1,389.4z M549.3,409c-1.5,0-7.8-0.1-8-0.1l0-9.9c3,0,13.3-0.1,14.9,0.9v-4.6c-1.2,1-11.1,0.9-14.9,0.9
		v-8c0,0,13.9-0.3,17,0.4c0.9,0.2,1.5,0.6,1.5,0.6c0-0.1,0-4,0-4h-24.2c0.6,0.9,0.9,1.9,0.9,4.3v18.3c0,2.4-0.4,3.3-0.9,4.3l24.7,0
		l0.9-4.3C559.2,409.2,553.9,409,549.3,409 M201,409c-1.5,0-7.8-0.1-8-0.1l0-9.9c3,0,13.3-0.1,14.9,0.9v-4.6
		c-1.2,1-11.1,0.9-14.9,0.9v-8c0,0,13.9-0.3,17,0.4c0.9,0.2,1.5,0.6,1.5,0.6c0-0.1,0-4,0-4h-24.2c0.6,0.9,0.9,1.9,0.9,4.3v18.3
		c0,2.4-0.4,3.3-0.9,4.3l24.7,0l0.9-4.3C210.9,409.2,205.6,409,201,409 M116.9,409c-1.5,0-7.8-0.1-8-0.1v-9.9c3,0,13.3-0.1,14.9,0.9
		v-4.6c-1.2,1-11.1,0.9-14.9,0.9l0-8c0,0,13.9-0.3,17,0.4c0.9,0.2,1.5,0.6,1.5,0.6c0-0.1,0-4,0-4h-24.2c0.6,0.9,0.9,1.9,0.9,4.3
		l0,18.3c0,2.4-0.4,3.3-0.9,4.3l24.7,0l0.9-4.3C126.7,409.2,121.5,409,116.9,409 M515.2,388l5.8,0c2.3,0,4,0.2,4.8,1.1v-4h-26.1v4
		c0.7-0.9,2.7-1.1,4.8-1.1l5.8,0v19.8c0,2.4-0.5,3.4-0.9,4.3c0.1,0,6.7,0,6.7,0c-0.6-1-0.9-1.9-0.9-4.3V388z M41.4,388l5.9,0
		c2.3,0,4,0.2,4.8,1.1v-4H25.9v4c0.8-0.9,2.7-1.1,4.8-1.1l5.8,0v19.8c0,2.4-0.5,3.4-0.9,4.3c0.1,0,6.7,0,6.7,0
		c-0.6-1-0.9-1.9-0.9-4.3V388z M389.7,387.2c-2.9-1.6-7.7-2.5-11.9-2.5c-6.6,0-10.9,1.9-13.7,4c-3.2,2.4-5,5.8-5,9.6
		c0.1,3.7,1.9,7.3,4.8,9.6c3.6,2.8,8.1,4.5,13.9,4.5c4.7,0,8.3-1,11.9-3.2v-11l-5.9,0c0.4,0.5,1,1.4,1,3.7l-0.1,6.1
		c-2,1.1-4.1,1.4-6.9,1.4c-4.7,0-8.3-1.4-10.6-3.8c-2.1-2.3-3.1-4.5-3.1-7.3c0-2.8,1.3-5.2,3.3-7.1c2.8-2.6,6.2-3.5,10.4-3.5
		c3.8,0,7.6,0.9,10.2,2.6c0.7,0.4,1.3,0.8,1.6,1.2V387.2z M227.8,401.7h11.7l-5.8-11.4L227.8,401.7z M236.4,385.1l13.2,24.2
		c0.8,1.3,1.6,2.2,2.4,2.8c-0.3,0-8.3,0-8.3,0c0.4-0.7,0.5-1.7-0.2-3.1l-2.5-4.6h-14.6l-2.6,5.1c-0.6,1.1-0.4,1.9,0,2.5h-5.7
		c0.8-0.6,1.5-1.6,1.9-2.4l13.2-24.6L236.4,385.1z"/>
</g>
<g>
	<path class="st0" d="M326.7,285.2c0,0-13.9,43.6-14.3,44.7c-1.2-4.1-8.6-31.2-9.8-35.2c-0.6-2.1-1-5.1-1.1-6.3
		c-0.1-1.7,0.3-2.8,0.5-3.3l0.2-0.5c0,0-3.4,0.4-5.8,0.8c-1.9,0.3-5.6,1-5.6,1l0.4,0.4c1.3,1.5,1.7,2.8,3.3,8.2l15.4,51.8h1
		c0,0,14.1-43.2,14.4-44.2c0.3,1,14.9,44.2,14.9,44.2h0.9l15.6-51.7c1.7-5.4,2.7-7.2,3.7-8.4l0.3-0.3c-0.5-0.2-2.1-0.5-4-1
		c-2.1-0.5-3.9-0.8-3.9-0.8l0.2,0.6c0,0,0.5,0.8,0.5,2.4c0,1.3-0.5,4.5-1.3,7.4c0,0-9.7,34-10,35c-0.3-1-15-44.8-15-44.8H326.7z
		 M361.7,214.7l0.1,0.3c1.9,4.1,3,8.4,3,18.9c0,0-0.6,31.7-0.6,32.1c-2.1-0.4-20.9-3.9-38.6-3.9c-18.3,0-36.5,3.5-38.5,3.9v-32.1
		c0-10.3,1.4-14.5,3.3-18.9l0.2-0.3H273l0.1,0.3c1.9,4.1,2.9,8.4,2.9,18.9l0,80.3c0,10.6-1.5,14.6-3.2,18.9l-0.1,0.3H290l-0.1-0.2
		c-1.9-4.1-3-8.4-3-18.9c0,0,0-39.7,0-40c1.3-0.4,16.8-4,38.6-4c21.3,0,37.2,3.7,38.6,4c0,0.3,0.6,40,0.6,40
		c0,10.6-1.1,14.6-2.8,18.9l-0.1,0.3h16.9l-0.1-0.2c-1.9-4.1-2.9-8.4-2.9-18.9l0-80.3c0-10.3,1.4-14.5,3.3-18.9l0.1-0.3H361.7z
		 M321.5,183l-0.1,0.3c-1,2.3-1.8,4.6-1.8,10.2c0,0-0.1,48.5-0.1,48.9c2.5-0.1,6.9-0.1,8.3-0.1c8.1,0,16.6,1.2,20.2-2.4l0.3,0l-3,8
		c-4.6-0.5-10.9-1-17.5-1c-5.8,0-10.3,0.1-18.3,0.7l-0.4,0l0.1-0.3c0.9-2.3,1.7-4.5,1.7-10.2l0-43.6c0-5.7-0.6-8-1.6-10.2l-0.1-0.3
		H321.5z"/>
	<path class="st0" d="M134.2,441.3c5.5,0,10.6,1.8,13.6,4.9c2.1,2.1,3.4,5.3,3.4,8.9c0,2.6-1.3,6.2-3.3,8.5c-3.6,4-8,5.7-13.5,5.7
		c-5.6,0-10.7-2-13.7-5.6c-2-2.4-3.2-5.6-3.2-8.6c0.1-3.5,1.4-6.4,3.8-8.8C124.5,442.8,129,441.3,134.2,441.3 M122.6,455
		c0,3.6,1.1,6.4,3.9,8.9c1.4,1.2,4,2.4,7.7,2.4c3.7,0,5.9-0.8,7.8-2.4c2.7-2.3,3.9-5.5,3.9-8.9c0-3.7-1.2-6.8-4.1-8.8
		c-1.9-1.3-4.2-2.1-7.6-2.1c-3.7,0-6,0.9-7.6,2C124.2,448,122.6,451.1,122.6,455"/>
	<path class="st0" d="M167.6,464.6l0-8.7c3,0,13.5-0.1,15.2,0.8V452c-1.2,1-11.4,0.9-15.2,0.8v-7.8c0,0,13.5-0.3,16.5,0.4
		c0.9,0.2,1.5,0.6,1.5,0.6c0-0.1,0-4.1,0-4.1h-23.7c0.6,0.9,0.9,1.9,0.9,4.3l0,18.2c0,2.4-0.4,3.3-0.9,4.3h6.6
		C167.8,467.7,167.6,466.9,167.6,464.6"/>
	<path class="st0" d="M521,441.9c6.9,0,15.6,1.9,15.6,12.8c0,9.2-7.4,13.5-15.6,13.5h-14.2c0.4-0.9,0.9-1.9,0.9-4.2v-17.9
		c0-2.4-0.3-3.3-0.8-4.2H521 M521,465.3c7.5,0,10.6-4.4,10.6-10.4c0-6.5-3.3-10.1-10.6-10.1h-8.2v20.5H521"/>
	<path class="st0" d="M405.7,441.3c5.5,0,10.4,1.7,13.4,4.8c2.1,2.1,3.3,5.2,3.3,8.8c0,2.6-1.2,6.1-3.3,8.4c-3.5,4-7.9,5.6-13.3,5.6
		c-5.5,0-10.5-1.9-13.5-5.6c-2-2.3-3.2-5.5-3.1-8.5c0.1-3.5,1.4-6.3,3.7-8.6C396.2,442.8,400.6,441.3,405.7,441.3 M394.3,454.8
		c0,3.6,1.1,6.4,3.9,8.8c1.4,1.2,3.9,2.4,7.6,2.4c3.6,0,5.9-0.8,7.7-2.4c2.6-2.3,3.9-5.5,3.9-8.7c0-3.6-1.2-6.6-4.1-8.6
		c-1.9-1.3-4.2-2.1-7.4-2.1c-3.7,0-5.9,0.9-7.5,2C395.9,447.9,394.3,450.9,394.3,454.8"/>
	<path class="st0" d="M495.6,464.1c-1.9,1.4-7,1.2-11.5,1.2c-1.4,0-4.7-0.1-4.7-0.1l0.1-19.1c0-2.4,0.4-3.3,0.9-4.2h-6.5
		c0.6,0.9,0.8,1.9,0.8,4.2V464c0,2.4-0.4,3.3-0.9,4.2h21L495.6,464.1z"/>
	<path class="st0" d="M460.1,465.6c1.2,1.6,2.6,2.6,2.6,2.6s-5.9,0.1-7,0c0,0-2-2.6-4.2-6.1c-2.4-3.9-3.8-5.5-5.9-6.1
		c-1.2-0.3-4.4-0.3-5.9-0.3v8.3c0,2.4,0.4,3.3,1,4.2h-7.3c0.6-0.9,1.2-1.8,1.2-4.2v-17.9c0-2.3-0.4-3.3-1-4.2h8.9
		c8.8,0,16.4,0,16.4,6.5c0,5.7-5.7,6.6-7.3,6.6c0.7,0,1.4,0.9,2.1,1.8C455.3,458.5,457.4,462,460.1,465.6 M449.7,452.7
		c3-0.7,4.1-1.9,4.1-4.2c0-2.2-2.2-3.2-4.1-3.6c-1.7-0.3-4.5-0.3-6.3-0.3c-1.1,0-3.6,0-3.7,0l0,8.3c0.1,0,3.6,0,3.6,0
		C446.1,453,448.2,453,449.7,452.7"/>
	<path class="st0" d="M383,442h-5c0,0,0.9,0.7-0.4,3.7l-6.1,15.1l-8.8-19h-0.9l-8.6,19.5c0,0-5.4-13.8-6.2-15.7
		c-1.1-2.6-0.1-3.6-0.1-3.6h-7c0.8,0.8,1.1,1.3,2.1,3.7l9.6,22.9h1.3l8.3-18.4l8.9,18.4h0.9l9.7-22.8
		C381.8,443.5,382.2,442.7,383,442"/>
	<path class="st0" d="M224.9,444.4h6.1c2.4,0,4.2,0.1,5,1.1v-4.1h-27.1v4.1c0.8-0.9,2.8-1.1,5-1.1h6v20.5c0,2.5-0.5,3.5-1,4.5
		c0.1,0,6.9,0,6.9,0c-0.6-1-0.9-2-0.9-4.5V444.4z"/>
	<path class="st0" d="M305.8,466.1c-1.6,0-8.1-0.1-8.3-0.1l0-10.3c3.2-0.1,13.8-0.1,15.5,0.9v-4.8c-1.3,1.1-11.5,0.9-15.5,0.9l0-8.3
		c0,0,14.5-0.3,17.6,0.4c0.9,0.2,1.6,0.7,1.6,0.7c0-0.1,0-4.2,0-4.2h-25.2c0.6,1,0.9,2,0.9,4.5l0,19c0,2.5-0.4,3.4-0.9,4.5l25.6,0
		l0.9-4.4C316,466.3,310.6,466.2,305.8,466.1"/>
	<path class="st0" d="M275.3,445.8c0-2.5,0.4-3.5,1-4.5c0,0-6.9,0-6.9,0c0.6,1,0.9,2,0.9,4.5v6.9h-17.7v-6.9c0-2.5,0.4-3.5,1-4.5
		c0,0-6.9,0-6.9,0c0.6,1,0.9,2,0.9,4.5l0,19c0,2.5-0.5,3.5-1,4.5h6.9c-0.6-1-0.9-2-0.9-4.5v-8.9h17.7v8.9c0,2.5-0.5,3.5-1,4.5h6.9
		c-0.6-1-0.9-2-0.9-4.5L275.3,445.8z"/>
	<path class="st1" d="M545.2,445.2h1c0.4,0,0.7,0,0.9,0.1c0.2,0.1,0.3,0.1,0.4,0.3c0.1,0.1,0.1,0.3,0.1,0.4c0,0.3-0.1,0.5-0.3,0.6
		c-0.2,0.1-0.5,0.2-1,0.2h-1.1V445.2z M545.2,449.9v-2.3h0.5c0.3,0,0.5,0.1,0.7,0.2c0.2,0.2,0.5,0.6,0.9,1.3l0.5,0.9h1.1l-0.7-1.1
		c-0.3-0.5-0.6-0.9-0.8-1.1c-0.1-0.1-0.3-0.2-0.5-0.3c0.5,0,0.9-0.2,1.1-0.5c0.3-0.3,0.4-0.7,0.4-1.1c0-0.3-0.1-0.6-0.3-0.8
		c-0.2-0.3-0.4-0.4-0.7-0.5c-0.3-0.1-0.8-0.1-1.4-0.1h-1.9v5.5H545.2z M548.6,443.4c0.7,0.4,1.2,0.9,1.6,1.6
		c0.4,0.7,0.6,1.4,0.6,2.1s-0.2,1.4-0.6,2.1c-0.4,0.7-0.9,1.2-1.6,1.6c-0.7,0.4-1.4,0.6-2.1,0.6s-1.4-0.2-2.1-0.6
		c-0.7-0.4-1.2-0.9-1.6-1.6c-0.4-0.7-0.6-1.4-0.6-2.1s0.2-1.5,0.6-2.1c0.4-0.7,0.9-1.2,1.6-1.6c0.7-0.4,1.4-0.6,2.1-0.6
		C547.3,442.8,548,443,548.6,443.4 M544,442.6c-0.8,0.4-1.5,1.1-1.9,1.9c-0.5,0.8-0.7,1.7-0.7,2.6c0,0.9,0.2,1.7,0.7,2.5
		c0.4,0.8,1.1,1.4,1.9,1.9c0.8,0.4,1.7,0.7,2.6,0.7c0.9,0,1.7-0.2,2.5-0.7c0.8-0.4,1.4-1.1,1.9-1.9c0.4-0.8,0.7-1.7,0.7-2.5
		c0-0.9-0.2-1.8-0.7-2.6c-0.5-0.8-1.1-1.5-1.9-1.9c-0.8-0.4-1.6-0.7-2.5-0.7C545.7,442,544.9,442.2,544,442.6"/>
</g>
</svg>
