<?xml version="1.0" encoding="UTF-8" standalone="no"?>
<!-- Created with Inkscape (http://www.inkscape.org/) -->

<svg
   version="1.1"
   id="svg2"
   width="257.33334"
   height="257.33334"
   viewBox="0 0 257.33334 257.33334"
   sodipodi:docname="JW_Marriott_Hotel__and__Resorts.eps"
   xmlns:inkscape="http://www.inkscape.org/namespaces/inkscape"
   xmlns:sodipodi="http://sodipodi.sourceforge.net/DTD/sodipodi-0.dtd"
   xmlns="http://www.w3.org/2000/svg"
   xmlns:svg="http://www.w3.org/2000/svg">
  <defs
     id="defs6" />
  <sodipodi:namedview
     id="namedview4"
     pagecolor="#ffffff"
     bordercolor="#000000"
     borderopacity="0.25"
     inkscape:showpageshadow="2"
     inkscape:pageopacity="0.0"
     inkscape:pagecheckerboard="0"
     inkscape:deskcolor="#d1d1d1" />
  <g
     id="g8"
     inkscape:groupmode="layer"
     inkscape:label="ink_ext_XXXXXX"
     transform="matrix(1.3333333,0,0,-1.3333333,0,257.33333)">
    <g
       id="g10"
       transform="scale(0.1)">
      <path
         d="M 0,1927.56 H 1927.56 V 0 H 0 v 1927.56"
         style="fill:#ffffff;fill-opacity:1;fill-rule:evenodd;stroke:none"
         id="path12" />
      <path
         d="m 699.32,1501.38 h 491.75 V 1009.62 H 699.32 v 491.76"
         style="fill:#29559a;fill-opacity:1;fill-rule:evenodd;stroke:none"
         id="path14" />
      <path
         d="m 890.957,1264.11 c -31.457,0 -66.922,-33.93 -66.922,-81.07 0,-33.27 16.059,-70.33 25.324,-85.22 -10.617,-10.61 -11.398,-17.1 -11.398,-27.27 h 108.633 c -3.153,0 -9.473,8.26 -9.473,15.88 0,5.06 2.832,10.43 2.832,12.34 -6.637,8.87 -18.039,15.52 -28.808,15.52 -3.504,0 -11.418,-0.96 -11.418,-0.96 0,0 -3.442,4.95 -3.442,13.2 0,10.6 7.574,18.49 18.969,29.89 0,5.31 -0.414,10.01 -1.176,14.12 l 0.016,-0.11 c 0,0 19.222,7.85 32.5,7.85 13.34,0 30.312,-0.32 30.312,-0.32 l -0.035,0.08 c 0.59,-5.59 0.781,-11.86 0.781,-19.71 27.878,-27.89 44.968,-62.44 44.968,-87.78 h 49.34 v 0.11 c 0.75,-4.74 1.5,-8.01 1.5,-8.01 9.38,0 17.62,7.9 17.62,7.9 0,25.36 -14.59,45.61 -35.41,45.61 -17.74,17.73 -15.22,62.93 -15.22,82.23 14.71,14.73 24.85,37.06 24.85,66.01 0,28.94 -13.95,54.05 -13.95,54.05 l 11.93,11.95 c 0,0 -26.41,37.56 -26.41,65.99 0,0 9.15,9.13 9.15,20.82 0,11.67 -9.15,22.33 -9.15,22.33 l -12.18,-12.18 c 0,0 -21.81,7.11 -32.999,7.11 -11.168,0 -18.777,-6.6 -18.777,-11.69 0,0 -10.144,3.06 -15.738,3.06 -11.168,0 -19.789,-8.63 -19.789,-24.88 l 11.605,-2.62 -0.226,0.06 c 0,0 -0.914,-5.16 -0.914,-10.73 0,-11.19 8.617,-19.8 24.851,-19.8 0,-13.11 -0.015,-22.63 -9.305,-34.33 l 0.036,-0.04 -19.137,13.97 c 0,46.55 -30.524,62.25 -42.399,62.25 -22.753,0 -56.117,-2.75 -80.718,-2.75 -24.625,0 -42.91,5.11 -55.356,10.75 0,0 -4.164,-7.41 -4.164,-14.23 0,-9.54 4.41,-15.7 10.692,-19.48 v 0.26 c 0,-6.36 2.109,-18.04 13.621,-24.12 l -0.453,0.26 c 0,-11.34 7.589,-25.18 26.316,-25.18 l -0.953,0.02 c 0,-7.46 10.449,-21.88 38.019,-21.88 0.172,0 0.34,0 0.536,0 h -0.536 c 0,-8.87 5.993,-22.18 25.805,-22.18 0.148,0 0.305,0 0.453,0 h -0.453 c 0,-8.35 2.606,-19.13 15.43,-21.29 l -0.535,0.08 c 0,-1.54 0.461,-3.66 1.41,-5.99 l -0.055,0.12"
         style="fill:#ba8e24;fill-opacity:1;fill-rule:evenodd;stroke:none"
         id="path16" />
      <path
         d="m 1024.54,1427.42 4.07,-7.37 5.23,8.85 3.03,10.64 -12.33,-12.12"
         style="fill:#7c631c;fill-opacity:1;fill-rule:evenodd;stroke:none"
         id="path18" />
      <path
         d="m 1033.84,1428.9 c 0,0 7.12,-5.61 7.12,-19.07 0,-13.47 -9.57,-15.93 -9.57,-15.93 l 5.48,2.49 c 0,0 9.15,9.33 9.15,20.82 0,11.45 -9.15,22.33 -9.15,22.33 l -3.03,-10.64"
         style="fill:#f3deb2;fill-opacity:1;fill-rule:evenodd;stroke:none"
         id="path20" />
      <path
         d="m 1031.39,1393.9 c 0,-20.83 4.36,-42.51 18.43,-66.75 l 13.46,3.25 c 0,0 -26.41,37.51 -26.41,65.99 l -5.48,-2.49"
         style="fill:#7c631c;fill-opacity:1;fill-rule:evenodd;stroke:none"
         id="path22" />
      <path
         d="m 1049.82,1327.15 -11.32,-12.05 12.85,3.35 11.93,11.95 -13.46,-3.25"
         style="fill:#f3deb2;fill-opacity:1;fill-rule:evenodd;stroke:none"
         id="path24" />
      <path
         d="m 1038.5,1315.1 c 0,0 16.73,-21.84 16.73,-52.88 0,-26.31 -14.78,-38.86 -14.78,-38.86 v -24.97 c 0,0 24.85,21.46 24.85,66.01 0,29.1 -13.95,54.05 -13.95,54.05 l -12.85,-3.35"
         style="fill:#7c631c;fill-opacity:1;fill-rule:evenodd;stroke:none"
         id="path26" />
      <path
         d="m 1040.45,1198.39 c 0,-15.35 -6.13,-75.39 12.08,-93.61 l 3.14,11.38 c -5.38,5.38 -17.05,18.9 -15.22,82.23"
         style="fill:#f3deb2;fill-opacity:1;fill-rule:evenodd;stroke:none"
         id="path28" />
      <path
         d="m 1052.53,1104.78 c 10.14,0 30.03,3.53 30.03,-31.04 l 8.52,-2.71 c 0,19.2 -11.02,45.13 -35.41,45.13 l -3.14,-11.38"
         style="fill:#f3deb2;fill-opacity:1;fill-rule:evenodd;stroke:none"
         id="path30" />
      <path
         d="m 1082.56,1073.74 -9.1,-11.09 c 0,0 8.65,-0.58 17.62,8.38 l -8.52,2.71"
         style="fill:#7c631c;fill-opacity:1;fill-rule:evenodd;stroke:none"
         id="path32" />
      <path
         d="m 1082.56,1073.74 c -4.06,8.36 -7.9,19.51 -22.7,19.51 l 10.65,-6.21 c 0,0 1.1,-20.54 2.95,-24.39 l 9.1,11.09"
         style="fill:#f3deb2;fill-opacity:1;fill-rule:evenodd;stroke:none"
         id="path34" />
      <path
         d="m 1059.86,1093.25 11.28,-15.22 -0.63,9.01 z"
         style="fill:#7c631c;fill-opacity:1;fill-rule:evenodd;stroke:none"
         id="path36" />
      <path
         d="m 1071.14,1078.03 h -38.51 l -9.9,-7.29 h 49.13 l -0.72,7.29"
         style="fill:#7c631c;fill-opacity:1;fill-rule:evenodd;stroke:none"
         id="path38" />
      <path
         d="m 1022.25,1078.03 h -82.809 c 2.016,-3.78 6.032,-7.29 6.032,-7.29 h 77.257 l -0.48,7.29"
         style="fill:#7c631c;fill-opacity:1;fill-rule:evenodd;stroke:none"
         id="path40" />
      <path
         d="m 1022.73,1070.74 c 0,38.6 -35.281,77.79 -45.078,87.59 l 9.438,0.01 c 28.92,-20.32 45.54,-57.5 45.54,-80.31 l -9.9,-7.29"
         style="fill:#7c631c;fill-opacity:1;fill-rule:evenodd;stroke:none"
         id="path42" />
      <path
         d="m 987.09,1158.34 c 0,27.46 -8.621,42.23 -20.512,54.13 0,0 11.074,-16.56 11.074,-54.14 l 9.438,0.01"
         style="fill:#f3deb2;fill-opacity:1;fill-rule:evenodd;stroke:none"
         id="path44" />
      <path
         d="m 973.676,1193.99 c -15.379,0 -51.301,-9.42 -60.758,-18.87 l 1.043,-4.71 c 0,0 9.098,7.63 62.586,7.63 0,0 -1.445,11.15 -2.871,15.95"
         style="fill:#7c631c;fill-opacity:1;fill-rule:evenodd;stroke:none"
         id="path46" />
      <path
         d="m 851.914,1187.46 h 3.117 c 5.653,2.63 18.098,6.01 28.485,6.01 10.39,0 20.777,-7.44 20.777,-33.64 l 10.961,-3.41 c 0,0 0.82,41.77 -26.086,41.77 -26.906,0 -37.254,-10.73 -37.254,-10.73"
         style="fill:#f3deb2;fill-opacity:1;fill-rule:evenodd;stroke:none"
         id="path48" />
      <path
         d="m 904.293,1159.83 c 0,0 -13.563,-12.88 -13.563,-28.26 0,-8.81 4.532,-16.25 4.532,-16.25 l 4.465,-1.99 c 0,0 -3.422,4.92 -3.422,14.19 0,11.73 16.511,26.46 18.949,28.9 l -10.961,3.41"
         style="fill:#7c631c;fill-opacity:1;fill-rule:evenodd;stroke:none"
         id="path50" />
      <path
         d="m 899.727,1113.33 c 0,0 22.414,-3.66 33.035,-17.22 l 7.191,2.66 c 0,0 -11.359,15.52 -28.808,15.52 -4.586,0 -11.418,-0.96 -11.418,-0.96"
         style="fill:#f3deb2;fill-opacity:1;fill-rule:evenodd;stroke:none"
         id="path52" />
      <path
         d="m 932.762,1096.11 c 0,0 -4.754,-10.85 -1.578,-16.72 l 14.289,-8.65 c 0,0 -8.352,7.29 -8.352,14.74 0,7.47 2.832,13.29 2.832,13.29 l -7.191,-2.66"
         style="fill:#7c631c;fill-opacity:1;fill-rule:evenodd;stroke:none"
         id="path54" />
      <path
         d="m 931.184,1079.39 -3.239,-8.65 h 17.528 z"
         style="fill:#f3deb2;fill-opacity:1;fill-rule:evenodd;stroke:none"
         id="path56" />
      <path
         d="m 917.711,1102.27 c 0,0 8.164,-6.81 9.613,-8.27 l -6.094,-2.64 c 0,0 -0.722,6 -3.519,10.91"
         style="fill:#f3deb2;fill-opacity:1;fill-rule:evenodd;stroke:none"
         id="path58" />
      <path
         d="m 921.23,1091.36 c 0,0 -4.738,-7.91 -3.597,-13.33 l 10.312,-7.29 c 0,0 -3.48,5.05 -3.48,10.91 0,5.87 2.859,12.35 2.859,12.35 l -6.094,-2.64"
         style="fill:#7c631c;fill-opacity:1;fill-rule:evenodd;stroke:none"
         id="path60" />
      <path
         d="m 917.633,1078.03 -3.004,-7.29 h 13.316 z"
         style="fill:#f3deb2;fill-opacity:1;fill-rule:evenodd;stroke:none"
         id="path62" />
      <path
         d="m 908.141,1096.03 7.687,-6.83 -5.672,-1.68 z"
         style="fill:#f3deb2;fill-opacity:1;fill-rule:evenodd;stroke:none"
         id="path64" />
      <path
         d="m 910.156,1087.52 c 0,0 -3.824,-5.42 -3.824,-10.16 l 8.297,-6.62 c 0,0 -1.656,2.21 -1.656,6.09 0,3.9 2.855,12.37 2.855,12.37 l -5.672,-1.68"
         style="fill:#7c631c;fill-opacity:1;fill-rule:evenodd;stroke:none"
         id="path66" />
      <path
         d="M 906.332,1077.36 H 844.41 l -6.449,-6.62 h 76.668 l -8.297,6.62"
         style="fill:#7c631c;fill-opacity:1;fill-rule:evenodd;stroke:none"
         id="path68" />
      <path
         d="m 844.41,1077.36 c 0,0 5.121,11.56 15.871,15.85 l -10.922,4.61 c 0,0 -11.398,-6.31 -11.398,-27.08 l 6.449,6.62"
         style="fill:#f3deb2;fill-opacity:1;fill-rule:evenodd;stroke:none"
         id="path70" />
      <path
         d="m 899.883,1253.06 c -16.18,0 -68.125,-13.35 -68.125,-69.71 0,-56.39 28.523,-90.14 28.523,-90.14 l -10.922,4.61 c -17.601,28.51 -25.324,68.11 -25.324,85.22 0,40.52 30.195,81.07 66.922,81.07 0,0 3.75,-7.35 8.926,-11.05"
         style="fill:#f3deb2;fill-opacity:1;fill-rule:evenodd;stroke:none"
         id="path72" />
      <path
         d="m 972.914,1422.78 1.024,-3.45 c 0,0 1.921,10.67 18.191,10.67 16.291,0 36.481,-9.95 36.481,-9.95 l -4.07,7.37 c 0,0 -21.71,7.05 -32.849,7.05 -11.128,0 -18.777,-6.31 -18.777,-11.69"
         style="fill:#f3deb2;fill-opacity:1;fill-rule:evenodd;stroke:none"
         id="path74" />
      <path
         d="m 973.938,1419.33 c 0,0 -4.7,1.15 -7.493,1.15 -2.8,0 -15.379,-2.93 -17.679,-22.08 l -11.379,2.56 c 0,8.07 3.406,24.86 19.082,24.86 7.176,0 16.445,-3.04 16.445,-3.04 l 1.024,-3.45"
         style="fill:#f3deb2;fill-opacity:1;fill-rule:evenodd;stroke:none"
         id="path76" />
      <path
         d="m 991.465,1412.55 -5.688,-3.39 28.263,-1.63 z"
         style="fill:#f3deb2;fill-opacity:1;fill-rule:evenodd;stroke:none"
         id="path78" />
      <path
         d="m 985.777,1409.16 c 0,3.32 0.188,11.09 11.09,11.09 10.923,0 17.173,-12.72 17.173,-12.72 0,0 -8.93,9.89 -17.321,9.89 -3.696,0 -5.254,-3.51 -5.254,-4.87 l -5.688,-3.39"
         style="fill:#7c631c;fill-opacity:1;fill-rule:evenodd;stroke:none"
         id="path80" />
      <path
         d="m 948.766,1398.4 9.32,-9.15 33.605,-0.47 z"
         style="fill:#7c631c;fill-opacity:1;fill-rule:evenodd;stroke:none"
         id="path82" />
      <path
         d="m 958.086,1389.25 c 0,-4.28 -0.66,-21.18 24.375,-21.18 h -9.758 c 0,0 -24.851,-1.14 -24.851,18.82 0,3.95 1.347,6.43 1.347,6.43 l 8.887,-4.07"
         style="fill:#f3deb2;fill-opacity:1;fill-rule:evenodd;stroke:none"
         id="path84" />
      <path
         d="m 982.461,1368.07 c 0,-7.51 -4.016,-27.71 -15.43,-37.2 l -3.633,2.67 0.247,0.33 c 3.101,4.42 9.058,10.29 9.058,34.2 h 9.758"
         style="fill:#7c631c;fill-opacity:1;fill-rule:evenodd;stroke:none"
         id="path86" />
      <path
         d="m 988.176,1315.42 6.125,-11.72 c 0,0 7.309,11.66 23.199,11.66 0,0 -7.29,4.25 -18.121,4.25 -6.086,0 -11.203,-4.19 -11.203,-4.19"
         style="fill:#f3deb2;fill-opacity:1;fill-rule:evenodd;stroke:none"
         id="path88" />
      <path
         d="m 994.301,1303.7 -55.336,40.83 5.332,2.94 43.879,-32.05 6.125,-11.72"
         style="fill:#f3deb2;fill-opacity:1;fill-rule:evenodd;stroke:none"
         id="path90" />
      <path
         d="m 993.824,1281.84 -72.804,53.43 5.5,2.94 64.089,-46.35 3.215,-10.02"
         style="fill:#f3deb2;fill-opacity:1;fill-rule:evenodd;stroke:none"
         id="path92" />
      <path
         d="m 938.965,1344.53 c 0,18.81 -9.172,55.15 -48.848,55.15 l -113.086,-0.22 -11.207,18.26 c 9.535,-3.76 31.719,-10.75 57.848,-10.75 37.773,0 49.836,2.68 76.894,2.68 18.782,0 43.731,-21.03 43.731,-62.18 l -5.332,-2.94"
         style="fill:#f3deb2;fill-opacity:1;fill-rule:evenodd;stroke:none"
         id="path94" />
      <path
         d="m 777.031,1399.46 c 0,-7.37 10.219,-11.88 32.539,-11.88 22.34,0 68.653,0 75.09,0 9.496,0 41.86,0.34 41.86,-49.37 l -5.5,-2.94 c 0,21.42 -6.125,46.39 -37.387,46.39 -31.285,0 -72.883,-2.82 -89.629,-2.82 -16.723,0 -32.328,7.17 -32.328,23.41 0,7.88 4.148,15.47 4.148,15.47 l 11.207,-18.26"
         style="fill:#7c631c;fill-opacity:1;fill-rule:evenodd;stroke:none"
         id="path96" />
      <path
         d="m 772.352,1384.01 c 0,-12.59 7.535,-27.62 28.445,-27.62 20.875,0 78.687,2.09 84.105,2.09 5.446,0 36.118,-3.76 36.118,-23.21 0,0 -0.266,29.98 -35.657,29.98 -35.394,0 -96.285,-6.09 -96.285,13.82 -2.133,0 -12.023,1.74 -16.726,4.94"
         style="fill:#7c631c;fill-opacity:1;fill-rule:evenodd;stroke:none"
         id="path98" />
      <path
         d="m 785.973,1359.67 c -1.805,-8.46 6.757,-24.44 25.863,-24.44 19.125,0 109.184,0.04 109.184,0.04 0,0 -61.098,2.65 -74.153,3.84 -13.074,1.18 -42.644,2.75 -42.644,17.17 0,0 -11.774,-0.25 -18.25,3.39"
         style="fill:#7c631c;fill-opacity:1;fill-rule:evenodd;stroke:none"
         id="path100" />
      <path
         d="m 811,1335.25 c 0,-10.41 13.891,-21.88 38.438,-21.88 43.746,0 90.191,8.26 90.191,8.26 l -9.91,7.25 c 0,0 -15.602,-11.87 -62.891,-11.87 -33.738,0 -40.133,10.78 -40.133,18.22 L 811,1335.25"
         style="fill:#7c631c;fill-opacity:1;fill-rule:evenodd;stroke:none"
         id="path102" />
      <path
         d="m 848.793,1313.37 c 0,-13.46 11.43,-22.18 26.367,-22.18 35.395,0 81.098,18.22 81.098,18.22 l -8.918,6.63 c 0,0 -21.828,-19.94 -58.422,-19.94 -12.824,0 -24.965,5.17 -24.965,17.56 l -15.16,-0.29"
         style="fill:#7c631c;fill-opacity:1;fill-rule:evenodd;stroke:none"
         id="path104" />
      <path
         d="m 874.668,1291.21 c 0,0 -2.453,-21.7 20.398,-21.7 31.379,0 75.637,29.34 75.637,29.34 l -8.027,5.91 c 0,0 -33.586,-30.52 -54.27,-30.52 -14.726,0 -20.687,4.83 -20.687,17.64 l -13.051,-0.67"
         style="fill:#7c631c;fill-opacity:1;fill-rule:evenodd;stroke:none"
         id="path106" />
      <path
         d="m 895.066,1269.51 c -1.941,0 -5.253,0.45 -5.253,0.45 0,-1.58 0.078,-3.74 1.16,-5.83 3.656,-7.06 9.82,-15.72 25.215,-15.72 35.699,0 68.195,40.37 68.195,40.37 l -6.809,5.01 c 0,0 -20.476,-41.63 -57.297,-41.63 -8.558,0 -19.273,5.64 -19.273,17.66 0,0 -4.016,-0.31 -5.938,-0.31"
         style="fill:#7c631c;fill-opacity:1;fill-rule:evenodd;stroke:none"
         id="path108" />
      <path
         d="m 917.633,1248.45 c 0,0 7.234,-11.42 30.258,-11.42 22.984,0 45.933,27.22 45.933,44.81 l -5.73,4.21 c 0,0 -1.063,-42.92 -39.539,-42.92 -9.742,0 -15.524,8.08 -15.524,8.08 0,0 -9.25,-2.76 -15.398,-2.76"
         style="fill:#7c631c;fill-opacity:1;fill-rule:evenodd;stroke:none"
         id="path110" />
      <path
         d="m 1157.77,1468.36 2.28,2.25 H 730.453 v -430.25 l 2.262,2.28 v 425.72 h 425.055"
         style="fill:#f3deb2;fill-opacity:1;fill-rule:evenodd;stroke:none"
         id="path112" />
      <path
         d="M 1157.77,1468.36 H 732.715 v -425.72 l 425.055,-0.13 v 425.85 z m -3.29,-422.54 c -2.62,0 -413.542,0.08 -416.191,0.08 0,0.13 0,0.91 0,2.28 -1.351,0 -2.133,0 -2.266,0 0,2.61 0,414.27 0,416.9 2.625,0 413.547,0 416.197,0 0,-0.12 0,-0.9 0,-2.26 1.35,0 2.13,0 2.26,0 0,-2.62 0,-414.39 0,-417"
         style="fill:#d8af28;fill-opacity:1;fill-rule:evenodd;stroke:none"
         id="path114" />
      <path
         d="m 1152.22,1048.06 c -2.52,0 -387.423,0.12 -413.931,0.12 0,0 -2.266,-2.15 -2.266,-2.28 2.625,0 415.837,-0.08 418.457,-0.08 0,2.61 0,416.63 0,419.26 -0.13,0 -2.26,-2.26 -2.26,-2.26 0,-26.38 0,-412.23 0,-414.76"
         style="fill:#f3deb2;fill-opacity:1;fill-rule:evenodd;stroke:none"
         id="path116" />
      <path
         d="m 1157.77,1468.36 v -425.85 l -425.055,0.13 -2.262,-2.28 429.587,-0.08 v 430.33 l -2.27,-2.25"
         style="fill:#a48924;fill-opacity:1;fill-rule:evenodd;stroke:none"
         id="path118" />
      <path
         d="m 1152.22,1462.82 c 0,0 2.26,2.14 2.26,2.26 -2.62,0 -415.832,0 -418.457,0 0,-2.63 0,-416.53 0,-419.18 0.133,0 2.266,2.28 2.266,2.28 0,26.36 0,412.11 0,414.64 2.516,0 387.411,0 413.931,0"
         style="fill:#a48924;fill-opacity:1;fill-rule:evenodd;stroke:none"
         id="path120" />
      <path
         d="m 1186.07,1496.39 5.02,4.99 H 699.32 v -491.87 l 5.024,5.02 v 481.86 h 481.726"
         style="fill:#f3deb2;fill-opacity:1;fill-rule:evenodd;stroke:none"
         id="path122" />
      <path
         d="M 1186.07,1496.39 H 704.344 v -481.86 l 481.726,-0.15 v 482.01 z m -3.73,-478.28 c -2.98,0 -468.711,0.12 -471.699,0.12 0,0.13 0,1.02 0,2.57 -1.52,0 -2.414,0 -2.571,0 0,2.95 0,468.91 0,471.9 2.989,0 468.72,0 471.7,0 0,-0.16 0,-1.04 0,-2.58 1.52,0 2.4,0 2.57,0 0,-2.98 0,-469.03 0,-472.01"
         style="fill:#d8af28;fill-opacity:1;fill-rule:evenodd;stroke:none"
         id="path124" />
      <path
         d="m 1179.77,1020.66 c -2.83,0 -439.098,0.14 -469.129,0.14 0,0 -2.571,-2.44 -2.571,-2.57 2.989,0 471.29,-0.12 474.27,-0.12 0,2.98 0,471.6 0,474.59 -0.17,0 -2.57,-2.58 -2.57,-2.58 0,-29.87 0,-466.59 0,-469.46"
         style="fill:#f3deb2;fill-opacity:1;fill-rule:evenodd;stroke:none"
         id="path126" />
      <path
         d="m 1186.07,1496.39 v -482.01 l -481.726,0.15 -5.024,-5.02 491.75,-0.09 v 491.96 l -5,-4.99"
         style="fill:#a48924;fill-opacity:1;fill-rule:evenodd;stroke:none"
         id="path128" />
      <path
         d="m 1179.77,1490.12 c 0,0 2.57,2.42 2.57,2.58 -2.98,0 -471.281,0 -474.27,0 0,-2.99 0,-471.47 0,-474.47 0.157,0 2.571,2.57 2.571,2.57 0,29.85 0,466.46 0,469.32 2.839,0 439.099,0 469.129,0"
         style="fill:#a48924;fill-opacity:1;fill-rule:evenodd;stroke:none"
         id="path130" />
      <path
         d="m 166.195,882.527 c -9.933,-0.601 -27.058,-1.535 -33.511,-1.535 l -37.7895,1.535 c -0.0195,0 -0.1875,0 -0.2461,-0.023 -0.5703,-0.074 -0.7578,-0.633 -0.9921,-1.141 -0.0547,-0.16 -0.3594,-0.14 -0.3594,-0.351 0,-0.02 0,-0.074 0,-0.074 0,-0.09 0,-0.161 0.0156,-0.262 l 1.0508,-6.336 1.4258,0.105 c 3.8672,0.25 15.0509,0.133 20.1719,-3.582 5.437,-4.07 7.344,-11.656 7.344,-80.453 v -50.14 c 0,-58.032 -8.887,-66.68 -14.157,-66.68 l -3.386,1.156 -3.864,1.184 c -2.4917,0 -16.8589,-6.836 -16.8589,-11.461 0,-3.274 5.2304,-7.012 9.8554,-7.012 19.0115,0 39.4065,28.481 48.1255,40.621 l 0.285,0.41 0.281,0.825 0.5,16.894 -0.5,70.617 v 19.36 l 0.5,36.933 c 0.262,28.918 2.172,29.883 22.582,31.328 l 1.566,0.118 -0.421,8.07 -1.618,-0.106"
         style="fill:#29559a;fill-opacity:1;fill-rule:evenodd;stroke:none"
         id="path132" />
      <path
         d="m 375.02,881.242 h -15.536 l 1.813,-7.285 2.035,-0.078 c 11.379,-0.371 21.957,-2.422 21.957,-14.395 0,-10.113 -17.336,-61.789 -36.723,-109.828 -10.238,24.844 -40,106.078 -40,115.258 0,0.039 0,0.078 0,0.133 0,3.418 0.27,7.058 17.981,9.148 l 1.504,0.145 -0.438,7.57 -1.613,-0.133 c -12.16,-0.855 -26.035,-1.289 -41.273,-1.289 l -16.137,0.434 -3.219,0.183 0.82,-8.398 1.368,-0.078 c 4.226,-0.246 9.078,-0.988 13.05,-6.356 2.063,-2.757 5.485,-10.632 14.598,-31.738 0,0 1.332,-3.031 1.731,-4.015 -0.551,-1.243 -21.692,-48.497 -21.692,-48.497 l -3.879,-9.234 -5.402,-12.664 c -0.043,-0.117 -2.324,-6.043 -3.844,-10.02 -7.691,18.325 -40.437,105.903 -40.437,114.555 0,5.254 11.453,7.934 19.199,8.504 l 1.656,0.098 -0.855,7.98 h -10.485 c -0.117,0 -21.976,-0.504 -21.976,-0.504 l -17.871,0.41 -3.563,0.094 c 0,0 -12.008,0.535 -12.019,0.535 -0.438,0 -0.516,-0.515 -0.782,-0.824 -0.25,-0.277 -0.722,-0.293 -0.722,-0.703 -0.024,-0.02 0.304,-6.84 0.304,-6.84 h 1.539 c 6.317,0 14.957,0 21.618,-12.371 7.957,-14.848 24.355,-63.113 34.171,-91.934 l 5.805,-16.953 15.11,-43.738 h 5.671 l 2.891,8.941 c 5.023,15.454 10.676,32.946 19.926,53.778 l 13.41,30.285 c 0,0.016 5.961,12.836 5.961,12.836 0,0 0.625,1.309 1.199,2.559 2.32,-6.375 19.902,-54.622 19.902,-54.622 l 10.504,-31.644 7.114,-21.828 1.089,-0.059 5.114,-0.328 5.195,15.41 8.109,22.664 c 6.243,16.309 7.34,19.367 7.555,20.149 0,-0.071 -0.019,-0.2 -0.019,-0.2 l 25.082,69.571 c 11.449,31.406 17.519,36.859 31.222,38.269 l 1.352,0.11 0.437,7.527 -11.82,-0.332 c -17.371,-0.523 -27.281,-0.488 -37.687,-0.258"
         style="fill:#29559a;fill-opacity:1;fill-rule:evenodd;stroke:none"
         id="path134" />
      <path
         d="m 689.746,755.832 -1.441,37.199 -0.102,4.426 -0.793,35.176 c -0.097,4.32 -0.133,8.183 -0.133,11.59 0,26.89 3.383,27.297 21.743,29.422 l 1.339,0.171 0.438,7.684 h -39.449 l -0.438,-0.918 C 666.477,870.68 649.352,838.73 636.848,815.418 L 622.574,788.57 c -9.758,-18.875 -12.957,-24.785 -17.121,-31.859 -50.406,94.113 -52.484,97.973 -61.652,122.98 l -0.383,1.047 h -12.27 l -18.234,0.762 c -0.055,0 -16.668,0.93 -16.668,0.93 l -2.965,0.203 -0.156,-1.528 -0.703,-6.562 1.691,-0.098 c 19.676,-1.09 28.45,-5.695 28.45,-30.207 l -0.247,-7.531 -0.269,-4.57 -3.859,-65.914 c -2.059,-34.004 -2.418,-40.121 -25.309,-44.309 l -1.234,-0.215 -0.461,-6.621 27.058,0.817 c 0.043,0 15.262,0.289 15.262,0.289 l 7.898,-0.289 11.356,-0.899 0.176,1.637 0.379,5.687 -1.54,0.133 c -21.007,2.266 -21.863,6.805 -21.863,17.817 0,21.921 1.043,57.988 5.781,105.921 3.766,-7.347 40.86,-79.539 40.86,-79.539 11.183,-21.398 17.012,-39.398 19.804,-48.07 l 0.645,-1.91 h 6.203 l 0.383,1.152 c 3.406,11.531 9.004,23.574 14.879,36.321 l 0.805,1.71 c 8.804,18.454 27.683,53.633 40.203,76.954 0,0 4.433,8.293 6.851,12.824 1.598,-14.856 1.903,-22.184 2.379,-35.863 l 1.008,-34.122 c 0,-0.035 0.266,-15.484 0.266,-15.484 0,-30.285 -5.043,-32.816 -22.547,-36.965 l -1.274,-0.312 0.395,-7.719 2.988,0.371 c 3.789,0.524 8.524,1.133 22.57,1.133 h 40.149 v 7.808 l -1.594,0.063 c -17.891,0.199 -19.644,2.844 -20.918,31.289"
         style="fill:#29559a;fill-opacity:1;fill-rule:evenodd;stroke:none"
         id="path136" />
      <path
         d="m 861.961,728.758 c -5.426,7.265 -14.922,32.246 -22.57,52.336 l -1.813,4.746 c 0,0 -26.64,71.066 -26.64,71.094 -0.016,0.035 -0.7,2 -0.7,2 -2.32,6.41 -4.281,11.906 -7.804,24.765 l -0.321,1.164 h -6.566 l -0.305,-1.164 c -4.988,-17.867 -13.144,-36.711 -20.359,-53.312 l -0.801,-1.789 c 0,-0.039 -20.187,-48.43 -20.187,-48.43 -4.055,-11.117 -19.391,-47.074 -25.157,-51.859 -0.476,-0.496 -4.152,-3.938 -10.976,-5.649 l -1.199,-0.277 v -6.606 l 1.71,0.118 c 5.231,0.445 13.301,1.035 22.891,1.035 10.977,0 17.297,-0.817 22.891,-1.539 l 3.785,-0.469 v 7.348 l -1.348,0.183 c -18.824,2.735 -18.824,7.453 -18.824,10.567 0,3.003 1.238,6.257 6.109,17.73 0,0.023 7.309,18.355 8.965,22.426 7.457,1.234 18.344,1.679 25.176,1.429 h 10.125 c 7.059,0 15.637,-0.039 22.66,-0.96 0.664,-1.774 8.961,-24.356 8.961,-24.356 1.106,-2.476 5.578,-14.898 5.578,-19.66 0,-4.149 -5.617,-5.574 -11.379,-6.703 l -1.297,-0.227 v -7.176 l 4.438,0.317 c 5.078,0.383 14.59,1.09 27.152,1.09 10.465,0 14.559,-0.258 19.77,-0.746 l 1.754,-0.2 v 7.625 l -1.434,0.133 c -4.926,0.512 -9.836,1.446 -12.285,5.016 z m -73.606,108.355 c 0,0 2.133,5.082 3.579,8.551 3.136,-6.98 9.035,-20.398 10.293,-23.965 0.035,-0.039 9.078,-23.308 9.078,-23.308 0.074,-0.133 4.699,-12.512 4.699,-12.512 0,0 0.148,-0.395 0.226,-0.633 -3.347,-0.082 -16.613,-0.449 -16.613,-0.449 -0.035,0 -11.66,-0.262 -11.66,-0.262 -0.457,0 -10.754,0.059 -19.715,1.289 0.914,2.297 2.469,6.098 2.469,6.098 l 0.652,1.855 14.231,36.688 -0.059,-0.094 2.82,6.742"
         style="fill:#29559a;fill-opacity:1;fill-rule:evenodd;stroke:none"
         id="path138" />
      <path
         d="m 1045.01,716.5 c -25.02,1.773 -49.072,38.105 -72.365,73.262 0,0 -2.985,4.48 -4.606,6.937 21.504,8.551 34.371,24.313 34.371,42.614 0,22.269 -19.832,44.773 -57.699,44.773 -3.809,0 -14.215,-0.82 -24.281,-1.594 l -21.77,-1.5 -18.433,0.301 -0.211,-1.332 -0.344,-2.438 -0.359,-3.371 1.558,-0.238 c 16.305,-2.18 16.957,-2.273 16.707,-50.891 v -55.886 c -0.25,-40.91 -3.461,-41.817 -12.023,-44.25 -4.457,-1.188 -6.36,-1.715 -6.36,-4.856 0,-1.652 1.125,-3.426 4.203,-3.426 l 10.415,0.786 c 0.093,0 17.011,0.793 17.011,0.793 l 13.012,-1.055 4.949,-0.484 5.824,-0.54 c 1.618,0 3.407,1.083 3.407,4.204 0,2.007 -1.434,2.472 -3.063,3.023 l -0.859,0.289 c -11.418,3.082 -11.813,3.453 -13.567,7.152 -2.722,6.504 -2.945,30.438 -2.945,37.618 0,0 0.207,22.203 0.262,28.496 8.351,-1.071 16.289,-1.367 25.23,-1.383 0.856,-1.231 14.008,-20.031 14.008,-20.031 h -0.019 c 22.949,-32.914 48.307,-65.059 83.577,-65.059 5.46,0 8.07,0.566 8.07,3.91 0,3.176 -2.12,3.899 -3.7,4.176 z m -64.944,119.691 c 0,-14.941 -7.421,-32.785 -42.605,-32.785 -10.578,0 -15.809,1.028 -18.836,1.75 0,21.453 0.051,59.532 2.699,65.297 1.278,3.254 12.16,4.981 19.223,4.981 29.59,0 39.519,-26.942 39.519,-39.243"
         style="fill:#29559a;fill-opacity:1;fill-rule:evenodd;stroke:none"
         id="path140" />
      <path
         d="m 1217.53,716.5 c -25.07,1.773 -49.14,38.105 -72.37,73.262 0,0 -3,4.48 -4.64,6.937 21.53,8.551 34.36,24.313 34.36,42.614 0,22.269 -19.83,44.773 -57.71,44.773 -3.79,0 -14.2,-0.82 -24.28,-1.594 l -21.73,-1.5 -18.42,0.301 -0.21,-1.316 -0.36,-2.454 -0.37,-3.371 1.54,-0.238 c 16.35,-2.18 16.98,-2.273 16.73,-50.891 v -55.886 c -0.28,-40.91 -3.46,-41.817 -12.02,-44.25 -4.48,-1.188 -6.34,-1.715 -6.34,-4.856 0,-1.652 1.08,-3.426 4.19,-3.426 l 10.41,0.786 c 0.09,0 17,0.793 17,0.793 l 13.04,-1.055 4.95,-0.484 5.8,-0.54 c 1.64,0 3.39,1.083 3.39,4.204 0,2.007 -1.43,2.472 -3.07,3.023 l -0.87,0.289 c -11.4,3.082 -11.78,3.453 -13.51,7.152 -1.86,4.356 -2.97,18.45 -2.97,37.618 0,0 0.19,22.203 0.25,28.496 8.39,-1.071 16.31,-1.367 25.21,-1.383 0.9,-1.231 14.06,-20.031 14.06,-20.031 22.93,-32.914 48.26,-65.059 83.52,-65.059 5.48,0 8.1,0.566 8.1,3.91 0,3.176 -2.1,3.899 -3.68,4.176 z m -64.99,119.691 c 0,-14.941 -7.36,-32.785 -42.6,-32.785 -10.56,0 -15.78,1.028 -18.84,1.75 0,21.453 0.06,59.532 2.68,65.297 1.29,3.254 12.22,4.981 19.24,4.981 29.59,0 39.52,-26.942 39.52,-39.243"
         style="fill:#29559a;fill-opacity:1;fill-rule:evenodd;stroke:none"
         id="path142" />
      <path
         d="m 1273.68,741.863 c 0,0.262 -0.52,44.16 -0.52,44.16 0,-0.668 -0.38,-1.226 -0.97,-1.464 0.59,0.277 0.97,0.832 0.97,1.464 v 22.52 c 0,43.281 2.18,56.531 3.97,60.016 2.07,3.754 5.38,5.086 19.8,5.086 h 1.58 v 8.964 l -15.09,-0.484 -3.1,-0.105 c -0.07,0 -18.32,-0.778 -18.32,-0.778 l -17.28,0.535 c 0.05,0 -17.89,0.75 -17.89,0.75 l -1.65,0.082 0.05,-1.671 v -6.743 l 1.56,-0.043 c 23.07,-0.464 24.05,-4.461 24.57,-21.195 0,-0.023 0.36,-9.801 0.36,-9.801 l 0.91,-44.468 c 0,-13.481 0,-54.536 -3.76,-65.395 -1.79,-5.258 -4.39,-8.789 -23.67,-9.801 l -1.63,-0.105 0.48,-7.785 14.83,0.347 23.12,0.469 34.84,-0.816 0.13,1.461 0.67,6.64 -1.74,0.039 c -21.61,0.496 -21.69,3.176 -22.22,18.121 z m -2.11,42.559 v 0 c 0.18,0 0.32,0.062 0.47,0.113 -0.15,-0.051 -0.26,-0.094 -0.47,-0.113"
         style="fill:#29559a;fill-opacity:1;fill-rule:evenodd;stroke:none"
         id="path144" />
      <path
         d="m 1385.07,885.398 c -48.22,0 -88.98,-39.464 -88.98,-86.191 0,-34.738 26.89,-86.144 84.62,-86.144 50.05,0 89.27,38.082 89.27,86.695 0,52.883 -44.06,85.64 -84.91,85.64 z m 6.49,-160.093 c -39.13,0 -73.38,39.008 -73.38,83.472 0,42.414 29.61,64.633 58.9,64.633 38.9,0 70.54,-37.59 70.54,-83.762 0,-44.214 -29.06,-64.343 -56.06,-64.343"
         style="fill:#29559a;fill-opacity:1;fill-rule:evenodd;stroke:none"
         id="path146" />
      <path
         d="m 1630.1,881.422 -3.88,3.664 -1.41,-1.133 c -2.06,-2.281 -2.66,-2.961 -9.53,-2.961 l -30.29,-0.504 h -63.86 c -20.92,0 -30.81,0.25 -36.54,0.989 -5,0.671 -6.21,1.773 -8.6,4 l -2.4,2.16 -0.78,-2.324 -10.6,-29.903 c -0.04,-0.058 -0.04,-0.113 -0.04,-0.199 0,-0.02 -0.01,-0.02 -0.01,-0.02 -0.06,-0.132 -0.06,-0.25 -0.06,-0.371 0,-0.152 0.2,-0.191 0.24,-0.308 0.16,-0.489 0.33,-1.032 0.8,-1.211 0.06,-0.02 0.14,-0.02 0.2,-0.02 v -0.039 l 5.74,-1.304 0.52,1.226 c 4.91,11.883 6.79,16.348 41.69,16.348 11.28,0 17.62,-0.465 22.6,-0.938 2.69,-7.824 2.69,-20.859 2.69,-65.207 l -0.63,-47.535 -0.13,-5.992 -1.03,-14.274 c 0,-8.546 0,-9.636 -17.39,-13.691 -0.02,0 -2.69,-0.648 -2.69,-0.648 l -6.9,-1.895 0.66,-1.605 c 1.01,-2.743 1.91,-5.18 5.94,-5.18 l 4.53,0.555 4.51,0.746 c 14.61,2.336 21.27,2.336 26.66,2.336 l 13.52,-0.793 c 0.08,0 8.61,-0.512 8.61,-0.512 l 5,-0.274 6.53,0.379 -0.18,0.817 0.41,3.777 c 0,2.43 -1.62,2.598 -6.44,3.059 l -0.66,0.074 c -18.76,2.398 -18.76,2.398 -18.76,44.426 l 0.53,60.218 1.04,26.942 0.5,12.141 c 0.17,3.16 0.19,3.371 17.83,3.371 26.07,0 34.14,-2.829 38.4,-5.938 -0.02,-0.449 -0.04,-0.91 -0.04,-0.91 l -1.1,-11.469 2,0.199 6.56,0.934 0.21,1.148 c 1.07,5.805 4.13,18.262 6.91,25.586 l 0.4,0.95 -1.28,1.113"
         style="fill:#29559a;fill-opacity:1;fill-rule:evenodd;stroke:none"
         id="path148" />
      <path
         d="m 1812.07,882.258 -3.88,3.683 -1.43,-1.187 c -2.03,-2.262 -2.68,-2.945 -9.6,-2.945 l -30.59,-0.516 h -64.52 c -21.12,0 -31.13,0.238 -36.86,1.023 -5.1,0.649 -6.3,1.77 -8.77,4.02 l -2.36,2.195 -0.8,-2.351 -10.71,-30.207 c -0.02,-0.078 -0.02,-0.157 -0.02,-0.211 0,-0.028 -0.04,-0.028 -0.06,-0.028 -0.02,-0.117 -0.02,-0.25 -0.02,-0.367 0,-0.156 0.23,-0.176 0.25,-0.308 0.13,-0.485 0.3,-1.036 0.84,-1.211 0.03,-0.02 0.11,-0.02 0.13,-0.02 l 0.02,-0.015 5.81,-1.391 0.51,1.297 c 5,11.972 6.85,16.476 42.11,16.476 11.43,0 17.79,-0.449 22.83,-0.933 2.7,-7.914 2.72,-21.063 2.72,-65.879 l -0.66,-47.977 -0.13,-6.101 -1.02,-14.371 c 0,-8.653 0,-9.766 -17.56,-13.817 -0.03,0 -2.68,-0.707 -2.68,-0.707 l -7,-1.91 0.68,-1.617 c 1.03,-2.778 1.9,-5.215 5.95,-5.215 l 4.57,0.562 4.59,0.723 c 14.75,2.36 21.48,2.36 26.91,2.36 l 13.7,-0.762 c 0.05,-0.016 8.66,-0.551 8.66,-0.551 l 5.07,-0.25 6.55,0.355 -0.17,0.762 0.46,3.887 c 0,2.457 -1.64,2.641 -6.49,3.09 l -0.72,0.07 c -18.92,2.418 -18.92,2.418 -18.92,44.899 l 0.5,60.808 1.06,26.891 0.52,12.543 c 0.17,3.203 0.21,3.437 17.96,3.437 26.37,0 34.54,-2.828 38.86,-5.965 -0.03,-0.507 -0.07,-0.972 -0.07,-0.972 l -1.11,-11.559 2.01,0.199 6.64,0.95 0.19,1.152 c 1.09,5.91 4.21,18.488 7,25.84 l 0.39,0.988 -1.34,1.133"
         style="fill:#29559a;fill-opacity:1;fill-rule:evenodd;stroke:none"
         id="path150" />
      <path
         d="m 175.082,519.695 c 10.348,1.641 10.809,3.91 11.301,7.168 1.883,12.883 2.535,44.004 2.535,58.825 0,26.718 -1.434,28.667 -11.152,28.667 l 0.343,3.922 c 1.75,0.481 3.004,0.817 5.727,0.817 1.594,0 7.48,-0.18 13.355,-0.336 6.051,-0.16 12.102,-0.481 14.329,-0.481 h 7.171 v -3.922 c -1.445,-0.316 -7.644,-1.46 -8.921,-1.949 -1.731,-0.64 -2.532,-1.64 -3.325,-7.66 -1.449,-11.062 -1.777,-17.262 -1.601,-31.933 10.976,-0.329 37.086,-0.645 48.215,-0.645 5.574,0 7.175,0.156 10.523,0.645 0,4.226 0.156,8.804 0.156,13.363 0,25.59 -0.8,26.562 -10.351,28.512 -0.801,0.156 -2.063,0.488 -2.403,0.488 l 0.801,3.738 c 4.301,-0.316 9.875,-0.973 20.399,-0.973 10.488,0 14.957,0.657 18.589,0.973 v -3.738 c -3.804,-0.488 -7.304,-1.137 -8.73,-5.707 -2.078,-6.512 -2.227,-54.895 -2.227,-65.336 0,-20.695 1.106,-23.465 10.957,-24.438 l -0.3,-3.738 c -3.977,0.488 -10.352,0.82 -20.059,0.82 -6.203,0 -11.93,-0.332 -18.629,-0.82 v 3.738 c 6.375,0.489 8.77,2.461 9.875,6.2 1.922,6.675 1.922,23.945 1.922,38.613 -12.258,0.652 -56.516,0.824 -58.738,0.824 -0.176,-6.531 -0.321,-17.773 -0.321,-19.41 0,-3.738 0,-18.078 0.95,-20.363 1.593,-3.739 6.527,-4.891 10.976,-5.864 v -3.738 c -4.129,0.156 -24.035,0.82 -26.09,0.82 -4.148,0 -9.246,-0.332 -13.851,-0.82 l -1.426,3.738"
         style="fill:#cfae21;fill-opacity:1;fill-rule:evenodd;stroke:none"
         id="path152" />
      <path
         d="m 414.48,567.125 c 0,-27.379 -21.007,-53.133 -53.488,-53.133 -33.586,0 -53.492,25.418 -53.492,53.934 0,31.777 26.754,51.988 54.445,51.988 29.129,0 52.535,-23.148 52.535,-52.789 z m -88.351,9.602 c 0,-26.887 12.559,-56.875 38.359,-56.875 10.203,0 31.516,6.375 31.516,36.515 0,21.16 -10.012,57.188 -38.512,57.188 -7.652,0 -31.363,-3.606 -31.363,-36.828"
         style="fill:#cfae21;fill-opacity:1;fill-rule:evenodd;stroke:none"
         id="path154" />
      <path
         d="m 446.336,518.395 c 2.543,0.64 14.344,3.761 15.605,5.859 1.922,2.945 2.067,35.851 2.067,41.078 0,14.813 0,37.961 -1.594,44.469 -4.473,0.332 -6.531,0.484 -14.805,0.484 -20.207,0 -21.484,-2.922 -24.035,-9.609 l -3.98,0.976 c 3.98,10.114 5.426,15.493 6.383,18.746 h 2.679 c 1.297,-1.304 5.422,-1.8 6.371,-1.972 6.383,-0.801 30.086,-0.801 38.368,-0.801 11.628,0 34.859,0.156 44.714,0.652 2.243,0.149 2.719,0.321 3.676,0.969 l 2.399,-1.465 c -1.278,-3.578 -3.832,-10.086 -4.477,-17.105 l -4.754,-0.821 c 0,0.969 0.629,5.223 0.629,6.208 -5.406,4.222 -17.184,4.222 -23.559,4.222 -6.05,0 -7.175,0 -10.027,-0.484 -0.648,-14.168 -1.277,-41.875 -1.277,-69.906 0,-17.106 1.422,-17.426 8.601,-18.895 5.727,-0.816 6.371,-0.816 7.805,-1.148 l -0.477,-4.071 c -2.55,0 -13.855,0.996 -15.601,0.996 -15.457,0 -17.184,0 -33.262,-2.613 l -1.449,4.231"
         style="fill:#cfae21;fill-opacity:1;fill-rule:evenodd;stroke:none"
         id="path156" />
      <path
         d="m 537.578,519.367 c 5.723,1.149 8.926,1.969 9.899,7.344 1.57,9.113 1.898,37.316 1.898,48.047 0,4.07 -1.125,24.125 -1.125,28.683 -0.629,8.965 -2.074,9.786 -7.953,11.247 -0.645,0.156 -1.602,0.332 -1.75,0.488 v 2.937 l 5.726,-0.172 44.586,-0.16 c 11.114,0 16.688,0.16 27.039,0.977 0.473,-11.246 -1.898,-21.672 -3.976,-21.672 -0.805,0 -2.227,0.336 -3.332,0.496 0.461,1.973 0.933,4.242 0.933,6.344 0,6.207 -6.675,8.969 -22.437,8.969 -6.523,0 -13.207,-0.825 -20.055,-1.79 -1.121,-9.785 -1.578,-15.804 -1.578,-25.253 0,-3.586 0,-6.532 0.156,-14.168 3.649,-0.176 8.903,-0.504 14.477,-0.504 11.148,0 19.43,1.144 20.684,1.789 2.722,1.148 4.128,9.133 4.128,9.297 h 3.692 v -31.125 h -3.692 c -1.882,14.019 -1.882,14.672 -27.043,14.672 -6.519,0 -8.597,-0.321 -12.246,-0.989 0,-2.281 -0.5,-21.008 -0.5,-21.511 0,-8.946 1.145,-14.985 1.922,-19.391 5.254,-0.973 12.903,-2.277 21.977,-2.277 23.863,0 28.164,12.543 30.238,18.414 h 3.5 c -0.793,-9.278 -2.226,-14.016 -6.848,-25.102 -21.16,1.488 -26.89,1.82 -41.691,1.82 -14.672,0 -21.504,-0.515 -37.105,-1.82 l 0.476,4.41"
         style="fill:#cfae21;fill-opacity:1;fill-rule:evenodd;stroke:none"
         id="path158" />
      <path
         d="m 637.227,521.156 c 2.726,0.332 6.851,1.313 8.929,3.914 2.684,3.43 2.684,5.043 2.852,44.817 0,30.148 0,32.922 -0.477,36.98 -0.797,6.844 -5.422,7.336 -10.027,7.66 v 3.899 c 6.051,-0.149 7.973,-0.313 19.426,-0.313 12.101,0 15.113,0.164 21.16,0.485 v -4.243 c -5.098,-0.644 -9.551,-1.46 -11.129,-4.406 -2.246,-4.219 -2.551,-33.883 -2.551,-41.207 l -0.148,-25.097 c 0,-10.098 0.148,-15.145 1.578,-17.602 1.269,-2.438 5.098,-2.438 12.422,-2.438 30.886,0 34.711,7.176 37.238,14.84 l 3.828,-0.488 c -0.644,-5.227 -0.777,-6.355 -6.203,-22.816 -7.176,1.304 -10.676,1.945 -32.332,1.945 h -44.238 l -0.328,4.07"
         style="fill:#cfae21;fill-opacity:1;fill-rule:evenodd;stroke:none"
         id="path160" />
      <path
         d="m 736.234,544.465 c 1.75,-7.992 3.977,-13.195 15.606,-18.727 6.848,-3.097 15.43,-5.222 21.953,-5.222 3.828,0 15.773,1.129 15.773,16.773 0,13.367 -11.144,18.258 -25.476,23.309 -14.305,5.215 -26.406,11.886 -26.406,29.324 0,16.945 13.683,28.992 33.261,28.992 3.5,0 19.426,-1.949 21.953,-1.949 1.606,0 3.356,0.332 4.461,1.148 l 2.715,-0.66 c -0.148,-1.129 -0.644,-9.117 -0.644,-9.453 0,-1.453 0.324,-9.117 0.324,-9.445 v -4.871 h -3.352 c -3.652,20.843 -25.136,20.843 -27.211,20.843 -14.632,0 -18.152,-10.601 -18.152,-17.761 0,-8.309 3.176,-14.168 22.281,-21.008 12.903,-4.891 30.41,-11.582 30.41,-32.113 0,-10.758 -5.726,-28.504 -36.285,-28.504 -7.957,0 -15.129,0.972 -22.757,2.605 -0.329,0 -1.45,0.317 -1.922,0.317 -1.434,0 -1.602,-0.801 -1.602,-1.465 h -4.285 c -0.496,8.808 -1.445,14.031 -4.473,26.89 l 3.828,0.977"
         style="fill:#cfae21;fill-opacity:1;fill-rule:evenodd;stroke:none"
         id="path162" />
      <path
         d="m 964.027,533.215 c -2.23,-5.535 -7.004,-17.434 -19.754,-17.434 -9.074,0 -15.605,6.039 -19.425,14.184 -4.762,-5.863 -11.914,-14.824 -27.844,-14.824 -21.953,0 -27.379,14.336 -27.379,25.254 0,18.738 13.852,27.035 19.254,30.289 -10.352,6.687 -10.352,15.492 -10.352,17.113 0,10.113 8.602,15.976 11.157,17.445 2.695,1.625 10.652,5.375 12.097,5.375 0.305,0 17.832,-3.254 17.832,-18.09 0,-5.218 -1.277,-6.519 -12.105,-17.589 12.105,-5.868 14.805,-8.813 22.914,-24.946 6.371,13.863 12.101,26.563 12.101,32.274 0,2.449 -2.375,3.742 -7.48,5.859 l 1.602,3.102 c 13.203,-3.918 18.136,-4.071 23.085,-4.235 v -3.422 c -4.46,-0.672 -6.21,-0.972 -7.332,-1.953 -1.597,-1.152 -4.148,-6.859 -5.402,-9.621 l -5.898,-12.863 c -3.961,-8.809 -5.407,-11.903 -7.633,-15.82 0.629,-1.286 0.785,-1.469 0.957,-1.778 l 3.324,-7.5 c 0.957,-2.121 5.121,-10.597 11,-10.597 5.879,0 9.383,7.011 11.758,11.57 l 3.523,-1.793 z m -46.316,10.601 c -7.5,15.801 -11.648,18.239 -23.555,23.614 -5.277,-3.742 -11.652,-8.297 -11.652,-18.078 0,-12.211 9.254,-25.25 22.305,-25.25 7.175,0 13.05,5.218 17.031,11.089 l -4.129,8.625 z m -8.602,43.668 c 0,6.348 -7.629,14.829 -14.004,14.829 -4.925,0 -9.402,-6.043 -9.402,-9.301 0,-9.114 12.102,-14 16.078,-15.485 2.399,1.301 7.328,4.254 7.328,9.957"
         style="fill:#cfae21;fill-opacity:1;fill-rule:evenodd;stroke:none"
         id="path164" />
      <path
         d="m 1026.1,519.211 c 6.85,2.125 9.4,3.258 10.5,8.469 1.12,4.406 1.45,41.722 1.45,50.031 0,21.172 -0.16,24.602 -0.65,28.352 -0.95,7.32 -7.33,7.492 -10.66,7.648 l 0.65,4.23 c 2.21,0 11.61,-0.316 13.51,-0.316 2.08,0 7.65,0.488 13.06,0.973 5.57,0.496 10.97,0.984 12.88,0.984 26.11,0 36.16,-14.984 36.16,-27.203 0,-12.063 -9.26,-22 -21.84,-26.254 17.86,-34.855 30.09,-49.68 46.19,-50.984 v -4.254 c -15.45,-0.317 -37.11,-0.801 -63.84,53.289 -4.3,0.16 -5.58,0.16 -9.55,0.648 -0.17,-3.57 -0.33,-6.508 -0.33,-15.633 0,-5.375 0,-21.683 2.09,-25.089 2.06,-3.102 8.42,-4.567 10.66,-4.891 l -0.65,-4.07 c -5.08,0.64 -7.95,0.972 -10.5,1.121 -2.7,0.183 -5.08,0.183 -9.55,0.183 -6.53,0 -7.79,-0.183 -19.58,-1.304 v 4.07 z m 35.66,50.676 c 7.63,0 24.03,0 24.03,20.855 0,5.863 -2.87,23.946 -22.13,23.946 -8.28,0 -8.28,-2.122 -8.73,-12.551 -0.65,-15.469 -0.65,-17.422 -0.5,-31.602 2.4,-0.488 3.03,-0.648 7.33,-0.648"
         style="fill:#cfae21;fill-opacity:1;fill-rule:evenodd;stroke:none"
         id="path166" />
      <path
         d="m 1133.07,519.367 c 5.75,1.149 8.93,1.969 9.88,7.344 1.6,9.113 1.91,37.316 1.91,48.047 0,4.07 -1.11,24.125 -1.11,28.683 -0.64,8.965 -2.09,9.786 -7.95,11.247 -0.65,0.156 -1.6,0.332 -1.77,0.488 v 2.937 l 5.74,-0.172 44.57,-0.16 c 11.15,0 16.73,0.16 27.05,0.977 0.48,-11.246 -1.89,-21.672 -3.97,-21.672 -0.79,0 -2.23,0.336 -3.35,0.496 0.48,1.973 0.97,4.242 0.97,6.344 0,6.207 -6.7,8.969 -22.45,8.969 -6.53,0 -13.2,-0.825 -20.06,-1.79 -1.12,-9.785 -1.6,-15.804 -1.6,-25.253 0,-3.586 0,-6.532 0.16,-14.168 3.67,-0.176 8.9,-0.504 14.48,-0.504 11.14,0 19.43,1.144 20.72,1.789 2.7,1.148 4.13,9.133 4.13,9.297 h 3.65 v -31.125 h -3.65 c -1.92,14.019 -1.92,14.672 -27.06,14.672 -6.55,0 -8.6,-0.321 -12.27,-0.989 0,-2.281 -0.46,-21.008 -0.46,-21.511 0,-8.946 1.1,-14.985 1.9,-19.391 5.26,-0.973 12.89,-2.277 21.96,-2.277 23.89,0 28.18,12.543 30.24,18.414 h 3.52 c -0.8,-9.278 -2.23,-14.016 -6.86,-25.102 -21.17,1.488 -26.9,1.82 -41.68,1.82 -14.66,0 -21.49,-0.515 -37.11,-1.82 l 0.47,4.41"
         style="fill:#cfae21;fill-opacity:1;fill-rule:evenodd;stroke:none"
         id="path168" />
      <path
         d="m 1238.27,544.465 c 1.77,-7.992 3.97,-13.195 15.62,-18.727 6.83,-3.097 15.43,-5.222 21.96,-5.222 3.82,0 15.75,1.129 15.75,16.773 0,13.367 -11.15,18.258 -25.46,23.309 -14.32,5.215 -26.43,11.886 -26.43,29.324 0,16.945 13.68,28.992 33.27,28.992 3.52,0 19.42,-1.949 21.97,-1.949 1.58,0 3.34,0.332 4.46,1.148 l 2.7,-0.66 c -0.15,-1.129 -0.65,-9.117 -0.65,-9.453 0,-1.453 0.34,-9.117 0.34,-9.445 v -4.871 h -3.35 c -3.67,20.843 -25.13,20.843 -27.22,20.843 -14.64,0 -18.14,-10.601 -18.14,-17.761 0,-8.309 3.18,-14.168 22.28,-21.008 12.91,-4.891 30.41,-11.582 30.41,-32.113 0,-10.758 -5.73,-28.504 -36.29,-28.504 -7.97,0 -15.15,0.972 -22.76,2.605 -0.34,0 -1.44,0.317 -1.94,0.317 -1.4,0 -1.58,-0.801 -1.58,-1.465 h -4.3 c -0.47,8.808 -1.42,14.031 -4.45,26.89 l 3.81,0.977"
         style="fill:#cfae21;fill-opacity:1;fill-rule:evenodd;stroke:none"
         id="path170" />
      <path
         d="m 1429.62,567.125 c 0,-27.379 -21.01,-53.133 -53.49,-53.133 -33.59,0 -53.49,25.418 -53.49,53.934 0,31.777 26.74,51.988 54.44,51.988 29.13,0 52.54,-23.148 52.54,-52.789 z m -88.35,9.602 c 0,-26.887 12.57,-56.875 38.38,-56.875 10.16,0 31.49,6.375 31.49,36.515 0,21.16 -10.03,57.188 -38.51,57.188 -7.63,0 -31.36,-3.606 -31.36,-36.828"
         style="fill:#cfae21;fill-opacity:1;fill-rule:evenodd;stroke:none"
         id="path172" />
      <path
         d="m 1446.16,519.211 c 6.84,2.125 9.39,3.258 10.5,8.469 1.12,4.406 1.44,41.722 1.44,50.031 0,21.172 -0.15,24.602 -0.64,28.352 -0.95,7.32 -7.31,7.492 -10.66,7.648 l 0.63,4.23 c 2.25,0 11.62,-0.316 13.55,-0.316 2.05,0 7.63,0.488 13.05,0.973 5.58,0.496 10.98,0.984 12.88,0.984 26.11,0 36.14,-14.984 36.14,-27.203 0,-12.063 -9.23,-22 -21.81,-26.254 17.83,-34.855 30.09,-49.68 46.17,-50.984 v -4.254 c -15.44,-0.317 -37.09,-0.801 -63.83,53.289 -4.32,0.16 -5.57,0.16 -9.55,0.648 -0.15,-3.57 -0.32,-6.508 -0.32,-15.633 0,-5.375 0,-21.683 2.07,-25.089 2.08,-3.102 8.43,-4.567 10.66,-4.891 l -0.63,-4.07 c -5.1,0.64 -7.95,0.972 -10.52,1.121 -2.7,0.183 -5.08,0.183 -9.54,0.183 -6.52,0 -7.8,-0.183 -19.59,-1.304 v 4.07 z m 35.65,50.676 c 7.65,0 24.05,0 24.05,20.855 0,5.863 -2.85,23.946 -22.12,23.946 -8.28,0 -8.28,-2.122 -8.76,-12.551 -0.64,-15.469 -0.64,-17.422 -0.5,-31.602 2.4,-0.488 3.05,-0.648 7.33,-0.648"
         style="fill:#cfae21;fill-opacity:1;fill-rule:evenodd;stroke:none"
         id="path174" />
      <path
         d="m 1561.11,518.395 c 2.55,0.64 14.32,3.761 15.6,5.859 1.92,2.945 2.08,35.851 2.08,41.078 0,14.813 0,37.961 -1.61,44.469 -4.47,0.332 -6.52,0.484 -14.8,0.484 -20.21,0 -21.48,-2.922 -24.03,-9.609 l -3.98,0.976 c 3.98,10.114 5.4,15.493 6.36,18.746 h 2.7 c 1.29,-1.304 5.42,-1.8 6.37,-1.972 6.38,-0.801 30.09,-0.801 38.36,-0.801 11.63,0 34.86,0.156 44.74,0.652 2.23,0.149 2.7,0.321 3.65,0.969 l 2.4,-1.465 c -1.29,-3.578 -3.82,-10.086 -4.45,-17.105 l -4.78,-0.821 c 0,0.969 0.63,5.223 0.63,6.208 -5.4,4.222 -17.2,4.222 -23.56,4.222 -6.05,0 -7.15,0 -10.03,-0.484 -0.64,-14.168 -1.27,-41.875 -1.27,-69.906 0,-17.106 1.43,-17.426 8.6,-18.895 5.73,-0.816 6.38,-0.816 7.8,-1.148 l -0.47,-4.071 c -2.56,0 -13.86,0.996 -15.61,0.996 -15.45,0 -17.18,0 -33.26,-2.613 l -1.44,4.231"
         style="fill:#cfae21;fill-opacity:1;fill-rule:evenodd;stroke:none"
         id="path176" />
      <path
         d="m 1645.63,544.465 c 1.75,-7.992 4,-13.195 15.6,-18.727 6.86,-3.097 15.43,-5.222 21.98,-5.222 3.81,0 15.76,1.129 15.76,16.773 0,13.367 -11.15,18.258 -25.47,23.309 -14.32,5.215 -26.43,11.886 -26.43,29.324 0,16.945 13.69,28.992 33.27,28.992 3.5,0 19.43,-1.949 21.96,-1.949 1.59,0 3.34,0.332 4.47,1.148 l 2.7,-0.66 c -0.15,-1.129 -0.64,-9.117 -0.64,-9.453 0,-1.453 0.32,-9.117 0.32,-9.445 v -4.871 h -3.35 c -3.64,20.843 -25.16,20.843 -27.21,20.843 -14.64,0 -18.15,-10.601 -18.15,-17.761 0,-8.309 3.19,-14.168 22.29,-21.008 12.89,-4.891 30.4,-11.582 30.4,-32.113 0,-10.758 -5.74,-28.504 -36.27,-28.504 -7.98,0 -15.15,0.972 -22.78,2.605 -0.33,0 -1.43,0.317 -1.92,0.317 -1.41,0 -1.58,-0.801 -1.58,-1.465 h -4.3 c -0.48,8.808 -1.43,14.031 -4.48,26.89 l 3.83,0.977"
         style="fill:#cfae21;fill-opacity:1;fill-rule:evenodd;stroke:none"
         id="path178" />
      <path
         d="m 175.082,519.695 c 10.348,1.641 10.809,3.91 11.301,7.168 1.883,12.883 2.535,44.004 2.535,58.825 0,26.718 -1.434,28.667 -11.152,28.667 l 0.343,3.922 c 1.75,0.481 3.004,0.817 5.727,0.817 1.594,0 7.48,-0.18 13.355,-0.336 6.051,-0.16 12.102,-0.481 14.329,-0.481 h 7.171 v -3.922 c -1.445,-0.316 -7.644,-1.46 -8.921,-1.949 -1.731,-0.64 -2.532,-1.64 -3.325,-7.66 -1.449,-11.062 -1.777,-17.262 -1.601,-31.933 10.976,-0.329 37.086,-0.645 48.215,-0.645 5.574,0 7.175,0.156 10.523,0.645 0,4.226 0.156,8.804 0.156,13.363 0,25.59 -0.8,26.562 -10.351,28.512 -0.801,0.156 -2.063,0.488 -2.403,0.488 l 0.801,3.738 c 4.301,-0.316 9.875,-0.973 20.399,-0.973 10.488,0 14.957,0.657 18.589,0.973 v -3.738 c -3.804,-0.488 -7.304,-1.137 -8.73,-5.707 -2.078,-6.512 -2.227,-54.895 -2.227,-65.336 0,-20.695 1.106,-23.465 10.957,-24.438 l -0.3,-3.738 c -3.977,0.488 -10.352,0.82 -20.059,0.82 -6.203,0 -11.93,-0.332 -18.629,-0.82 v 3.738 c 6.375,0.489 8.77,2.461 9.875,6.2 1.922,6.675 1.922,23.945 1.922,38.613 -12.258,0.652 -56.516,0.824 -58.738,0.824 -0.176,-6.531 -0.321,-17.773 -0.321,-19.41 0,-3.738 0,-18.078 0.95,-20.363 1.593,-3.739 6.527,-4.891 10.976,-5.864 v -3.738 c -4.129,0.156 -24.035,0.82 -26.09,0.82 -4.148,0 -9.246,-0.332 -13.851,-0.82 l -1.426,3.738"
         style="fill:#29559a;fill-opacity:1;fill-rule:evenodd;stroke:none"
         id="path180" />
      <path
         d="m 414.48,567.125 c 0,-27.379 -21.007,-53.133 -53.488,-53.133 -33.586,0 -53.492,25.418 -53.492,53.934 0,31.777 26.754,51.988 54.445,51.988 29.129,0 52.535,-23.148 52.535,-52.789 z m -88.351,9.602 c 0,-26.887 12.559,-56.875 38.359,-56.875 10.203,0 31.516,6.375 31.516,36.515 0,21.16 -10.012,57.188 -38.512,57.188 -7.652,0 -31.363,-3.606 -31.363,-36.828"
         style="fill:#29559a;fill-opacity:1;fill-rule:evenodd;stroke:none"
         id="path182" />
      <path
         d="m 446.336,518.395 c 2.543,0.64 14.344,3.761 15.605,5.859 1.922,2.945 2.067,35.851 2.067,41.078 0,14.813 0,37.961 -1.594,44.469 -4.473,0.332 -6.531,0.484 -14.805,0.484 -20.207,0 -21.484,-2.922 -24.035,-9.609 l -3.98,0.976 c 3.98,10.114 5.426,15.493 6.383,18.746 h 2.679 c 1.297,-1.304 5.422,-1.8 6.371,-1.972 6.383,-0.801 30.086,-0.801 38.368,-0.801 11.628,0 34.859,0.156 44.714,0.652 2.243,0.149 2.719,0.321 3.676,0.969 l 2.399,-1.465 c -1.278,-3.578 -3.832,-10.086 -4.477,-17.105 l -4.754,-0.821 c 0,0.969 0.629,5.223 0.629,6.208 -5.406,4.222 -17.184,4.222 -23.559,4.222 -6.05,0 -7.175,0 -10.027,-0.484 -0.648,-14.168 -1.277,-41.875 -1.277,-69.906 0,-17.106 1.422,-17.426 8.601,-18.895 5.727,-0.816 6.371,-0.816 7.805,-1.148 l -0.477,-4.071 c -2.55,0 -13.855,0.996 -15.601,0.996 -15.457,0 -17.184,0 -33.262,-2.613 l -1.449,4.231"
         style="fill:#29559a;fill-opacity:1;fill-rule:evenodd;stroke:none"
         id="path184" />
      <path
         d="m 537.578,519.367 c 5.723,1.149 8.926,1.969 9.899,7.344 1.57,9.113 1.898,37.316 1.898,48.047 0,4.07 -1.125,24.125 -1.125,28.683 -0.629,8.965 -2.074,9.786 -7.953,11.247 -0.645,0.156 -1.602,0.332 -1.75,0.488 v 2.937 l 5.726,-0.172 44.586,-0.16 c 11.114,0 16.688,0.16 27.039,0.977 0.473,-11.246 -1.898,-21.672 -3.976,-21.672 -0.805,0 -2.227,0.336 -3.332,0.496 0.461,1.973 0.933,4.242 0.933,6.344 0,6.207 -6.675,8.969 -22.437,8.969 -6.523,0 -13.207,-0.825 -20.055,-1.79 -1.121,-9.785 -1.578,-15.804 -1.578,-25.253 0,-3.586 0,-6.532 0.156,-14.168 3.649,-0.176 8.903,-0.504 14.477,-0.504 11.148,0 19.43,1.144 20.684,1.789 2.722,1.148 4.128,9.133 4.128,9.297 h 3.692 v -31.125 h -3.692 c -1.882,14.019 -1.882,14.672 -27.043,14.672 -6.519,0 -8.597,-0.321 -12.246,-0.989 0,-2.281 -0.5,-21.008 -0.5,-21.511 0,-8.946 1.145,-14.985 1.922,-19.391 5.254,-0.973 12.903,-2.277 21.977,-2.277 23.863,0 28.164,12.543 30.238,18.414 h 3.5 c -0.793,-9.278 -2.226,-14.016 -6.848,-25.102 -21.16,1.488 -26.89,1.82 -41.691,1.82 -14.672,0 -21.504,-0.515 -37.105,-1.82 l 0.476,4.41"
         style="fill:#29559a;fill-opacity:1;fill-rule:evenodd;stroke:none"
         id="path186" />
      <path
         d="m 637.227,521.156 c 2.726,0.332 6.851,1.313 8.929,3.914 2.684,3.43 2.684,5.043 2.852,44.817 0,30.148 0,32.922 -0.477,36.98 -0.797,6.844 -5.422,7.336 -10.027,7.66 v 3.899 c 6.051,-0.149 7.973,-0.313 19.426,-0.313 12.101,0 15.113,0.164 21.16,0.485 v -4.243 c -5.098,-0.644 -9.551,-1.46 -11.129,-4.406 -2.246,-4.219 -2.551,-33.883 -2.551,-41.207 l -0.148,-25.097 c 0,-10.098 0.148,-15.145 1.578,-17.602 1.269,-2.438 5.098,-2.438 12.422,-2.438 30.886,0 34.711,7.176 37.238,14.84 l 3.828,-0.488 c -0.644,-5.227 -0.777,-6.355 -6.203,-22.816 -7.176,1.304 -10.676,1.945 -32.332,1.945 h -44.238 l -0.328,4.07"
         style="fill:#29559a;fill-opacity:1;fill-rule:evenodd;stroke:none"
         id="path188" />
      <path
         d="m 736.234,544.465 c 1.75,-7.992 3.977,-13.195 15.606,-18.727 6.848,-3.097 15.43,-5.222 21.953,-5.222 3.828,0 15.773,1.129 15.773,16.773 0,13.367 -11.144,18.258 -25.476,23.309 -14.305,5.215 -26.406,11.886 -26.406,29.324 0,16.945 13.683,28.992 33.261,28.992 3.5,0 19.426,-1.949 21.953,-1.949 1.606,0 3.356,0.332 4.461,1.148 l 2.715,-0.66 c -0.148,-1.129 -0.644,-9.117 -0.644,-9.453 0,-1.453 0.324,-9.117 0.324,-9.445 v -4.871 h -3.352 c -3.652,20.843 -25.136,20.843 -27.211,20.843 -14.632,0 -18.152,-10.601 -18.152,-17.761 0,-8.309 3.176,-14.168 22.281,-21.008 12.903,-4.891 30.41,-11.582 30.41,-32.113 0,-10.758 -5.726,-28.504 -36.285,-28.504 -7.957,0 -15.129,0.972 -22.757,2.605 -0.329,0 -1.45,0.317 -1.922,0.317 -1.434,0 -1.602,-0.801 -1.602,-1.465 h -4.285 c -0.496,8.808 -1.445,14.031 -4.473,26.89 l 3.828,0.977"
         style="fill:#29559a;fill-opacity:1;fill-rule:evenodd;stroke:none"
         id="path190" />
      <path
         d="m 964.027,533.215 c -2.23,-5.535 -7.004,-17.434 -19.754,-17.434 -9.074,0 -15.605,6.039 -19.425,14.184 -4.762,-5.863 -11.914,-14.824 -27.844,-14.824 -21.953,0 -27.379,14.336 -27.379,25.254 0,18.738 13.852,27.035 19.254,30.289 -10.352,6.687 -10.352,15.492 -10.352,17.113 0,10.113 8.602,15.976 11.157,17.445 2.695,1.625 10.652,5.375 12.097,5.375 0.305,0 17.832,-3.254 17.832,-18.09 0,-5.218 -1.277,-6.519 -12.105,-17.589 12.105,-5.868 14.805,-8.813 22.914,-24.946 6.371,13.863 12.101,26.563 12.101,32.274 0,2.449 -2.375,3.742 -7.48,5.859 l 1.602,3.102 c 13.203,-3.918 18.136,-4.071 23.085,-4.235 v -3.422 c -4.46,-0.672 -6.21,-0.972 -7.332,-1.953 -1.597,-1.152 -4.148,-6.859 -5.402,-9.621 l -5.898,-12.863 c -3.961,-8.809 -5.407,-11.903 -7.633,-15.82 0.629,-1.286 0.785,-1.469 0.957,-1.778 l 3.324,-7.5 c 0.957,-2.121 5.121,-10.597 11,-10.597 5.879,0 9.383,7.011 11.758,11.57 l 3.523,-1.793 z m -46.316,10.601 c -7.5,15.801 -11.648,18.239 -23.555,23.614 -5.277,-3.742 -11.652,-8.297 -11.652,-18.078 0,-12.211 9.254,-25.25 22.305,-25.25 7.175,0 13.05,5.218 17.031,11.089 l -4.129,8.625 z m -8.602,43.668 c 0,6.348 -7.629,14.829 -14.004,14.829 -4.925,0 -9.402,-6.043 -9.402,-9.301 0,-9.114 12.102,-14 16.078,-15.485 2.399,1.301 7.328,4.254 7.328,9.957"
         style="fill:#29559a;fill-opacity:1;fill-rule:evenodd;stroke:none"
         id="path192" />
      <path
         d="m 1026.1,519.211 c 6.85,2.125 9.4,3.258 10.5,8.469 1.12,4.406 1.45,41.722 1.45,50.031 0,21.172 -0.16,24.602 -0.65,28.352 -0.95,7.32 -7.33,7.492 -10.66,7.648 l 0.65,4.23 c 2.21,0 11.61,-0.316 13.51,-0.316 2.08,0 7.65,0.488 13.06,0.973 5.57,0.496 10.97,0.984 12.88,0.984 26.11,0 36.16,-14.984 36.16,-27.203 0,-12.063 -9.26,-22 -21.84,-26.254 17.86,-34.855 30.09,-49.68 46.19,-50.984 v -4.254 c -15.45,-0.317 -37.11,-0.801 -63.84,53.289 -4.3,0.16 -5.58,0.16 -9.55,0.648 -0.17,-3.57 -0.33,-6.508 -0.33,-15.633 0,-5.375 0,-21.683 2.09,-25.089 2.06,-3.102 8.42,-4.567 10.66,-4.891 l -0.65,-4.07 c -5.08,0.64 -7.95,0.972 -10.5,1.121 -2.7,0.183 -5.08,0.183 -9.55,0.183 -6.53,0 -7.79,-0.183 -19.58,-1.304 v 4.07 z m 35.66,50.676 c 7.63,0 24.03,0 24.03,20.855 0,5.863 -2.87,23.946 -22.13,23.946 -8.28,0 -8.28,-2.122 -8.73,-12.551 -0.65,-15.469 -0.65,-17.422 -0.5,-31.602 2.4,-0.488 3.03,-0.648 7.33,-0.648"
         style="fill:#29559a;fill-opacity:1;fill-rule:evenodd;stroke:none"
         id="path194" />
      <path
         d="m 1133.07,519.367 c 5.75,1.149 8.93,1.969 9.88,7.344 1.6,9.113 1.91,37.316 1.91,48.047 0,4.07 -1.11,24.125 -1.11,28.683 -0.64,8.965 -2.09,9.786 -7.95,11.247 -0.65,0.156 -1.6,0.332 -1.77,0.488 v 2.937 l 5.74,-0.172 44.57,-0.16 c 11.15,0 16.73,0.16 27.05,0.977 0.48,-11.246 -1.89,-21.672 -3.97,-21.672 -0.79,0 -2.23,0.336 -3.35,0.496 0.48,1.973 0.97,4.242 0.97,6.344 0,6.207 -6.7,8.969 -22.45,8.969 -6.53,0 -13.2,-0.825 -20.06,-1.79 -1.12,-9.785 -1.6,-15.804 -1.6,-25.253 0,-3.586 0,-6.532 0.16,-14.168 3.67,-0.176 8.9,-0.504 14.48,-0.504 11.14,0 19.43,1.144 20.72,1.789 2.7,1.148 4.13,9.133 4.13,9.297 h 3.65 v -31.125 h -3.65 c -1.92,14.019 -1.92,14.672 -27.06,14.672 -6.55,0 -8.6,-0.321 -12.27,-0.989 0,-2.281 -0.46,-21.008 -0.46,-21.511 0,-8.946 1.1,-14.985 1.9,-19.391 5.26,-0.973 12.89,-2.277 21.96,-2.277 23.89,0 28.18,12.543 30.24,18.414 h 3.52 c -0.8,-9.278 -2.23,-14.016 -6.86,-25.102 -21.17,1.488 -26.9,1.82 -41.68,1.82 -14.66,0 -21.49,-0.515 -37.11,-1.82 l 0.47,4.41"
         style="fill:#29559a;fill-opacity:1;fill-rule:evenodd;stroke:none"
         id="path196" />
      <path
         d="m 1238.27,544.465 c 1.77,-7.992 3.97,-13.195 15.62,-18.727 6.83,-3.097 15.43,-5.222 21.96,-5.222 3.82,0 15.75,1.129 15.75,16.773 0,13.367 -11.15,18.258 -25.46,23.309 -14.32,5.215 -26.43,11.886 -26.43,29.324 0,16.945 13.68,28.992 33.27,28.992 3.52,0 19.42,-1.949 21.97,-1.949 1.58,0 3.34,0.332 4.46,1.148 l 2.7,-0.66 c -0.15,-1.129 -0.65,-9.117 -0.65,-9.453 0,-1.453 0.34,-9.117 0.34,-9.445 v -4.871 h -3.35 c -3.67,20.843 -25.13,20.843 -27.22,20.843 -14.64,0 -18.14,-10.601 -18.14,-17.761 0,-8.309 3.18,-14.168 22.28,-21.008 12.91,-4.891 30.41,-11.582 30.41,-32.113 0,-10.758 -5.73,-28.504 -36.29,-28.504 -7.97,0 -15.15,0.972 -22.76,2.605 -0.34,0 -1.44,0.317 -1.94,0.317 -1.4,0 -1.58,-0.801 -1.58,-1.465 h -4.3 c -0.47,8.808 -1.42,14.031 -4.45,26.89 l 3.81,0.977"
         style="fill:#29559a;fill-opacity:1;fill-rule:evenodd;stroke:none"
         id="path198" />
      <path
         d="m 1429.62,567.125 c 0,-27.379 -21.01,-53.133 -53.49,-53.133 -33.59,0 -53.49,25.418 -53.49,53.934 0,31.777 26.74,51.988 54.44,51.988 29.13,0 52.54,-23.148 52.54,-52.789 z m -88.35,9.602 c 0,-26.887 12.57,-56.875 38.38,-56.875 10.16,0 31.49,6.375 31.49,36.515 0,21.16 -10.03,57.188 -38.51,57.188 -7.63,0 -31.36,-3.606 -31.36,-36.828"
         style="fill:#29559a;fill-opacity:1;fill-rule:evenodd;stroke:none"
         id="path200" />
      <path
         d="m 1446.16,519.211 c 6.84,2.125 9.39,3.258 10.5,8.469 1.12,4.406 1.44,41.722 1.44,50.031 0,21.172 -0.15,24.602 -0.64,28.352 -0.95,7.32 -7.31,7.492 -10.66,7.648 l 0.63,4.23 c 2.25,0 11.62,-0.316 13.55,-0.316 2.05,0 7.63,0.488 13.05,0.973 5.58,0.496 10.98,0.984 12.88,0.984 26.11,0 36.14,-14.984 36.14,-27.203 0,-12.063 -9.23,-22 -21.81,-26.254 17.83,-34.855 30.09,-49.68 46.17,-50.984 v -4.254 c -15.44,-0.317 -37.09,-0.801 -63.83,53.289 -4.32,0.16 -5.57,0.16 -9.55,0.648 -0.15,-3.57 -0.32,-6.508 -0.32,-15.633 0,-5.375 0,-21.683 2.07,-25.089 2.08,-3.102 8.43,-4.567 10.66,-4.891 l -0.63,-4.07 c -5.1,0.64 -7.95,0.972 -10.52,1.121 -2.7,0.183 -5.08,0.183 -9.54,0.183 -6.52,0 -7.8,-0.183 -19.59,-1.304 v 4.07 z m 35.65,50.676 c 7.65,0 24.05,0 24.05,20.855 0,5.863 -2.85,23.946 -22.12,23.946 -8.28,0 -8.28,-2.122 -8.76,-12.551 -0.64,-15.469 -0.64,-17.422 -0.5,-31.602 2.4,-0.488 3.05,-0.648 7.33,-0.648"
         style="fill:#29559a;fill-opacity:1;fill-rule:evenodd;stroke:none"
         id="path202" />
      <path
         d="m 1561.11,518.395 c 2.55,0.64 14.32,3.761 15.6,5.859 1.92,2.945 2.08,35.851 2.08,41.078 0,14.813 0,37.961 -1.61,44.469 -4.47,0.332 -6.52,0.484 -14.8,0.484 -20.21,0 -21.48,-2.922 -24.03,-9.609 l -3.98,0.976 c 3.98,10.114 5.4,15.493 6.36,18.746 h 2.7 c 1.29,-1.304 5.42,-1.8 6.37,-1.972 6.38,-0.801 30.09,-0.801 38.36,-0.801 11.63,0 34.86,0.156 44.74,0.652 2.23,0.149 2.7,0.321 3.65,0.969 l 2.4,-1.465 c -1.29,-3.578 -3.82,-10.086 -4.45,-17.105 l -4.78,-0.821 c 0,0.969 0.63,5.223 0.63,6.208 -5.4,4.222 -17.2,4.222 -23.56,4.222 -6.05,0 -7.15,0 -10.03,-0.484 -0.64,-14.168 -1.27,-41.875 -1.27,-69.906 0,-17.106 1.43,-17.426 8.6,-18.895 5.73,-0.816 6.38,-0.816 7.8,-1.148 l -0.47,-4.071 c -2.56,0 -13.86,0.996 -15.61,0.996 -15.45,0 -17.18,0 -33.26,-2.613 l -1.44,4.231"
         style="fill:#29559a;fill-opacity:1;fill-rule:evenodd;stroke:none"
         id="path204" />
      <path
         d="m 1645.63,544.465 c 1.75,-7.992 4,-13.195 15.6,-18.727 6.86,-3.097 15.43,-5.222 21.98,-5.222 3.81,0 15.76,1.129 15.76,16.773 0,13.367 -11.15,18.258 -25.47,23.309 -14.32,5.215 -26.43,11.886 -26.43,29.324 0,16.945 13.69,28.992 33.27,28.992 3.5,0 19.43,-1.949 21.96,-1.949 1.59,0 3.34,0.332 4.47,1.148 l 2.7,-0.66 c -0.15,-1.129 -0.64,-9.117 -0.64,-9.453 0,-1.453 0.32,-9.117 0.32,-9.445 v -4.871 h -3.35 c -3.64,20.843 -25.16,20.843 -27.21,20.843 -14.64,0 -18.15,-10.601 -18.15,-17.761 0,-8.309 3.19,-14.168 22.29,-21.008 12.89,-4.891 30.4,-11.582 30.4,-32.113 0,-10.758 -5.74,-28.504 -36.27,-28.504 -7.98,0 -15.15,0.972 -22.78,2.605 -0.33,0 -1.43,0.317 -1.92,0.317 -1.41,0 -1.58,-0.801 -1.58,-1.465 h -4.3 c -0.48,8.808 -1.43,14.031 -4.48,26.89 l 3.83,0.977"
         style="fill:#29559a;fill-opacity:1;fill-rule:evenodd;stroke:none"
         id="path206" />
      <path
         d="m 1827.81,743.152 c 7.78,0 14.71,-5.57 14.71,-14.285 0,-8.75 -6.93,-14.371 -14.71,-14.371 -7.78,0 -14.71,5.621 -14.71,14.371 0,8.715 6.93,14.285 14.71,14.285 z m 0,-25.586 c 5.96,0 10.83,4.754 10.83,11.301 0,6.528 -4.87,11.215 -10.83,11.215 -6.01,0 -10.81,-4.687 -10.81,-11.215 0,-6.547 4.8,-11.301 10.81,-11.301 z m -5.71,19.372 h 6.03 c 4.04,0 6.3,-1.282 6.3,-4.793 0,-2.942 -1.84,-4.071 -4.2,-4.266 l 4.28,-7.02 h -3.35 l -3.9,6.86 h -1.98 v -6.86 h -3.18 v 16.079 z m 3.18,-6.727 h 2.81 c 1.82,0 3.16,0.234 3.16,2.227 0,1.734 -1.8,1.984 -3.27,1.984 h -2.7 v -4.211"
         style="fill:#29559a;fill-opacity:1;fill-rule:evenodd;stroke:none"
         id="path208" />
    </g>
  </g>
</svg>
