<?xml version="1.0" encoding="UTF-8" standalone="no"?>
<!-- Created with Inkscape (http://www.inkscape.org/) -->

<svg
   version="1.1"
   id="svg2"
   width="258.66666"
   height="258.66666"
   viewBox="0 0 258.66666 258.66666"
   sodipodi:docname="Four_Seasons_Hotels_and_Resorts.eps"
   xmlns:inkscape="http://www.inkscape.org/namespaces/inkscape"
   xmlns:sodipodi="http://sodipodi.sourceforge.net/DTD/sodipodi-0.dtd"
   xmlns="http://www.w3.org/2000/svg"
   xmlns:svg="http://www.w3.org/2000/svg">
  <defs
     id="defs6" />
  <sodipodi:namedview
     id="namedview4"
     pagecolor="#ffffff"
     bordercolor="#000000"
     borderopacity="0.25"
     inkscape:showpageshadow="2"
     inkscape:pageopacity="0.0"
     inkscape:pagecheckerboard="0"
     inkscape:deskcolor="#d1d1d1" />
  <g
     id="g8"
     inkscape:groupmode="layer"
     inkscape:label="ink_ext_XXXXXX"
     transform="matrix(1.3333333,0,0,-1.3333333,0,258.66667)">
    <g
       id="g10"
       transform="scale(0.1)">
      <path
         d="M 2.59766,1933.23 H 1930.16 V 5.66797 H 2.59766 V 1933.23"
         style="fill:#ffffff;fill-opacity:1;fill-rule:evenodd;stroke:none"
         id="path12" />
      <path
         d="m 175.973,458.977 c 6.215,11.394 13.468,21.753 20.718,32.113 l -19.683,-3.11 c -24.863,-39.363 -65.262,-80.8 -114.9885,-80.8 -17.6054,0 -29.0039,8.289 -29.0039,19.683 0,7.25 5.1797,13.469 11.3985,13.469 6.2148,0 11.3945,-3.109 11.3945,-10.363 0,-7.25 -5.1797,-10.356 -9.3242,-10.356 -2.0703,0 -4.1446,0 -4.1446,-2.074 0,-5.176 11.3946,-7.25 19.6797,-7.25 44.5465,0 73.5505,47.652 95.3085,75.621 -23.828,-5.18 -44.547,-15.539 -59.0507,-29.004 l -2.0703,1.035 c 10.359,12.43 41.438,29.004 63.191,31.079 17.61,25.898 55.942,70.441 87.016,90.125 v 1.035 c -13.465,-8.285 -23.824,-13.469 -36.254,-13.469 -20.719,0 -27.972,20.719 -53.871,20.719 -25.894,0 -54.902,-23.825 -54.902,-49.723 0,-15.539 12.433,-22.789 22.789,-22.789 21.758,0 51.797,24.859 56.976,44.543 h 2.075 c -5.18,-23.828 -29.008,-47.652 -55.942,-47.652 -17.609,0 -29.0077,9.324 -29.0077,27.968 0,27.973 42.4767,56.977 68.3747,56.977 22.789,0 36.254,-22.789 56.973,-22.789 13.469,0 26.934,10.359 38.328,18.644 l 1.035,-3.109 c -36.254,-25.895 -60.082,-62.152 -83.906,-98.41 l 19.684,3.109 c 10.355,14.5 23.824,30.039 30.039,35.219 l 1.035,-1.035 c -9.324,-8.289 -18.645,-21.754 -25.895,-34.184 l 19.68,3.106 c 15.539,20.718 80.801,96.34 107.734,96.34 5.18,0 8.289,-3.106 8.289,-7.25 0,-32.114 -66.296,-83.907 -98.414,-89.09 -11.394,-15.535 -41.433,-52.832 -41.433,-72.512 0,-10.363 9.32,-14.504 17.609,-14.504 38.328,0 76.656,46.617 76.656,65.262 0,8.289 -4.14,13.469 -11.394,13.469 -16.574,0 -36.258,-19.684 -45.578,-31.079 h -3.11 c 11.395,13.465 30.043,34.184 48.688,34.184 10.359,0 14.504,-7.25 14.504,-17.609 0,-31.078 -48.688,-67.336 -76.66,-67.336 -19.68,0 -26.934,10.359 -26.934,26.933 0,19.684 17.613,44.547 27.973,60.086 l -18.649,-3.109 c -6.215,-8.289 -13.465,-19.684 -18.648,-32.113 z m 155.386,131.562 c -17.609,0 -78.726,-78.73 -88.05,-90.125 v 0 c 34.183,7.25 93.23,62.156 93.23,87.016 0,2.07 -2.07,3.109 -5.18,3.109"
         style="fill:#231f20;fill-opacity:1;fill-rule:evenodd;stroke:none"
         id="path14" />
      <path
         d="m 406.984,454.832 c -4.144,-3.105 -12.433,-8.289 -19.683,-8.289 -6.215,0 -10.36,2.074 -13.469,5.184 -24.859,-31.079 -45.578,-44.547 -66.297,-44.547 -7.25,0 -15.539,6.215 -15.539,15.539 0,24.863 47.652,70.445 75.621,70.445 5.18,0 9.324,-2.074 10.36,-6.219 1.039,1.035 2.07,1.035 3.109,1.035 4.141,0 5.18,-3.105 5.18,-7.25 0,-9.324 -6.219,-21.753 -11.395,-26.933 4.145,-3.109 8.285,-4.141 12.43,-4.141 4.144,0 12.433,3.106 18.644,8.285 z m -32.113,30.043 c 0,2.07 -2.074,5.18 -6.219,5.18 -11.394,0 -32.113,-24.864 -60.082,-56.973 -6.215,-7.254 -7.25,-11.398 -7.25,-15.543 0,-3.109 2.071,-7.25 9.321,-7.25 17.613,0 42.472,19.68 60.086,43.508 -2.075,4.144 -3.11,8.289 -3.11,13.465 0,7.254 3.11,14.508 7.254,17.613"
         style="fill:#231f20;fill-opacity:1;fill-rule:evenodd;stroke:none"
         id="path16" />
      <path
         d="m 485.711,541.852 h 16.574 l -33.144,-35.223 h 16.57 l -2.07,-3.109 H 467.066 L 402.84,434.113 c -11.395,-12.429 -16.574,-17.609 -16.574,-20.718 0,-2.071 3.105,-3.106 6.214,-3.106 7.254,0 22.79,7.25 65.262,44.543 l 2.074,-2.07 C 423.559,420.648 402.84,407.18 391.445,407.18 c -6.218,0 -9.324,4.144 -9.324,10.359 0,7.254 4.145,16.574 18.645,33.149 l 48.687,52.832 h -16.574 l 2.074,3.109 h 17.613 l 33.145,35.223"
         style="fill:#231f20;fill-opacity:1;fill-rule:evenodd;stroke:none"
         id="path18" />
      <path
         d="m 539.578,450.688 c -23.824,-20.719 -54.902,-43.508 -82.871,-43.508 -8.285,0 -16.574,3.109 -16.574,12.433 0,27.969 50.758,71.477 78.726,71.477 6.219,0 11.399,-5.18 11.399,-11.395 0,-23.828 -45.582,-37.293 -64.231,-37.293 -15.535,-16.574 -17.605,-22.789 -17.605,-25.898 0,-5.18 5.176,-6.215 10.355,-6.215 22.793,0 49.727,18.649 80.801,43.508 z m -20.719,37.292 c -10.355,0 -23.824,-12.429 -50.757,-42.468 27.968,0 55.937,23.824 55.937,37.289 0,3.109 -2.066,5.179 -5.18,5.179"
         style="fill:#231f20;fill-opacity:1;fill-rule:evenodd;stroke:none"
         id="path20" />
      <path
         d="M 610.023,447.582 C 570.66,412.363 550.977,407.18 539.578,407.18 c -10.355,0 -14.5,6.215 -14.5,15.539 0,31.078 130.524,169.89 157.457,169.89 5.18,0 9.324,-3.109 9.324,-9.32 0,-30.043 -75.621,-78.73 -114.988,-104.629 0,0 -45.578,-55.941 -45.578,-62.156 0,-4.141 3.109,-6.215 6.215,-6.215 14.504,0 34.183,8.285 64.226,34.184 z M 683.574,589.5 c -10.359,0 -46.617,-34.18 -101.519,-103.59 h 1.035 c 49.723,35.223 105.664,71.477 105.664,97.379 0,4.141 -2.074,6.211 -5.18,6.211"
         style="fill:#231f20;fill-opacity:1;fill-rule:evenodd;stroke:none"
         id="path22" />
      <path
         d="m 858.641,487.98 c -16.575,-15.535 -40.399,-42.468 -59.043,-62.152 -4.145,-5.18 -6.219,-8.289 -6.219,-10.359 0,-4.145 3.109,-5.18 6.219,-5.18 15.539,0 54.902,31.078 67.332,44.543 l 3.105,-2.07 C 856.57,439.293 818.242,407.18 798.559,407.18 c -7.25,0 -11.395,5.183 -11.395,10.359 0,4.145 1.035,7.254 3.109,10.359 h -1.039 c -14.5,-13.468 -27.968,-20.718 -38.328,-20.718 -10.359,0 -16.574,6.215 -16.574,16.578 0,32.109 56.977,67.332 77.695,67.332 8.289,0 15.539,-4.145 15.539,-10.36 0,-2.07 0,-3.105 -1.039,-6.214 h 1.039 l 13.465,13.464 z m -43.504,0 c -11.395,0 -20.719,-5.179 -64.231,-50.757 -10.359,-11.395 -10.359,-16.575 -10.359,-19.684 0,-4.144 3.109,-7.25 10.359,-7.25 23.828,0 73.551,54.902 73.551,68.371 0,6.215 -5.18,9.32 -9.32,9.32"
         style="fill:#231f20;fill-opacity:1;fill-rule:evenodd;stroke:none"
         id="path24" />
      <path
         d="m 899.043,487.98 h 15.539 l -22.789,-23.824 1.035,-1.035 c 12.434,11.395 32.113,26.934 43.508,26.934 9.324,0 15.539,-6.215 15.539,-15.539 0,-20.719 -43.508,-51.797 -43.508,-61.121 0,-2.071 1.035,-3.106 4.145,-3.106 8.285,0 24.859,12.43 61.117,44.543 v -3.105 C 945.66,425.828 922.867,407.18 912.512,407.18 c -6.215,0 -10.36,3.109 -10.36,11.394 0,19.684 43.508,50.762 43.508,61.121 0,4.145 -3.105,7.25 -8.289,7.25 -15.535,0 -56.973,-35.218 -92.195,-75.621 h -17.61 l 71.477,76.656"
         style="fill:#231f20;fill-opacity:1;fill-rule:evenodd;stroke:none"
         id="path26" />
      <path
         d="m 1134.2,564.641 h 18.64 L 1022.32,428.938 c -8.29,-8.29 -10.36,-12.434 -10.36,-14.508 0,-3.106 2.07,-4.141 7.25,-4.141 14.5,0 33.15,12.43 68.37,44.543 l 1.04,-2.07 c -37.3,-34.188 -52.83,-45.582 -71.48,-45.582 -4.15,0 -11.4,2.074 -11.4,9.324 0,4.144 0,7.254 2.08,10.359 v 0 c -11.402,-11.394 -24.867,-19.683 -36.261,-19.683 -12.43,0 -15.539,8.289 -15.539,16.578 0,27.969 47.65,66.297 75.62,66.297 9.32,0 16.57,-3.11 16.57,-10.36 0,-3.109 -1.03,-5.179 -2.07,-8.289 v 0 z m -98.41,-77.696 c -12.43,0 -50.767,-32.113 -65.267,-51.797 -7.253,-10.355 -8.289,-13.464 -8.289,-16.574 0,-5.179 4.145,-8.285 10.36,-8.285 20.719,0 72.516,55.938 72.516,68.371 0,5.18 -4.15,8.285 -9.32,8.285"
         style="fill:#231f20;fill-opacity:1;fill-rule:evenodd;stroke:none"
         id="path28" />
      <path
         d="m 1286.48,569.82 c 0,-35.218 -34.19,-76.656 -69.41,-76.656 -14.5,0 -22.79,10.356 -22.79,23.824 0,39.364 66.3,79.766 127.42,79.766 16.57,0 32.11,-3.109 40.4,-7.254 6.21,3.109 12.43,5.184 17.61,6.219 l 1.03,-2.074 c -5.17,-2.071 -10.35,-4.145 -14.5,-5.176 13.47,-7.254 23.83,-18.649 23.83,-34.188 0,-26.933 -32.11,-43.508 -54.91,-47.652 2.08,-4.141 3.11,-7.25 3.11,-11.395 0,-17.609 -39.36,-45.578 -39.36,-69.406 0,-11.398 10.36,-15.539 19.68,-15.539 22.79,0 64.23,38.328 64.23,61.117 0,7.254 -6.22,12.434 -13.47,12.434 -10.36,0 -22.79,-12.434 -29.01,-19.684 l -3.1,1.035 c 7.25,8.289 19.68,21.754 32.11,21.754 8.29,0 16.58,-5.175 16.58,-16.574 0,-26.933 -36.26,-63.191 -67.34,-63.191 -16.57,0 -29,11.394 -29,29.008 0,26.933 40.39,50.757 40.39,70.441 -3.1,-1.035 -8.28,-2.07 -14.5,-2.07 -9.32,0 -16.57,6.214 -16.57,13.464 h -1.03 c -31.09,-43.507 -70.45,-110.843 -132.61,-110.843 -18.64,0 -31.07,8.289 -31.07,20.718 0,8.29 7.25,13.469 12.43,13.469 7.25,0 12.43,-5.179 12.43,-12.429 0,-9.325 -13.47,-8.29 -13.47,-10.364 0,-4.144 9.32,-8.285 20.72,-8.285 67.33,0 118.1,151.242 191.65,177.141 -10.37,5.179 -26.94,6.215 -34.19,6.215 -70.44,0 -126.38,-45.579 -126.38,-74.586 0,-12.43 6.22,-22.789 19.68,-22.789 23.82,0 66.3,41.437 66.3,73.55 z m 75.62,16.575 c -16.58,-10.36 -34.19,-24.864 -62.16,-64.227 l 1.04,-1.035 c 2.07,2.07 6.22,2.07 10.36,2.07 6.21,0 17.61,-3.109 22.79,-13.465 20.72,5.18 43.51,27.969 43.51,48.688 0,14.5 -7.25,22.789 -15.54,27.969 z m -32.12,-77.696 c -2.07,8.289 -11.39,11.395 -19.68,11.395 -5.17,0 -8.28,-1.035 -8.28,-4.145 0,-3.105 5.18,-8.285 14.5,-8.285 5.18,0 10.36,0 13.46,1.035"
         style="fill:#231f20;fill-opacity:1;fill-rule:evenodd;stroke:none"
         id="path30" />
      <path
         d="m 1486.41,450.688 c -23.83,-20.719 -59.05,-43.508 -85.98,-43.508 -8.29,0 -16.58,3.109 -16.58,12.433 0,27.969 50.76,71.477 78.73,71.477 6.22,0 11.4,-5.18 11.4,-11.395 0,-23.828 -45.58,-37.293 -64.23,-37.293 -15.54,-16.574 -17.61,-22.789 -17.61,-25.898 0,-5.18 5.18,-6.215 10.36,-6.215 22.79,0 53.87,18.649 83.91,43.508 z m -23.83,37.292 c -10.36,0 -23.82,-12.429 -50.76,-42.468 27.97,0 55.94,23.824 55.94,37.289 0,3.109 -2.07,5.179 -5.18,5.179"
         style="fill:#231f20;fill-opacity:1;fill-rule:evenodd;stroke:none"
         id="path32" />
      <path
         d="m 1664.59,454.832 c -5.18,-3.105 -12.43,-8.289 -20.72,-8.289 -6.22,0 -9.33,2.074 -13.47,5.184 -24.86,-31.079 -45.58,-44.547 -65.26,-44.547 -8.29,0 -16.58,6.215 -16.58,15.539 0,24.863 48.69,70.445 75.63,70.445 5.17,0 9.32,-2.074 11.39,-6.219 1.04,1.035 2.07,1.035 3.11,1.035 3.1,0 5.18,-3.105 5.18,-7.25 0,-9.324 -7.25,-21.753 -11.4,-26.933 3.11,-3.109 7.26,-4.141 11.4,-4.141 5.18,0 13.47,3.106 18.64,8.285 z m -32.12,30.043 c -1.03,2.07 -3.11,5.18 -6.21,5.18 -11.4,0 -32.12,-24.864 -60.08,-56.973 -6.22,-7.254 -8.29,-11.398 -8.29,-15.543 0,-3.109 3.1,-7.25 10.36,-7.25 17.61,0 42.47,19.68 60.08,43.508 -2.07,4.144 -3.11,8.289 -3.11,13.465 0,7.254 3.11,14.508 7.25,17.613"
         style="fill:#231f20;fill-opacity:1;fill-rule:evenodd;stroke:none"
         id="path34" />
      <path
         d="m 1690.48,487.98 h 17.61 l -33.14,-36.253 v 0 c 8.28,6.214 18.64,10.359 32.11,14.5 2.07,11.398 15.54,23.828 21.75,23.828 4.15,0 6.22,-1.035 6.22,-5.18 0,-9.324 -16.58,-18.648 -24.86,-20.719 0,-7.25 3.1,-13.468 9.32,-13.468 5.18,0 44.55,18.648 46.62,20.718 l 1.03,-2.07 c -2.07,-2.074 -43.51,-21.754 -47.65,-21.754 -7.25,0 -12.43,6.215 -12.43,15.539 -21.76,-5.18 -37.29,-16.578 -51.8,-33.152 l -15.53,-18.645 h -16.58 l 67.33,76.656"
         style="fill:#231f20;fill-opacity:1;fill-rule:evenodd;stroke:none"
         id="path36" />
      <path
         d="m 1818.94,541.852 h 17.61 l -33.15,-35.223 h 15.54 l -2.07,-3.109 h -16.58 l -64.23,-69.407 c -10.35,-12.429 -15.53,-17.609 -15.53,-20.718 0,-2.071 3.1,-3.106 5.18,-3.106 8.28,0 35.22,5.18 77.69,42.473 l -1.04,-2.074 c -33.15,-33.149 -65.26,-43.508 -77.69,-43.508 -6.22,0 -9.33,4.144 -9.33,10.359 0,7.254 5.19,16.574 19.69,33.149 l 48.69,52.832 h -17.61 l 3.1,3.109 h 16.58 l 33.15,35.223"
         style="fill:#231f20;fill-opacity:1;fill-rule:evenodd;stroke:none"
         id="path38" />
      <path
         d="M 63.0586,904.422 H 30.9453 v 8.285 H 209.121 l 2.074,-65.262 h -8.289 c -5.179,20.719 -9.324,43.508 -31.078,52.832 -7.25,3.11 -19.683,4.145 -33.148,4.145 h -34.184 v -92.195 c 30.043,0 46.613,5.179 48.688,39.363 h 8.289 v -90.125 h -8.289 c -3.106,36.258 -14.504,43.508 -48.688,42.473 v -97.375 h 31.074 v -8.29 H 30.9453 v 8.29 h 32.1133 v 197.859"
         style="fill:#231f20;fill-opacity:1;fill-rule:evenodd;stroke:none"
         id="path40" />
      <path
         d="m 215.34,782.184 c 0,39.363 34.183,78.73 74.586,78.73 39.363,0 74.582,-39.367 74.582,-78.73 0,-43.508 -26.93,-88.051 -74.582,-88.051 -47.656,0 -74.586,44.543 -74.586,88.051 z m 113.949,24.863 c 0,9.324 -1.035,16.574 -4.144,23.824 -4.141,14.504 -14.504,24.863 -35.219,24.863 -21.754,0 -32.117,-10.359 -36.262,-24.863 -2.066,-7.25 -3.105,-14.5 -3.105,-23.824 V 755.25 c 0,-9.324 0,-18.648 2.074,-26.937 5.176,-16.575 14.5,-27.969 37.293,-27.969 22.789,0 32.113,11.394 36.258,27.969 2.07,8.289 3.105,17.613 3.105,26.937 v 51.797"
         style="fill:#231f20;fill-opacity:1;fill-rule:evenodd;stroke:none"
         id="path42" />
      <path
         d="M 548.902,857.809 V 851.59 H 525.078 V 751.105 c 0,-23.824 -5.18,-35.222 -14.504,-44.542 -10.359,-8.29 -24.863,-12.43 -46.617,-12.43 -16.574,0 -32.109,5.176 -42.473,13.461 -10.355,7.258 -14.5,22.793 -14.5,49.726 v 94.27 h -23.828 v 6.219 h 77.696 v -6.219 h -23.829 v -87.016 c 0,-33.152 -3.109,-62.156 40.403,-62.156 27.969,0 39.363,17.609 39.363,43.508 V 851.59 H 494 v 6.219 h 54.902"
         style="fill:#231f20;fill-opacity:1;fill-rule:evenodd;stroke:none"
         id="path44" />
      <path
         d="m 620.383,704.488 h 23.828 v -6.215 h -77.695 v 6.215 H 590.34 V 851.59 h -23.824 v 6.219 h 79.761 c 25.903,0 56.977,-3.114 56.977,-36.262 0,-26.934 -27.969,-36.258 -50.758,-39.363 v 0 c 37.293,-6.215 45.578,-25.899 45.578,-65.262 0,-8.289 1.035,-17.613 23.828,-13.469 v -5.18 c -6.218,-2.07 -13.468,-3.109 -19.683,-3.109 -24.86,0 -37.293,12.43 -37.293,36.258 0,19.683 -3.11,35.223 -9.324,40.402 -7.25,5.18 -14.5,8.289 -21.754,8.289 h -13.465 z m 0,81.84 h 19.683 c 21.75,0 30.039,10.36 30.039,32.113 0,25.899 -7.25,33.149 -29.003,33.149 h -20.719 v -65.262"
         style="fill:#231f20;fill-opacity:1;fill-rule:evenodd;stroke:none"
         id="path46" />
      <path
         d="m 822.387,696.203 h -5.184 v 64.223 h 9.324 c 6.219,-31.074 24.864,-59.043 59.051,-59.043 24.86,0 47.652,18.644 47.652,44.543 0,30.043 -26.933,36.258 -50.761,44.543 -6.215,2.074 -12.434,4.144 -19.684,6.219 -29.004,9.32 -44.543,31.078 -44.543,62.152 0,33.148 24.863,58.012 59.047,58.012 18.645,0 32.113,-4.145 46.617,-15.539 l 12.43,12.433 h 5.18 v -60.082 h -10.36 c -3.109,30.039 -22.789,55.938 -54.902,55.938 -20.719,0 -40.402,-15.539 -40.402,-37.293 0,-24.864 17.613,-26.934 37.296,-32.114 8.286,-2.074 14.5,-5.179 19.68,-6.218 6.215,-2.071 14.5,-4.141 21.754,-7.25 26.934,-13.465 36.258,-34.184 36.258,-63.188 0,-40.402 -25.899,-70.445 -67.336,-70.445 -15.539,0 -35.219,6.215 -45.582,16.574 l -15.535,-13.465"
         style="fill:#231f20;fill-opacity:1;fill-rule:evenodd;stroke:none"
         id="path48" />
      <path
         d="m 1035.79,851.59 v -68.371 c 22.78,0 35.21,3.109 36.25,29.008 h 6.21 v -66.301 h -6.21 c -2.07,25.898 -10.36,32.113 -36.25,31.078 v -72.516 h 33.14 c 31.08,0 38.33,17.614 43.51,44.543 h 6.22 l -2.07,-50.758 H 980.879 v 6.215 h 23.831 V 851.59 h -23.831 v 6.219 h 132.601 l 1.04,-43.512 h -6.22 c -5.18,22.793 -14.5,32.113 -26.93,35.223 -6.22,2.07 -12.44,2.07 -20.72,2.07 h -24.86"
         style="fill:#231f20;fill-opacity:1;fill-rule:evenodd;stroke:none"
         id="path50" />
      <path
         d="m 1136.27,698.273 v 6.215 h 19.68 l 56.98,156.426 h 8.28 l 53.87,-156.426 h 19.68 v -6.215 h -75.62 v 6.215 H 1244 l -14.5,41.438 h -51.8 l -14.5,-41.438 h 23.83 v -6.215 z m 43.51,53.868 h 46.61 l -21.75,67.336 z"
         style="fill:#231f20;fill-opacity:1;fill-rule:evenodd;stroke:none"
         id="path52" />
      <path
         d="m 1319.63,696.203 h -4.15 v 47.652 h 6.22 c 5.18,-22.792 18.64,-43.511 44.54,-43.511 18.65,0 35.22,14.508 35.22,33.152 0,22.789 -19.68,26.93 -37.29,33.149 -5.18,2.07 -10.36,3.105 -14.5,5.179 -22.79,6.215 -33.15,22.789 -33.15,45.582 0,24.86 18.64,43.508 43.51,43.508 13.46,0 23.82,-3.105 34.18,-11.394 l 9.33,9.32 h 4.14 v -45.578 h -7.25 c -3.11,22.789 -17.61,42.472 -41.44,42.472 -15.54,0 -30.04,-11.394 -30.04,-27.968 0,-17.614 13.47,-19.684 27.97,-23.828 6.22,-2.075 10.36,-3.11 14.5,-5.18 5.18,-1.035 11.4,-3.106 16.58,-5.18 19.68,-9.324 26.93,-24.863 26.93,-46.613 0,-30.043 -19.68,-52.832 -50.76,-52.832 -11.4,0 -25.9,5.176 -34.19,12.43 l -10.35,-10.36"
         style="fill:#231f20;fill-opacity:1;fill-rule:evenodd;stroke:none"
         id="path54" />
      <path
         d="m 1447.04,782.184 c 0,39.363 34.19,78.73 74.59,78.73 39.36,0 73.55,-39.367 73.55,-78.73 0,-43.508 -26.93,-88.051 -73.55,-88.051 -47.65,0 -74.59,44.543 -74.59,88.051 z m 112.92,24.863 c 0,9.324 -1.03,16.574 -3.11,23.824 -5.18,14.504 -14.5,24.863 -35.22,24.863 -21.75,0 -32.11,-10.359 -36.25,-24.863 -2.08,-7.25 -3.12,-14.5 -3.12,-23.824 V 755.25 c 0,-9.324 0,-18.648 2.08,-26.937 4.14,-16.575 14.5,-27.969 37.29,-27.969 22.79,0 32.11,11.394 36.26,27.969 2.07,8.289 2.07,17.613 2.07,26.937 v 51.797"
         style="fill:#231f20;fill-opacity:1;fill-rule:evenodd;stroke:none"
         id="path56" />
      <path
         d="m 1753.68,695.164 h -7.25 L 1645.94,846.41 V 704.488 h 22.79 v -6.215 h -53.87 v 6.215 h 22.79 V 851.59 h -22.79 v 6.219 h 61.12 l 70.45,-104.633 v 98.414 h -22.8 v 6.219 h 53.87 v -6.219 h -23.82 V 695.164"
         style="fill:#231f20;fill-opacity:1;fill-rule:evenodd;stroke:none"
         id="path58" />
      <path
         d="m 1806.51,696.203 h -4.15 v 47.652 h 7.25 c 5.18,-22.792 18.65,-43.511 43.52,-43.511 18.64,0 36.25,14.508 36.25,33.152 0,22.789 -20.72,26.93 -38.33,33.149 -4.14,2.07 -9.32,3.105 -14.5,5.179 -21.76,6.215 -33.15,22.789 -33.15,45.582 0,24.86 18.64,43.508 43.51,43.508 14.5,0 23.82,-3.105 35.22,-11.394 l 9.32,9.32 h 4.14 v -45.578 h -8.28 c -2.07,22.789 -16.58,42.472 -40.4,42.472 -15.54,0 -30.04,-11.394 -30.04,-27.968 0,-17.614 12.43,-19.684 26.93,-23.828 6.22,-2.075 11.4,-3.11 15.54,-5.18 4.14,-1.035 10.36,-3.106 15.54,-5.18 19.68,-9.324 26.93,-24.863 26.93,-46.613 0,-30.043 -19.68,-52.832 -49.72,-52.832 -11.4,0 -25.9,5.176 -34.19,12.43 l -11.39,-10.36"
         style="fill:#231f20;fill-opacity:1;fill-rule:evenodd;stroke:none"
         id="path60" />
      <path
         d="m 1121.77,1206.91 c 4.14,0 7.25,4.14 7.25,7.25 0,4.14 -3.11,8.29 -7.25,8.29 -4.15,0 -7.25,-4.15 -7.25,-8.29 0,-3.11 3.1,-7.25 7.25,-7.25"
         style="fill:#231f20;fill-opacity:1;fill-rule:evenodd;stroke:none"
         id="path62" />
      <path
         d="m 1112.44,1223.48 6.22,-2.07 3.11,6.22 2.07,-6.22 7.25,2.07 -3.11,-6.21 6.22,-3.11 -6.22,-2.07 3.11,-7.25 -7.25,3.11 -2.07,-6.22 -3.11,6.22 -6.22,-3.11 2.08,7.25 -6.22,2.07 6.22,3.11 -2.08,6.21"
         style="fill:#231f20;fill-opacity:1;fill-rule:evenodd;stroke:none"
         id="path64" />
      <path
         d="m 935.301,1536.33 c 11.394,-1.03 20.719,-6.21 21.754,-20.72 -13.469,1.04 -19.684,9.33 -21.754,20.72"
         style="fill:#231f20;fill-opacity:1;fill-rule:evenodd;stroke:none"
         id="path66" />
      <path
         d="m 935.301,1558.09 c 11.394,-1.04 20.719,-6.22 22.789,-19.69 -14.504,0 -20.719,8.29 -22.789,19.69"
         style="fill:#231f20;fill-opacity:1;fill-rule:evenodd;stroke:none"
         id="path68" />
      <path
         d="m 936.336,1580.88 c 11.394,-1.04 19.684,-6.22 21.754,-20.72 -13.465,1.03 -19.68,9.32 -21.754,20.72"
         style="fill:#231f20;fill-opacity:1;fill-rule:evenodd;stroke:none"
         id="path70" />
      <path
         d="m 936.336,1602.63 c 11.394,-1.04 20.719,-6.22 21.754,-19.68 -13.465,0 -19.68,8.28 -21.754,19.68"
         style="fill:#231f20;fill-opacity:1;fill-rule:evenodd;stroke:none"
         id="path72" />
      <path
         d="m 936.336,1625.42 c 11.394,-1.03 20.719,-7.25 22.793,-20.72 -14.504,1.04 -20.719,9.32 -22.793,20.72"
         style="fill:#231f20;fill-opacity:1;fill-rule:evenodd;stroke:none"
         id="path74" />
      <path
         d="m 937.371,1647.18 c 11.395,-1.04 19.684,-6.22 21.758,-19.69 -13.469,0 -19.688,8.29 -21.758,19.69"
         style="fill:#231f20;fill-opacity:1;fill-rule:evenodd;stroke:none"
         id="path76" />
      <path
         d="m 930.121,1029.77 h 61.121 v 2.07 l -19.683,9.32 -10.36,606.02 c 0,1.03 0,1.03 -1.039,1.03 0,0 0,0 0,-1.03 l -10.355,-606.02 -19.684,-9.32 v -2.07"
         style="fill:#231f20;fill-opacity:1;fill-rule:evenodd;stroke:none"
         id="path78" />
      <path
         d="m 1102.08,1453.46 c -2.07,-12.43 -8.28,-20.72 -21.75,-20.72 1.04,13.47 10.36,19.68 21.75,20.72"
         style="fill:#231f20;fill-opacity:1;fill-rule:evenodd;stroke:none"
         id="path80" />
      <path
         d="m 1103.12,1432.74 c -2.07,-11.4 -8.29,-19.68 -21.75,-19.68 1.03,13.46 10.35,18.64 21.75,19.68"
         style="fill:#231f20;fill-opacity:1;fill-rule:evenodd;stroke:none"
         id="path82" />
      <path
         d="m 1032.68,1454.49 c -13.47,0 -19.69,8.29 -21.76,19.69 11.4,-1.04 20.72,-6.22 21.76,-19.69"
         style="fill:#231f20;fill-opacity:1;fill-rule:evenodd;stroke:none"
         id="path84" />
      <path
         d="m 995.387,1389.23 c -14.508,0 -20.719,8.29 -22.793,19.68 12.429,-1.03 20.719,-6.21 22.793,-19.68"
         style="fill:#231f20;fill-opacity:1;fill-rule:evenodd;stroke:none"
         id="path86" />
      <path
         d="m 1143.52,1327.08 c -11.39,-1.04 -20.72,-6.22 -22.79,-19.69 14.5,0 20.72,8.29 22.79,19.69"
         style="fill:#231f20;fill-opacity:1;fill-rule:evenodd;stroke:none"
         id="path88" />
      <path
         d="m 1124.88,1247.31 c 12.42,-1.04 21.75,-6.21 22.78,-19.68 -14.5,0 -20.71,8.28 -22.78,19.68"
         style="fill:#231f20;fill-opacity:1;fill-rule:evenodd;stroke:none"
         id="path90" />
      <path
         d="m 1149.73,1276.32 c -12.43,1.03 -21.75,6.21 -21.75,20.72 14.5,-1.04 20.72,-9.33 21.75,-20.72"
         style="fill:#231f20;fill-opacity:1;fill-rule:evenodd;stroke:none"
         id="path92" />
      <path
         d="m 775.77,1207.95 c -2.071,2.07 -2.071,4.14 -2.071,4.14 l -4.144,118.09 c 0,2.07 -1.039,3.11 -1.039,3.11 -1.032,0 -1.032,-1.04 -1.032,-3.11 l -5.179,-125.34 c 0,0 0,-3.11 2.07,-4.14 L 960.16,1085.71 v 27.97 l -184.39,94.27"
         style="fill:#231f20;fill-opacity:1;fill-rule:evenodd;stroke:none"
         id="path94" />
      <path
         d="m 1144.55,1207.95 c 3.11,2.07 3.11,4.14 3.11,4.14 l 4.14,118.09 c 0,2.07 0,3.11 1.04,3.11 0,0 1.04,-1.04 1.04,-3.11 l 4.14,-125.34 c 0,0 1.04,-3.11 -1.03,-4.14 L 960.16,1085.71 v 27.97 l 184.39,94.27"
         style="fill:#231f20;fill-opacity:1;fill-rule:evenodd;stroke:none"
         id="path96" />
      <path
         d="m 809.953,1292.89 c -2.07,1.04 -2.07,2.07 -2.07,2.07 l -3.11,99.45 c 0,1.04 0,2.07 -1.031,2.07 0,0 -1.039,-1.03 -1.039,-2.07 l -3.105,-104.62 c 0,0 -1.039,-2.08 1.031,-3.11 l 159.531,-94.27 v 22.79 l -150.207,77.69"
         style="fill:#231f20;fill-opacity:1;fill-rule:evenodd;stroke:none"
         id="path98" />
      <path
         d="m 1110.37,1292.89 c 2.07,1.04 2.07,2.07 2.07,2.07 l 4.15,99.45 c 0,1.04 0,2.07 0,2.07 1.03,0 1.03,-1.03 1.03,-2.07 l 4.15,-104.62 c 0,0 0,-2.08 -1.04,-3.11 l -160.57,-94.27 v 22.79 l 150.21,77.69"
         style="fill:#231f20;fill-opacity:1;fill-rule:evenodd;stroke:none"
         id="path100" />
      <path
         d="m 847.246,1376.8 c -2.07,1.04 -2.07,2.07 -2.07,2.07 l -2.071,74.59 -1.039,1.03 -1.035,-1.03 -2.07,-80.8 c 0,0 0,-2.07 1.035,-3.11 l 120.164,-71.48 v 19.68 l -112.914,59.05"
         style="fill:#231f20;fill-opacity:1;fill-rule:evenodd;stroke:none"
         id="path102" />
      <path
         d="m 1074.11,1376.8 c 1.04,1.04 1.04,2.07 1.04,2.07 l 3.1,74.59 v 1.03 c 1.04,0 1.04,-1.03 1.04,-1.03 l 3.11,-80.8 c 0,0 0,-2.07 -1.03,-3.11 l -121.21,-71.48 v 19.68 l 113.95,59.05"
         style="fill:#231f20;fill-opacity:1;fill-rule:evenodd;stroke:none"
         id="path104" />
      <path
         d="m 881.434,1457.6 c -1.036,0 -1.036,1.04 -1.036,1.04 l -2.074,52.83 c 0,1.03 -1.035,1.03 -1.035,1.03 0,0 0,0 0,-1.03 l -3.109,-56.98 c 0,0 0,-2.07 1.039,-2.07 l 84.941,-50.76 v 14.5 l -78.726,41.44"
         style="fill:#231f20;fill-opacity:1;fill-rule:evenodd;stroke:none"
         id="path106" />
      <path
         d="m 909.402,1524.94 v 1.03 l -2.074,33.15 c 0,1.04 0,1.04 -1.031,1.04 0,0 0,0 0,-1.04 l -2.074,-37.29 c 0,0 0,-1.04 1.039,-1.04 l 54.898,-32.11 v 9.32 l -50.758,26.94"
         style="fill:#231f20;fill-opacity:1;fill-rule:evenodd;stroke:none"
         id="path108" />
      <path
         d="m 1010.92,1524.94 c 1.04,0 1.04,1.03 1.04,1.03 l 2.07,33.15 c 0,1.04 0,1.04 0,1.04 0,0 0,0 0,-1.04 l 2.07,-37.29 v -1.04 l -55.94,-32.11 v 9.32 l 50.76,26.94"
         style="fill:#231f20;fill-opacity:1;fill-rule:evenodd;stroke:none"
         id="path110" />
      <path
         d="m 1039.93,1457.6 c 1.03,0 1.03,1.04 1.03,1.04 l 2.08,52.83 c 0,1.03 0,1.03 0,1.03 1.03,0 1.03,0 1.03,-1.03 l 2.07,-56.98 c 0,0 0,-2.07 -1.03,-2.07 l -84.95,-50.76 v 14.5 l 79.77,41.44"
         style="fill:#231f20;fill-opacity:1;fill-rule:evenodd;stroke:none"
         id="path112" />
      <path
         d="m 1015.07,1540.47 c 14.5,0 20.72,8.29 22.79,19.69 -11.4,0 -20.72,-6.22 -22.79,-19.69"
         style="fill:#231f20;fill-opacity:1;fill-rule:evenodd;stroke:none"
         id="path114" />
      <path
         d="m 1014.03,1560.16 c 14.51,0 20.72,8.29 22.79,19.68 -11.39,-1.04 -20.72,-6.21 -22.79,-19.68"
         style="fill:#231f20;fill-opacity:1;fill-rule:evenodd;stroke:none"
         id="path116" />
      <path
         d="m 1012.99,1548.76 c -13.463,0 -19.677,9.33 -21.748,20.72 11.398,-1.03 20.718,-7.25 21.748,-20.72"
         style="fill:#231f20;fill-opacity:1;fill-rule:evenodd;stroke:none"
         id="path118" />
      <path
         d="m 1011.96,1529.08 c -13.468,1.04 -19.683,9.32 -21.757,20.72 11.397,-1.04 20.717,-6.22 21.757,-20.72"
         style="fill:#231f20;fill-opacity:1;fill-rule:evenodd;stroke:none"
         id="path120" />
      <path
         d="m 1066.86,1511.47 c -2.07,-12.43 -8.29,-20.72 -21.75,-20.72 1.03,13.47 10.36,19.68 21.75,20.72"
         style="fill:#231f20;fill-opacity:1;fill-rule:evenodd;stroke:none"
         id="path122" />
      <path
         d="m 1065.82,1532.19 c -11.39,-1.04 -20.71,-7.25 -21.75,-20.72 13.47,0 19.68,8.28 21.75,20.72"
         style="fill:#231f20;fill-opacity:1;fill-rule:evenodd;stroke:none"
         id="path124" />
      <path
         d="m 819.277,1473.14 c 11.395,-1.03 20.719,-6.22 22.789,-20.72 -14.5,1.04 -20.718,9.33 -22.789,20.72"
         style="fill:#231f20;fill-opacity:1;fill-rule:evenodd;stroke:none"
         id="path126" />
      <path
         d="m 819.277,1453.46 c 2.071,-12.43 8.289,-20.72 21.754,-20.72 -1.035,13.47 -10.359,19.68 -21.754,20.72"
         style="fill:#231f20;fill-opacity:1;fill-rule:evenodd;stroke:none"
         id="path128" />
      <path
         d="m 818.242,1432.74 c 2.074,-11.4 8.285,-19.68 21.754,-19.68 -1.035,13.46 -10.359,18.64 -21.754,19.68"
         style="fill:#231f20;fill-opacity:1;fill-rule:evenodd;stroke:none"
         id="path130" />
      <path
         d="m 817.203,1413.06 c 2.074,-12.43 8.289,-20.72 22.793,-20.72 -2.074,13.46 -10.359,19.68 -22.793,20.72"
         style="fill:#231f20;fill-opacity:1;fill-rule:evenodd;stroke:none"
         id="path132" />
      <path
         d="m 838.961,1372.66 c -13.469,0 -19.684,8.28 -21.758,19.68 11.399,-1.04 20.719,-6.22 21.758,-19.68"
         style="fill:#231f20;fill-opacity:1;fill-rule:evenodd;stroke:none"
         id="path134" />
      <path
         d="m 875.219,1454.49 c -14.504,0 -20.719,8.29 -22.789,19.69 12.429,-1.04 20.718,-6.22 22.789,-19.69"
         style="fill:#231f20;fill-opacity:1;fill-rule:evenodd;stroke:none"
         id="path136" />
      <path
         d="m 866.93,1418.23 c -11.395,-1.03 -20.719,-7.25 -21.754,-20.71 13.465,0 19.683,8.28 21.754,20.71"
         style="fill:#231f20;fill-opacity:1;fill-rule:evenodd;stroke:none"
         id="path138" />
      <path
         d="m 846.211,1377.84 c 13.469,1.03 19.684,9.32 21.754,20.71 -11.395,-1.03 -20.719,-6.21 -21.754,-20.71"
         style="fill:#231f20;fill-opacity:1;fill-rule:evenodd;stroke:none"
         id="path140" />
      <path
         d="m 883.504,1389.23 c -2.07,-11.39 -8.285,-19.68 -21.754,-19.68 1.035,13.47 10.359,18.65 21.754,19.68"
         style="fill:#231f20;fill-opacity:1;fill-rule:evenodd;stroke:none"
         id="path142" />
      <path
         d="m 900.078,1380.94 c -2.07,-11.39 -8.285,-19.68 -21.754,-19.68 1.035,13.47 10.36,18.65 21.754,19.68"
         style="fill:#231f20;fill-opacity:1;fill-rule:evenodd;stroke:none"
         id="path144" />
      <path
         d="m 916.652,1372.66 c -2.07,-11.4 -8.285,-19.69 -22.789,-19.69 2.071,13.47 11.399,18.65 22.789,19.69"
         style="fill:#231f20;fill-opacity:1;fill-rule:evenodd;stroke:none"
         id="path146" />
      <path
         d="m 933.23,1364.37 c -2.074,-11.4 -9.324,-19.68 -22.792,-20.72 2.074,14.5 10.359,19.69 22.792,20.72"
         style="fill:#231f20;fill-opacity:1;fill-rule:evenodd;stroke:none"
         id="path148" />
      <path
         d="m 927.012,1335.36 c 13.468,1.04 19.683,9.33 21.754,20.72 -11.395,-1.03 -20.719,-6.21 -21.754,-20.72"
         style="fill:#231f20;fill-opacity:1;fill-rule:evenodd;stroke:none"
         id="path150" />
      <path
         d="m 880.398,1458.64 c 14.5,0 20.719,8.28 22.79,19.68 -12.434,-1.03 -20.719,-6.21 -22.79,-19.68"
         style="fill:#231f20;fill-opacity:1;fill-rule:evenodd;stroke:none"
         id="path152" />
      <path
         d="m 918.727,1470.04 c -2.075,-11.4 -8.289,-19.69 -21.754,-20.72 1.035,14.5 10.355,19.68 21.754,20.72"
         style="fill:#231f20;fill-opacity:1;fill-rule:evenodd;stroke:none"
         id="path154" />
      <path
         d="m 935.301,1461.75 c -2.071,-11.4 -8.289,-19.69 -21.754,-20.72 1.035,14.5 10.359,19.68 21.754,20.72"
         style="fill:#231f20;fill-opacity:1;fill-rule:evenodd;stroke:none"
         id="path156" />
      <path
         d="m 951.875,1453.46 c -2.07,-11.4 -8.289,-20.72 -22.789,-20.72 2.07,13.47 11.394,19.68 22.789,20.72"
         style="fill:#231f20;fill-opacity:1;fill-rule:evenodd;stroke:none"
         id="path158" />
      <path
         d="m 850.355,1363.34 c -2.07,-11.4 -9.324,-19.69 -22.789,-19.69 2.071,13.47 10.356,18.65 22.789,19.69"
         style="fill:#231f20;fill-opacity:1;fill-rule:evenodd;stroke:none"
         id="path160" />
      <path
         d="m 843.105,1334.33 c 2.071,13.46 10.36,19.68 22.79,20.72 -2.071,-12.43 -9.325,-20.72 -22.79,-20.72"
         style="fill:#231f20;fill-opacity:1;fill-rule:evenodd;stroke:none"
         id="path162" />
      <path
         d="m 858.641,1325 c 2.074,13.47 10.363,19.69 22.793,20.72 -2.075,-12.43 -9.325,-20.72 -22.793,-20.72"
         style="fill:#231f20;fill-opacity:1;fill-rule:evenodd;stroke:none"
         id="path164" />
      <path
         d="m 874.18,1315.68 c 2.074,14.5 10.363,19.68 22.793,20.72 -2.075,-11.4 -9.325,-19.69 -22.793,-20.72"
         style="fill:#231f20;fill-opacity:1;fill-rule:evenodd;stroke:none"
         id="path166" />
      <path
         d="m 905.262,1298.07 c 2.066,13.47 10.355,18.64 22.785,19.68 -2.067,-11.39 -9.32,-19.68 -22.785,-19.68"
         style="fill:#231f20;fill-opacity:1;fill-rule:evenodd;stroke:none"
         id="path168" />
      <path
         d="m 885.578,1446.21 c -2.074,-11.4 -8.289,-19.69 -22.793,-20.72 2.074,14.5 10.363,19.68 22.793,20.72"
         style="fill:#231f20;fill-opacity:1;fill-rule:evenodd;stroke:none"
         id="path170" />
      <path
         d="m 878.324,1417.2 c 2.074,13.47 11.395,18.65 22.793,19.68 -2.074,-11.39 -8.289,-19.68 -22.793,-19.68"
         style="fill:#231f20;fill-opacity:1;fill-rule:evenodd;stroke:none"
         id="path172" />
      <path
         d="m 894.898,1407.88 c 1.036,13.46 10.364,18.64 21.754,19.68 -2.07,-11.4 -8.285,-19.68 -21.754,-19.68"
         style="fill:#231f20;fill-opacity:1;fill-rule:evenodd;stroke:none"
         id="path174" />
      <path
         d="m 910.438,1398.55 c 1.035,13.47 10.359,18.65 21.753,19.68 -2.07,-11.39 -8.285,-19.68 -21.753,-19.68"
         style="fill:#231f20;fill-opacity:1;fill-rule:evenodd;stroke:none"
         id="path176" />
      <path
         d="m 925.98,1389.23 c 13.461,0 19.68,8.29 21.75,19.68 -11.394,-1.03 -20.718,-6.21 -21.75,-19.68"
         style="fill:#231f20;fill-opacity:1;fill-rule:evenodd;stroke:none"
         id="path178" />
      <path
         d="m 914.582,1515.61 c -2.07,-11.39 -9.32,-19.68 -22.789,-20.72 2.07,14.51 10.359,19.69 22.789,20.72"
         style="fill:#231f20;fill-opacity:1;fill-rule:evenodd;stroke:none"
         id="path180" />
      <path
         d="m 908.367,1486.61 c 1.035,13.46 10.36,18.64 21.754,19.68 -2.074,-11.4 -8.285,-19.68 -21.754,-19.68"
         style="fill:#231f20;fill-opacity:1;fill-rule:evenodd;stroke:none"
         id="path182" />
      <path
         d="m 923.906,1477.29 c 1.035,13.46 10.36,18.64 21.754,19.67 -2.074,-11.39 -8.289,-19.67 -21.754,-19.67"
         style="fill:#231f20;fill-opacity:1;fill-rule:evenodd;stroke:none"
         id="path184" />
      <path
         d="m 904.223,1521.83 c -13.469,0 -19.68,8.29 -21.754,19.68 11.394,-1.04 20.719,-6.21 21.754,-19.68"
         style="fill:#231f20;fill-opacity:1;fill-rule:evenodd;stroke:none"
         id="path186" />
      <path
         d="m 905.262,1540.47 c -13.469,0 -19.684,8.29 -21.758,19.69 11.394,0 20.719,-6.22 21.758,-19.69"
         style="fill:#231f20;fill-opacity:1;fill-rule:evenodd;stroke:none"
         id="path188" />
      <path
         d="m 906.297,1560.16 c -13.469,0 -19.688,8.29 -21.754,19.68 11.391,-1.04 20.719,-6.21 21.754,-19.68"
         style="fill:#231f20;fill-opacity:1;fill-rule:evenodd;stroke:none"
         id="path190" />
      <path
         d="m 907.328,1549.8 c 14.508,0 20.719,8.29 22.793,20.72 -11.394,-1.04 -20.719,-7.25 -22.793,-20.72"
         style="fill:#231f20;fill-opacity:1;fill-rule:evenodd;stroke:none"
         id="path192" />
      <path
         d="m 909.402,1529.08 c 13.465,1.04 19.684,9.32 21.754,20.72 -11.394,-1.04 -20.718,-6.22 -21.754,-20.72"
         style="fill:#231f20;fill-opacity:1;fill-rule:evenodd;stroke:none"
         id="path194" />
      <path
         d="m 853.465,1493.86 c 2.07,-11.4 8.285,-19.68 21.754,-20.72 -1.039,14.5 -10.36,19.68 -21.754,20.72"
         style="fill:#231f20;fill-opacity:1;fill-rule:evenodd;stroke:none"
         id="path196" />
      <path
         d="m 854.5,1512.5 c 2.07,-11.39 8.285,-19.68 21.754,-19.68 -1.035,13.47 -10.359,18.65 -21.754,19.68"
         style="fill:#231f20;fill-opacity:1;fill-rule:evenodd;stroke:none"
         id="path198" />
      <path
         d="m 854.5,1532.19 c 12.43,-1.04 20.719,-7.25 22.789,-20.72 -14.504,0 -20.719,8.28 -22.789,20.72"
         style="fill:#231f20;fill-opacity:1;fill-rule:evenodd;stroke:none"
         id="path200" />
      <path
         d="m 777.84,1327.08 c 11.394,-1.04 20.719,-6.22 21.758,-19.69 -13.469,0 -19.684,8.29 -21.758,19.69"
         style="fill:#231f20;fill-opacity:1;fill-rule:evenodd;stroke:none"
         id="path202" />
      <path
         d="m 779.914,1387.16 c 11.395,-1.04 20.715,-7.25 21.754,-20.72 -13.469,0 -19.684,8.29 -21.754,20.72"
         style="fill:#231f20;fill-opacity:1;fill-rule:evenodd;stroke:none"
         id="path204" />
      <path
         d="m 778.879,1366.44 c 11.394,-1.04 20.719,-6.21 22.789,-20.72 -14.504,1.04 -20.719,9.33 -22.789,20.72"
         style="fill:#231f20;fill-opacity:1;fill-rule:evenodd;stroke:none"
         id="path206" />
      <path
         d="m 1025.43,1307.39 c 4.14,0 7.25,3.11 7.25,7.25 0,4.15 -3.11,7.26 -7.25,7.26 -4.15,0 -8.29,-3.11 -8.29,-7.26 0,-4.14 4.14,-7.25 8.29,-7.25"
         style="fill:#231f20;fill-opacity:1;fill-rule:evenodd;stroke:none"
         id="path208" />
      <path
         d="m 1016.1,1323.97 6.22,-2.07 3.11,6.21 2.07,-6.21 7.25,2.07 -3.11,-6.22 6.22,-3.11 -6.22,-2.07 3.11,-7.25 -7.25,3.11 -2.07,-6.22 -3.11,6.22 -6.22,-3.11 2.07,7.25 -6.21,2.07 6.21,3.11 -2.07,6.22"
         style="fill:#231f20;fill-opacity:1;fill-rule:evenodd;stroke:none"
         id="path210" />
      <path
         d="m 1000.56,1250.42 c 4.15,0 7.26,4.14 7.26,8.28 0,4.15 -3.11,7.26 -7.26,7.26 -4.142,0 -7.247,-3.11 -7.247,-7.26 0,-4.14 3.105,-8.28 7.247,-8.28"
         style="fill:#231f20;fill-opacity:1;fill-rule:evenodd;stroke:none"
         id="path212" />
      <path
         d="m 991.242,1268.03 7.25,-3.11 2.068,6.22 3.11,-6.22 6.22,3.11 -2.07,-7.25 6.21,-2.08 -6.21,-3.1 2.07,-6.22 -6.22,2.07 -3.11,-6.21 -2.068,6.21 -7.25,-2.07 3.106,6.22 -6.215,3.1 6.215,2.08 -3.106,7.25"
         style="fill:#231f20;fill-opacity:1;fill-rule:evenodd;stroke:none"
         id="path214" />
      <path
         d="m 1048.21,1190.34 c 4.15,0 7.26,4.14 7.26,8.28 0,4.15 -3.11,7.25 -7.26,7.25 -4.14,0 -7.25,-3.1 -7.25,-7.25 0,-4.14 3.11,-8.28 7.25,-8.28"
         style="fill:#231f20;fill-opacity:1;fill-rule:evenodd;stroke:none"
         id="path216" />
      <path
         d="m 1038.89,1207.95 6.22,-3.11 3.1,6.21 3.11,-6.21 6.22,3.11 -3.11,-7.25 7.25,-2.08 -7.25,-3.1 3.11,-6.22 -6.22,2.07 -3.11,-6.21 -3.1,6.21 -6.22,-2.07 2.07,6.22 -6.21,3.1 6.21,2.08 -2.07,7.25"
         style="fill:#231f20;fill-opacity:1;fill-rule:evenodd;stroke:none"
         id="path218" />
      <path
         d="m 1063.75,1113.68 c 4.15,0 7.25,4.14 7.25,8.28 0,3.11 -3.1,7.25 -7.25,7.25 -4.14,0 -7.25,-4.14 -7.25,-7.25 0,-4.14 3.11,-8.28 7.25,-8.28"
         style="fill:#231f20;fill-opacity:1;fill-rule:evenodd;stroke:none"
         id="path220" />
      <path
         d="m 1054.43,1131.29 6.22,-3.11 3.1,6.21 3.11,-6.21 6.22,3.11 -2.08,-7.25 6.22,-2.08 -6.22,-3.1 2.08,-6.22 -6.22,2.07 -3.11,-6.21 -3.1,6.21 -6.22,-2.07 2.07,6.22 -6.21,3.1 6.21,2.08 -2.07,7.25"
         style="fill:#231f20;fill-opacity:1;fill-rule:evenodd;stroke:none"
         id="path222" />
      <path
         d="m 1044.07,1114.71 c 2.07,-11.39 -1.03,-21.75 -13.46,-26.93 -4.15,13.47 2.07,21.76 13.46,26.93"
         style="fill:#231f20;fill-opacity:1;fill-rule:evenodd;stroke:none"
         id="path224" />
      <path
         d="m 1132.13,1146.83 c -12.44,1.03 -21.76,7.25 -21.76,20.72 14.51,0 20.72,-9.33 21.76,-20.72"
         style="fill:#231f20;fill-opacity:1;fill-rule:evenodd;stroke:none"
         id="path226" />
      <path
         d="m 1019.21,1193.44 c -12.43,1.04 -21.757,6.22 -22.792,19.69 14.502,0 20.722,-8.29 22.792,-19.69"
         style="fill:#231f20;fill-opacity:1;fill-rule:evenodd;stroke:none"
         id="path228" />
      <path
         d="m 1113.48,1320.86 c -13.47,1.04 -19.68,9.32 -21.76,20.72 11.4,-1.04 20.72,-6.22 21.76,-20.72"
         style="fill:#231f20;fill-opacity:1;fill-rule:evenodd;stroke:none"
         id="path230" />
      <path
         d="m 1038.89,1256.63 c -13.46,0 -20.72,8.29 -22.79,19.69 12.44,-1.04 20.72,-6.22 22.79,-19.69"
         style="fill:#231f20;fill-opacity:1;fill-rule:evenodd;stroke:none"
         id="path232" />
      <path
         d="m 1076.19,1397.52 c -14.51,0 -20.72,8.28 -22.8,20.71 12.43,-1.03 20.72,-7.25 22.8,-20.71"
         style="fill:#231f20;fill-opacity:1;fill-rule:evenodd;stroke:none"
         id="path234" />
      <path
         d="m 1188.06,1231.77 c -12.43,1.04 -21.75,6.22 -22.79,20.72 14.51,-1.04 20.72,-9.32 22.79,-20.72"
         style="fill:#231f20;fill-opacity:1;fill-rule:evenodd;stroke:none"
         id="path236" />
      <path
         d="m 1055.47,1322.93 c 2.07,-11.39 -1.04,-21.75 -13.47,-26.93 -4.14,13.46 3.11,21.75 13.47,26.93"
         style="fill:#231f20;fill-opacity:1;fill-rule:evenodd;stroke:none"
         id="path238" />
      <path
         d="m 1072.04,1247.31 c 2.07,-11.4 -1.04,-21.76 -13.47,-26.93 -4.14,13.46 3.11,21.75 13.47,26.93"
         style="fill:#231f20;fill-opacity:1;fill-rule:evenodd;stroke:none"
         id="path240" />
      <path
         d="m 1016.1,1143.72 c -13.46,0 -19.682,8.29 -21.752,20.72 11.392,-1.04 20.722,-7.26 21.752,-20.72"
         style="fill:#231f20;fill-opacity:1;fill-rule:evenodd;stroke:none"
         id="path242" />
      <path
         d="m 1106.23,1058.77 c 0,15.54 13.46,29.01 29,29.01 15.54,0 27.97,-13.47 27.97,-29.01 0,-15.54 -12.43,-29 -27.97,-29 -15.54,0 -29,13.46 -29,29 z m 51.79,0 c 0,12.43 -10.36,22.8 -22.79,22.8 -13.46,0 -23.82,-10.37 -23.82,-22.8 0,-13.46 10.36,-22.79 23.82,-22.79 12.43,0 22.79,9.33 22.79,22.79 z m -8.29,-15.54 h -7.25 l -7.25,13.47 h -6.21 v -13.47 h -6.22 v 31.08 h 15.54 c 2.07,0 6.21,0 8.29,-2.07 3.1,-1.04 3.1,-4.14 3.1,-7.25 0,-6.22 -2.07,-8.29 -8.28,-8.29 z m -11.39,17.62 c 3.11,0 6.21,1.03 6.21,4.14 0,4.14 -5.17,4.14 -7.25,4.14 h -8.28 v -8.28 h 9.32"
         style="fill:#231f20;fill-opacity:1;fill-rule:evenodd;stroke:none"
         id="path244" />
      <path
         d="m 1880.06,448.617 c -3.11,-3.105 -24.86,-18.648 -45.58,-26.933 2.07,3.109 4.14,5.179 6.21,7.254 6.22,7.25 9.33,14.5 9.33,24.859 -1.04,11.394 -10.36,18.648 -16.58,27.973 4.14,4.14 12.43,12.429 12.43,19.679 0,2.071 -2.07,4.145 -4.14,4.145 -9.32,0 -13.47,-10.36 -13.47,-17.614 0,-2.07 2.07,-6.21 2.07,-6.21 -12.43,-18.649 -37.29,-35.227 -43.51,-41.438 -2.07,-2.074 -9.32,-10.363 -9.32,-18.648 -1.04,-9.321 1.04,-17.61 14.5,-17.61 9.32,0 23.83,4.145 36.26,12.43 26.94,8.289 53.87,30.039 53.87,30.039 z m -91.17,-41.437 c -8.28,0 -9.32,7.25 -9.32,13.468 1.04,7.25 4.15,12.434 8.29,15.54 5.18,6.214 30.04,22.789 43.51,43.507 0,0 7.25,-12.433 7.25,-18.644 2.07,-24.863 -34.18,-51.797 -49.73,-53.871"
         style="fill:#231f20;fill-opacity:1;fill-rule:evenodd;stroke:none"
         id="path246" />
      <path
         d="m 1565.14,449.656 c -3.11,-2.074 -24.87,-17.613 -45.59,-25.898 2.08,2.07 4.15,5.18 6.22,7.25 6.22,7.25 9.33,14.504 9.33,24.859 -1.04,11.395 -10.36,18.649 -16.58,26.934 4.14,5.179 12.43,13.469 12.43,19.687 0,2.071 -2.07,5.176 -4.14,5.176 -9.32,0 -13.47,-10.359 -13.47,-17.609 0,-3.11 2.07,-6.215 2.07,-6.215 -12.43,-18.649 -37.29,-36.258 -43.5,-41.438 -2.08,-3.109 -9.33,-11.394 -9.33,-18.644 -1.03,-9.328 1.04,-17.613 14.51,-17.613 9.32,0 23.82,4.144 36.25,12.429 26.93,8.289 53.87,30.043 53.87,30.043 z m -91.16,-40.402 c -8.29,-1.035 -9.32,6.215 -9.32,13.465 1.03,6.219 4.14,11.394 8.28,15.539 5.18,6.215 30.04,22.793 43.51,43.512 0,0 7.25,-12.434 7.25,-18.649 2.07,-24.863 -34.18,-52.832 -49.72,-53.867"
         style="fill:#231f20;fill-opacity:1;fill-rule:evenodd;stroke:none"
         id="path248" />
      <path
         d="m 692.898,449.656 c -4.144,-3.113 -24.863,-18.648 -46.621,-25.898 2.075,2.07 5.184,4.14 6.219,7.25 6.215,7.25 10.359,13.465 9.32,24.859 -1.031,11.395 -10.355,18.649 -16.574,26.934 4.145,4.144 12.43,12.433 12.43,19.687 0,2.071 -2.07,4.141 -4.141,4.141 -8.289,0 -12.429,-10.359 -12.429,-17.609 0,-2.075 1.035,-6.219 1.035,-6.219 -12.434,-18.645 -36.258,-35.219 -42.473,-41.434 -3.109,-2.074 -9.324,-10.359 -10.359,-18.648 -1.035,-9.324 1.035,-16.574 14.504,-16.574 9.32,0 23.824,3.109 36.257,12.429 26.93,7.254 53.868,29.008 53.868,29.008 z m -92.199,-40.402 c -8.289,-1.035 -9.32,6.215 -8.289,13.465 0,6.219 4.145,11.394 7.254,15.539 5.176,6.215 30.039,22.793 44.547,42.472 0,0 6.211,-11.394 6.211,-18.644 2.074,-24.863 -33.149,-51.797 -49.723,-52.832"
         style="fill:#231f20;fill-opacity:1;fill-rule:evenodd;stroke:none"
         id="path250" />
    </g>
  </g>
</svg>
