<?xml version="1.0" encoding="utf-8"?>
<!-- Generator: Adobe Illustrator 19.2.1, SVG Export Plug-In . SVG Version: 6.00 Build 0)  -->
<svg version="1.1" id="layer" xmlns="http://www.w3.org/2000/svg" xmlns:xlink="http://www.w3.org/1999/xlink" x="0px" y="0px"
	 viewBox="0 0 652 652" style="enable-background:new 0 0 652 652;" xml:space="preserve">
<path d="M203.5,433.1h5.4l-12.6,14.5v9.7h-4.1v-9.7l-12.6-14.5h5.4l9.3,10.9L203.5,433.1z M457.9,450.9l-16.2-17.9h-4.9v24.3h4
	v-19.5l17.5,19.5h3.7v-24.3h-4.1L457.9,450.9z M167.4,450.2c0,7.1-7.8,7.1-11.9,7.1h-12.4v-24.3h14c2.6,0,9.6,0,9.6,6.6
	c0.1,2-1,3.9-2.7,4.9C166.1,445.6,167.5,447.8,167.4,450.2L167.4,450.2z M147.1,442.8h9.1c5.6,0,6.2-1.8,6.2-3.1c0-2.9-2.7-3-7.2-3
	h-8.2L147.1,442.8z M163.3,450.1c0-1.6-0.6-3.6-5.7-3.6h-10.5v7.1h10.1C161.5,453.6,163.3,452.6,163.3,450.1L163.3,450.1z
	 M496.1,433.4l-3.7,6.4l-3.7-6.4h-0.8v9.2h0.8v-7.5h0l3.7,6.2l3.7-6.2h0v7.5h0.8v-9.2H496.1z M274.7,442.8h-16.8v-9.7h-4.1v24.3h4.1
	v-10.8h16.8v10.8h4.1v-24.3h-4.1V442.8z M477.5,434.3h3.5v8.3h0.8v-8.3h3.5v-0.8h-7.8L477.5,434.3z M299,457.3h4.1v-24.3H299V457.3z
	 M420,445.3c0,8.7-7.3,12.6-14.1,12.6c-6.8,0-14.1-3.9-14.1-12.6c0-7.7,5.7-12.9,14.1-12.9C414.3,432.4,420,437.6,420,445.3z
	 M415.8,444.9c0-5.2-4.1-8.8-10-8.8c-5.9,0-10,3.6-10,8.8c0,8.6,7.6,9.3,10,9.3C408.2,454.1,415.8,453.5,415.8,444.9L415.8,444.9z
	 M354.2,436.8h11.1v20.6h4.1v-20.6h11.1v-3.7h-26.3L354.2,436.8z M327.7,433.1h-4.1v24.3h22.3v-3.8h-18.2V433.1z"/>
<path d="M68,388l3.6,3.6c-5.1,5.2-10.7,8.6-19.5,8.6C38,400.1,27.6,389,27.6,375v-0.1c0-13.8,10.3-25.3,24.7-25.3
	c8.9,0,14.2,3.1,19,7.7l-3.8,4c-4.1-3.9-8.7-6.7-15.3-6.7c-10.8,0-18.9,8.8-18.9,20v0.1c0,11.3,8.2,20.2,18.9,20.2
	C58.9,395,63.3,392.4,68,388z M141.1,374.7v0.1c0,13.5-10.1,25.3-25,25.3S91.3,388.5,91.3,375v-0.1c0-13.5,10.1-25.3,25-25.3
	S141.1,361.2,141.1,374.7L141.1,374.7z M135.4,374.9c0-11.1-8.1-20.2-19.3-20.2s-19.1,8.9-19.1,20v0.1c0,11.1,8.1,20.2,19.3,20.2
	s19.1-8.9,19.1-20V374.9z M171.9,350.4h-5.5v48.8h33v-5.1h-27.5L171.9,350.4z M228.7,350.4h-5.5v48.8h33v-5.1h-27.5L228.7,350.4z
	 M285.5,377.2h26.6v-5h-26.6v-16.7h29.8v-5H280v48.8h35.6v-5h-30.1L285.5,377.2z M362.8,395c-10.7,0-18.9-8.9-18.9-20.2v-0.1
	c0-11.2,8.1-20,18.9-20c6.6,0,11.2,2.8,15.3,6.7l3.8-4c-4.9-4.6-10.2-7.7-19-7.7c-14.4,0-24.7,11.4-24.7,25.3v0.1
	c0,14,10.4,25.1,24.5,25.1c8.9,0,14.4-3.4,19.5-8.6l-3.6-3.6C373.9,392.4,369.5,395,362.8,395L362.8,395z M402,355.5h16.4v43.7h5.6
	v-43.7h16.4v-5.1H402L402,355.5z M464.8,399.3h5.5v-48.8h-5.5L464.8,399.3z M545.8,374.7v0.1c0,13.5-10.1,25.3-25,25.3
	S496,388.5,496,375v-0.1c0-13.5,10.1-25.3,25-25.3C535.9,349.6,545.8,361.2,545.8,374.7z M540.1,374.9c0-11.1-8.1-20.2-19.3-20.2
	s-19.1,8.9-19.1,20v0.1c0,11.1,8.1,20.2,19.3,20.2s19.1-8.9,19.1-20V374.9z M607,389.6l-30.8-39.1h-5.2v48.8h5.4v-40l31.5,40h4.4
	v-48.8H607L607,389.6z M133.3,295.1C123,311,108.5,319.4,91,319.4c-28,0-44.7-23.5-44.7-64.4c0-37.1,10.5-62.6,29.3-68.6
	C42.7,191.9,20,218.8,20,255c0,39.9,25.9,68.6,64.5,68.6C110.2,323.6,124.9,309.5,133.3,295.1L133.3,295.1z M129.6,230.9v-42.8
	l-7.2,9.2l-1.3-0.9c-6.2-4.3-17.4-9.3-31.2-10.1C106.9,189.5,120.8,205.2,129.6,230.9z M254.6,284.5c-2.2,21.1-18.2,34.9-41.9,34.9
	s-35.9-11.8-35.9-37v-80.8c0-5.7,2.4-9.6,7.2-11.3c0.8-0.3,1.7-0.5,2.7-0.8h-41.5c1,0.3,2,0.5,2.7,0.8c4.8,1.8,7.2,5.6,7.2,11.3
	v80.8c0,25.4,19.3,41.2,51.6,41.2C229.7,323.6,252.5,311.5,254.6,284.5z M504.5,305.6c10.3,9.8,23.4,16.1,37.5,18
	c-19.7-6-31.2-31.4-31.2-68.6c0-37.9,11-62.3,30.5-68.6c-14,2.2-26.9,8.7-37,18.6c-13.4,12.8-20.2,28.6-20.2,50
	C484.1,274.6,491.2,293.1,504.5,305.6L504.5,305.6z M562.1,323.6c14.1-1.9,27.2-8.2,37.5-18C613,293.1,620,274.6,620,255
	c0-21.4-6.8-37.2-20.2-50c-10.1-9.9-23-16.4-37-18.6c19.5,6.3,30.5,30.7,30.5,68.6C593.3,292.2,581.9,317.5,562.1,323.6L562.1,323.6
	z M426,319.7c-0.9,0.3-1.8,0.6-2.7,0.8h41.5c-0.9-0.2-1.8-0.5-2.7-0.8c-4.8-1.8-7.2-5.6-7.2-11.3V201.6c0-5.7,2.4-9.6,7.2-11.3
	c0.8-0.3,1.7-0.5,2.7-0.8h-41.5c1,0.3,2,0.5,2.7,0.8c4.8,1.8,7.2,5.6,7.2,11.3v106.7C433.1,314.1,430.7,317.9,426,319.7z
	 M407.8,306.2c-2.5,6.2-7.1,9.1-11.5,9.1c-3.8,0-8.8-1.8-11-10.3c-1.1-4.2-1.9-8.2-2.7-12.5c-1-5.4-2.3-10.9-3.8-16.9
	c-5.3-21.2-39.6-20.6-39.6-20.6s46.7-4.7,46.7-36.7c0-6.8-3.2-28.8-44.4-28.8h-3.9c14.1,2.9,22.3,14.6,22.3,32.6
	c0,18.7-9.9,30.8-27.5,32.9c19.4,1.6,23.3,19.2,25.3,36.3c2.8,22.3,10.4,32.3,26.2,32.3C396.9,323.6,404.9,317.2,407.8,306.2z
	 M315.9,308.3V189.5h-31.6c1,0.3,1.9,0.5,2.7,0.8c4.8,1.8,7.2,5.6,7.2,11.3v106.7c0,5.7-2.4,9.6-7.2,11.3c-0.9,0.3-1.8,0.6-2.7,0.8
	h41.5c-1-0.3-1.9-0.5-2.7-0.8C318.3,317.9,315.9,314.1,315.9,308.3L315.9,308.3z M247.9,192.6c4.6,3.3,6.3,10.9,6.7,23.7
	c0.4-12.8,2.2-20.4,6.8-23.7c2.3-1.4,4.8-2.5,7.4-3.1h-28.3C243.1,190.1,245.6,191.2,247.9,192.6z"/>
</svg>
