<?xml version="1.0" encoding="UTF-8" standalone="no"?>
<!-- Created with Inkscape (http://www.inkscape.org/) -->

<svg
   version="1.1"
   id="svg2"
   width="116.86667"
   height="50.080002"
   viewBox="0 0 116.86667 50.080002"
   sodipodi:docname="jumeirah.eps"
   xmlns:inkscape="http://www.inkscape.org/namespaces/inkscape"
   xmlns:sodipodi="http://sodipodi.sourceforge.net/DTD/sodipodi-0.dtd"
   xmlns="http://www.w3.org/2000/svg"
   xmlns:svg="http://www.w3.org/2000/svg">
  <defs
     id="defs6" />
  <sodipodi:namedview
     id="namedview4"
     pagecolor="#ffffff"
     bordercolor="#000000"
     borderopacity="0.25"
     inkscape:showpageshadow="2"
     inkscape:pageopacity="0.0"
     inkscape:pagecheckerboard="0"
     inkscape:deskcolor="#d1d1d1" />
  <g
     id="g8"
     inkscape:groupmode="layer"
     inkscape:label="ink_ext_XXXXXX"
     transform="matrix(1.3333333,0,0,-1.3333333,0,50.08)">
    <g
       id="g10"
       transform="scale(0.1)">
      <path
         d="m 436.586,211.223 h 57.219 c 0,24.336 -13.301,33.64 -27.09,33.64 -18.34,0 -28.117,-16.316 -30.129,-33.64 m 32.375,-78.274 c -35.383,0 -56.953,30.098 -56.953,59.973 0,27.351 19.308,60.965 57.715,60.965 21.308,0 47.156,-14.813 47.156,-51.934 h -81.305 v -7.031 c 0,-25.352 13.563,-47.422 40.164,-47.422 17.559,0 35.371,14.309 40.157,26.094 -0.762,-20.574 -20.098,-40.645 -46.934,-40.645"
         style="fill:#173a79;fill-opacity:1;fill-rule:nonzero;stroke:none"
         id="path12" />
      <path
         d="m 692.301,147.004 c -11.797,0 -19.074,7.519 -19.074,20.809 0,12.804 9.035,18.828 20.812,23.351 11.797,3.758 18.848,5.508 26.856,9.531 v -40.656 c -7.012,-7.273 -16.309,-13.035 -28.594,-13.035 m 49.492,1.074 v 3.945 h -0.07 c 0,0.254 0,0.508 0,0.743 v 67.246 c 0,29.609 -24.852,33.875 -39.383,33.875 -20.332,0 -30.391,-6.524 -39.668,-12.52 l 0.508,-31.133 c 6.023,18.055 14.804,34.133 36.133,34.133 15.82,0 21.582,-11.301 21.582,-21.847 0,-1.25 0,-9.532 -1.008,-10.536 -7.774,-8.273 -37.879,-11.796 -51.18,-20.078 -13.047,-7.773 -16.816,-18.808 -16.816,-28.359 0,-10.781 7.781,-30.598 30.117,-30.598 16.855,0 29.883,8.977 37.812,16.953 0.059,0.032 0.086,0.071 0.118,0.11 v -1.934 c 0,-5.519 -2.766,-10.625 -6.758,-12.863 0,0 9.414,1.613 17.343,1.613 7.93,0 18.27,-1.613 18.27,-1.613 -4.012,2.238 -7,7.344 -7,12.863"
         style="fill:#173a79;fill-opacity:1;fill-rule:nonzero;stroke:none"
         id="path14" />
      <path
         d="m 559.547,148.078 v 88.809 c 0,9.238 2.5,15.078 6.269,17.09 0,0 -9.296,0.808 -17.187,-6.36 -7.891,7.168 -17.188,6.36 -17.188,6.36 0.039,-0.02 0.086,-0.063 0.125,-0.079 -0.086,0 -0.125,-0.011 -0.125,-0.011 3.77,-2 6.27,-7.852 6.27,-17.078 v -9.661 -17.168 -57.957 -3.945 c 0,-5.519 -2.754,-10.637 -6.758,-12.863 0,0 9.414,1.613 17.344,1.613 7.918,0 18.269,-1.613 18.269,-1.613 -4.023,2.226 -7.019,7.344 -7.019,12.863"
         style="fill:#173a79;fill-opacity:1;fill-rule:nonzero;stroke:none"
         id="path16" />
      <path
         d="m 556.625,291.387 c -2.988,-2.578 -5.555,-5.215 -6.961,-7.969 -6.68,21.437 -46.543,33.547 -26.68,57.109 -40.781,-39.129 19.774,-48.875 26.68,-83.066 0.586,8.73 5.43,15.09 11.387,20.957 0.703,5.051 -1.309,9.121 -4.426,12.969"
         style="fill:#9f8c50;fill-opacity:1;fill-rule:nonzero;stroke:none"
         id="path18" />
      <path
         d="m 584.879,324.934 c -5.176,21.386 -44.238,39.754 -33.301,50.711 -27.109,-16.454 6.758,-37.344 22.227,-54.403 5.027,-6.769 2.402,-12.422 -2.715,-17.668 -11.055,20.899 -46.641,36.262 -32.11,52.461 -27.199,-23.816 -0.664,-38.594 15.84,-55.312 2,-2.059 3.887,-4.141 5.489,-6.297 2.781,-3.703 4.773,-7.59 5.312,-11.719 0.313,-2.539 0.078,-5.176 -0.82,-7.949 -0.578,-1.77 -1.426,-3.567 -2.61,-5.442 8.223,7.793 11.653,14.883 12.024,21.438 8.066,8.281 14.187,18.105 10.664,34.18"
         style="fill:#9f8c50;fill-opacity:1;fill-rule:nonzero;stroke:none"
         id="path20" />
      <path
         d="m 190.984,148.078 v 3.945 h -0.046 v 83.594 c 0,10.449 0.5,16.571 6.519,18.27 -1.777,0 -11.269,-0.711 -17.441,-1.903 -6.149,1.192 -15.137,1.903 -16.93,1.903 6.019,-1.699 6.519,-7.821 6.519,-18.27 v -21.328 -4.309 -49.441 c -7.269,-7.012 -14.289,-12.793 -26.597,-12.793 -14.301,0 -25.84,11.035 -25.84,32.371 v 29.863 12.317 13.32 c 0,10.449 0.496,16.571 6.527,18.27 -1.793,0 -11.289,-0.711 -17.449,-1.903 -6.156,1.192 -15.6601,1.903 -17.4257,1.903 5.9961,-1.699 6.5078,-7.821 6.5078,-18.27 V 209.98 h 0.0078 v -29.863 c 0,-37.383 23.3521,-47.168 38.1411,-47.168 17.281,0 28.398,8.723 35.937,16.797 v -1.668 c 0,-5.519 -3.019,-10.637 -7.027,-12.863 0,0 9.422,1.613 17.347,1.613 7.93,0 18.286,-1.613 18.286,-1.613 -4.028,2.226 -7.036,7.344 -7.036,12.863"
         style="fill:#173a79;fill-opacity:1;fill-rule:nonzero;stroke:none"
         id="path22" />
      <path
         d="m 394.434,148.078 v 71.434 c 0,23.586 -20.071,34.375 -37.121,34.375 -16.067,0 -31.868,-11.785 -39.653,-22.078 -5.039,14.304 -20.086,22.078 -34.125,22.078 -17.07,0 -30.629,-12.528 -36.64,-17.313 l -0.25,-0.226 c 0.031,10 0.64,15.879 6.519,17.539 -1.793,0 -11.277,-0.711 -17.449,-1.903 -6.141,1.192 -15.145,1.903 -16.922,1.903 6.02,-1.699 6.52,-7.821 6.52,-18.27 v -12.062 -13.575 -57.957 -3.945 c 0,-5.519 -3.016,-10.637 -7.024,-12.863 0,0 9.426,1.613 17.348,1.613 7.926,0 18.273,-1.613 18.273,-1.613 -4.008,2.226 -7.015,7.344 -7.015,12.863 v 3.945 74.774 c 4.769,5.754 13.789,12.805 25.335,12.805 20.075,0 26.106,-12.305 26.106,-26.614 v -60.965 -3.945 c 0,-5.519 -2.773,-10.637 -6.781,-12.863 0,0 9.418,1.613 17.355,1.613 7.922,0 18.262,-1.613 18.262,-1.613 -3.996,2.226 -7.012,7.344 -7.012,12.863 v 3.945 67.989 c 0,1.258 0,2.508 -0.496,3.769 6.27,8.77 17.059,15.821 27.098,15.821 19.332,0 26.343,-12.805 26.343,-27.618 v -59.961 -3.945 c 0,-5.519 -3.25,-10.637 -7.281,-12.863 0,0 9.442,1.613 17.36,1.613 7.929,0 18.281,-1.613 18.281,-1.613 -4.016,2.226 -7.031,7.344 -7.031,12.863"
         style="fill:#173a79;fill-opacity:1;fill-rule:nonzero;stroke:none"
         id="path24" />
      <path
         d="m 639.84,253.887 c -8.789,0 -21.836,-13.047 -27.09,-22.078 0,0 -0.187,-0.246 -0.508,-0.618 v 4.426 c 0,10.449 0.508,16.571 6.512,18.27 -1.785,0 -11.277,-0.711 -17.449,-1.903 -6.153,1.192 -15.129,1.903 -16.914,1.903 6.015,-1.699 6.523,-7.821 6.523,-18.27 V 209.98 152.012 h -0.019 v -3.934 c 0,-5.519 -2.754,-10.637 -6.77,-12.863 0,0 9.445,1.613 17.375,1.613 7.91,0 18.262,-1.613 18.262,-1.613 -4.024,2.226 -7.012,7.344 -7.012,12.863 v 3.934 70.508 c 4.754,6.027 12.285,13.554 21.805,13.554 6.535,0 11.066,-3.008 14.816,-7.785 v 23.598 c -3.019,1.25 -3.508,2 -9.531,2"
         style="fill:#173a79;fill-opacity:1;fill-rule:nonzero;stroke:none"
         id="path26" />
      <path
         d="m 869.449,148.078 v 70.938 c 0,23.086 -18.066,34.871 -37.656,34.871 -16.555,0 -32.344,-13.047 -37.871,-17.813 v 25.852 25.625 c 0,10.457 0.508,16.57 6.523,18.281 -1.797,0 -11.289,-0.723 -17.461,-1.906 -6.132,1.183 -15.625,1.906 -17.421,1.906 6.023,-1.711 6.523,-7.824 6.523,-18.281 v -7.473 -18.152 -109.903 -3.945 c 0,-5.519 -2.754,-10.637 -6.777,-12.863 0,0 9.433,1.613 17.343,1.613 7.93,0 18.301,-1.613 18.301,-1.613 -4.023,2.226 -7.031,7.344 -7.031,12.863 v 3.945 74.012 c 4.746,6.516 16.043,13.039 27.344,13.039 20.566,0 26.855,-13.535 26.855,-28.351 v -58.7 -2.121 -1.824 c 0,-5.519 -3.262,-10.637 -7.285,-12.863 0,0 9.434,1.613 17.352,1.613 7.921,0 18.292,-1.613 18.292,-1.613 -4.023,2.226 -7.031,7.344 -7.031,12.863"
         style="fill:#173a79;fill-opacity:1;fill-rule:nonzero;stroke:none"
         id="path28" />
      <path
         d="m 56.1172,303.926 c -6.1719,1.183 -16.9492,1.906 -18.7383,1.906 6.0274,-1.711 6.5352,-7.824 6.5352,-18.281 V 261.926 163.047 C 43.9141,97.5703 7.78906,85.5195 0,80.9961 60.7266,90.2852 67.9961,152.277 67.9961,165.313 v 96.613 h 0.0117 v 25.625 c 0,10.457 0.5039,16.57 6.5078,18.281 -1.7656,0 -12.2461,-0.723 -18.3984,-1.906"
         style="fill:#173a79;fill-opacity:1;fill-rule:nonzero;stroke:none"
         id="path30" />
      <path
         d="m 204.277,1.22266 c -6.211,0 -10.707,2.1289 -13.101,3.26953 l -0.34,11.52341 c 1.305,-4.8242 5.391,-11.24997 12.48,-11.24997 6.762,0 8.813,4.85546 8.813,8.18357 0,6.5547 -5.941,7.375 -12.152,10.793 -6.27,3.4062 -9,7.1562 -9,12.3437 0,9.2774 8.664,12.9688 14.875,12.9688 2.316,0 6.812,-0.4805 10.296,-2.5313 l 0.34,-10.0976 c -0.953,3.625 -4.843,9.0742 -11.39,9.0742 -5.18,0 -7.243,-3.6133 -7.243,-6.543 0,-4.1914 2.942,-5.6679 9.352,-8.664 6.352,-2.9375 12.969,-5.2617 12.969,-14.7461 0,-8.52346 -7.512,-14.32424 -15.899,-14.32424"
         style="fill:#9f8c50;fill-opacity:1;fill-rule:nonzero;stroke:none"
         id="path32" />
      <path
         d="m 259.262,44.4063 c 0,0 -6.211,0.4765 -11.192,0.4765 V 4.98047 c 0,-1.50391 0.754,-2.46875 1.785,-3.07422 h -12.222 c 1.09,0.60547 1.781,1.57031 1.781,3.07422 V 44.8828 c -5.055,0 -10.922,-0.4765 -10.922,-0.4765 -1.633,-0.0704 -2.789,-1.5743 -3.41,-2.7266 v 6.6211 h 37.379 v -6.6211 c -0.609,1.1523 -1.559,2.6562 -3.199,2.7266"
         style="fill:#9f8c50;fill-opacity:1;fill-rule:nonzero;stroke:none"
         id="path34" />
      <path
         d="m 282.73,34.9922 c 0,0 -4.64,-11.6016 -6.824,-16.7188 h 13.782 c -3.208,7.5782 -6.958,16.7188 -6.958,16.7188 M 293.512,1.90625 c 1.765,0.95703 2.109,1.91406 1.629,3.34766 -0.192,0.67578 -1.973,4.84379 -3.879,9.48439 h -16.723 c -2.039,-4.6406 -3.68,-8.66408 -3.812,-9.41408 -0.622,-1.64063 -0.278,-2.59766 1.574,-3.41797 h -9.418 c 1.906,1.28906 2.527,2.05078 3.207,3.34766 1.289,2.57812 19.238,44.47269 19.238,44.47269 0,0 18.152,-41.89457 19.367,-44.47269 0.688,-1.4336 1.164,-2.1875 3.414,-3.34766 h -14.597"
         style="fill:#9f8c50;fill-opacity:1;fill-rule:nonzero;stroke:none"
         id="path36" />
      <path
         d="M 340.371,44.1211 329.465,23.3906 V 4.98047 c 0,-1.50391 1.297,-2.46875 2.387,-3.07422 h -13.649 c 1.031,0.60547 2.32,1.44531 2.32,3.07422 V 23.1172 l -13.371,21.9023 c -0.953,1.6524 -1.714,2.3243 -3.547,3.2813 h 15.426 c -1.711,-0.6914 -2.941,-1.0235 -1.101,-4.2266 l 9.625,-16.789 9.008,17.5976 c 0.949,1.5039 0.48,2.9297 -1.442,3.418 h 9.762 c -2.11,-0.6914 -3.692,-2.586 -4.512,-4.1797"
         style="fill:#9f8c50;fill-opacity:1;fill-rule:nonzero;stroke:none"
         id="path38" />
      <path
         d="m 381.855,44.8828 c -1.64,0 -5.257,0 -6.281,-0.125 V 5.44922 h 5.461 c 15.41,0 19.723,10.38278 19.723,20.33208 0,8.1835 -4.781,19.1015 -18.903,19.1015 m 0.821,-42.97655 h -17.531 c 1.023,0.60547 1.769,1.57031 1.769,3.07422 V 45.2148 c 0,1.5821 -0.746,2.5508 -1.769,3.086 h 18.152 c 22.441,0 26.937,-15.8985 26.937,-22.5195 0,-11.8672 -9.148,-23.87505 -27.558,-23.87505"
         style="fill:#9f8c50;fill-opacity:1;fill-rule:nonzero;stroke:none"
         id="path40" />
      <path
         d="m 418.695,1.90625 c 1.078,0.60547 1.77,1.57031 1.77,3.07422 V 45.2148 c 0,1.5821 -0.692,2.5508 -1.77,3.086 h 12.34 c -1.156,-0.5352 -1.758,-1.5039 -1.758,-3.086 V 4.98047 c 0,-1.50391 0.602,-2.46875 1.758,-3.07422 h -12.34"
         style="fill:#9f8c50;fill-opacity:1;fill-rule:nonzero;stroke:none"
         id="path42" />
      <path
         d="m 464.742,44.6211 c -2.121,0 -13.164,0.2617 -13.164,0.2617 V 29.1992 h 10.645 c 1.093,0 2.175,1.0938 2.519,1.9063 v -7.2266 c -0.344,0.957 -1.426,1.9727 -2.519,1.9727 H 451.578 V 4.98047 c 0,-1.62891 0.684,-2.39063 1.973,-3.06641 h -12.684 c 1.297,0.67578 2.043,1.4375 2.043,3.06641 V 45.2148 c 0,1.5821 -0.82,2.5508 -2.043,3.086 h 28.992 l 0.34,-6.6211 c -0.82,1.6328 -2.254,2.8711 -5.457,2.9414"
         style="fill:#9f8c50;fill-opacity:1;fill-rule:nonzero;stroke:none"
         id="path44" />
      <path
         d="m 499.879,44.6211 c -2.109,0 -13.176,0.2617 -13.176,0.2617 V 29.1992 h 10.656 c 1.082,0 2.168,1.0938 2.52,1.9063 v -7.2266 c -0.352,0.957 -1.438,1.9727 -2.52,1.9727 H 486.703 V 4.98047 c 0,-1.62891 0.695,-2.39063 1.985,-3.06641 H 476 c 1.301,0.67578 2.043,1.4375 2.043,3.06641 V 45.2148 c 0,1.5821 -0.82,2.5508 -2.043,3.086 h 28.996 l 0.332,-6.6211 c -0.82,1.6328 -2.246,2.8711 -5.449,2.9414"
         style="fill:#9f8c50;fill-opacity:1;fill-rule:nonzero;stroke:none"
         id="path46" />
      <path
         d="m 540.465,1.90625 h -29.336 c 1.172,0.68359 2.051,1.44531 2.051,3.07422 V 45.2148 c 0,1.5821 -0.957,2.5508 -2.051,3.086 h 27.441 l 0.196,-6.0156 c -1.301,1.789 -2.735,2.3242 -5.332,2.4726 -2.032,0.125 -11.582,0.125 -11.582,0.125 V 29.1914 h 10.293 c 0.957,0 2.109,1.1016 2.449,1.9141 v -7.2266 c -0.34,0.957 -1.492,1.9727 -2.449,1.9727 H 521.852 V 5.78906 c 1.347,-0.20312 5.507,-0.40625 8.847,-0.34765 5.957,0.21484 8.692,0 11.211,4.30468 l -1.445,-7.83984"
         style="fill:#9f8c50;fill-opacity:1;fill-rule:nonzero;stroke:none"
         id="path48" />
      <path
         d="m 562.711,45.0195 c -2.051,0 -3.965,-0.1367 -3.965,-0.1367 V 27.082 c 0,0 1.914,-0.1484 3.067,-0.1484 4.648,0 9.57,2.5977 9.57,9.4922 0,3.1367 -1.914,8.5937 -8.672,8.5937 M 582.633,1.76953 c -2.598,-0.07031 -4.863,1.58203 -6.074,3.21094 -3.067,4.29687 -6.086,9.26953 -8.536,13.08593 -1.769,2.7461 -3.339,5.6758 -6.281,5.6758 -0.808,0 -2.996,-0.1484 -2.996,-0.1484 V 4.98047 c 0,-1.50391 0.75,-2.46875 1.914,-3.08594 h -12.344 c 1.075,0.61719 1.766,1.58203 1.766,3.08594 V 45.2148 c 0,1.5821 -0.691,2.5508 -1.766,3.086 h 14.727 c 14.129,0 17.332,-6.9024 17.332,-11.4649 0,-7.3632 -6.68,-11.0546 -11.531,-11.3867 4.648,-0.4765 6.679,-3.6211 7.715,-5.125 0,0 8.242,-12.90232 10.566,-15.68357 1.367,-1.57422 4.375,-2.7461 4.375,-2.7461 l -8.867,-0.125"
         style="fill:#9f8c50;fill-opacity:1;fill-rule:nonzero;stroke:none"
         id="path50" />
      <path
         d="m 621.781,1.90625 h -29.324 c 1.152,0.68359 2.031,1.44531 2.031,3.07422 V 45.2148 c 0,1.5821 -0.949,2.5508 -2.031,3.086 h 27.422 l 0.203,-6.0156 c -1.297,1.789 -2.723,2.3242 -5.332,2.4726 -2.039,0.125 -11.59,0.125 -11.59,0.125 V 29.1914 h 10.301 c 0.949,0 2.109,1.1016 2.453,1.9141 v -7.2266 c -0.344,0.957 -1.504,1.9727 -2.453,1.9727 H 603.16 V 5.78906 c 1.367,-0.20312 5.528,-0.40625 8.867,-0.34765 5.938,0.21484 8.672,0 11.192,4.30468 l -1.438,-7.83984"
         style="fill:#9f8c50;fill-opacity:1;fill-rule:nonzero;stroke:none"
         id="path52" />
      <path
         d="M 667.77,45.2148 V 0 c 0,0 -32.754,38.6055 -32.754,39.1602 V 4.98047 c 0,-1.50391 0.742,-2.46875 1.914,-3.07422 h -7.578 c 1.035,0.60547 1.777,1.57031 1.777,3.07422 V 41.3984 c 0,2.6758 0.059,2.7227 -1.231,4.3164 -0.683,0.8086 -1.64,1.7657 -3.066,2.586 h 11.738 l 25.176,-30.0274 v 26.9414 c 0,1.5821 -0.695,2.5508 -1.777,3.086 h 7.578 c -1.035,-0.5352 -1.777,-1.5039 -1.777,-3.086"
         style="fill:#9f8c50;fill-opacity:1;fill-rule:nonzero;stroke:none"
         id="path54" />
      <path
         d="m 709.652,44.4063 c 0,0 -6.211,0.4765 -11.191,0.4765 V 4.98047 c 0,-1.50391 0.754,-2.46875 1.769,-3.07422 h -12.207 c 1.094,0.60547 1.778,1.57031 1.778,3.07422 V 44.8828 c -5.051,0 -10.918,-0.4765 -10.918,-0.4765 -1.633,-0.0704 -2.793,-1.5743 -3.41,-2.7266 v 6.6211 h 37.375 v -6.6211 c -0.606,1.1523 -1.563,2.6562 -3.196,2.7266"
         style="fill:#9f8c50;fill-opacity:1;fill-rule:nonzero;stroke:none"
         id="path56" />
      <path
         d="m 745.074,46.6719 c 0,0 -2.316,0.1758 -4.179,0.1758 v -14.836 c 0,-0.5469 0.293,-0.9062 0.664,-1.1406 h -4.532 c 0.399,0.2344 0.664,0.5937 0.664,1.1406 v 14.836 c -1.875,0 -4.062,-0.1758 -4.062,-0.1758 -0.606,-0.0196 -1.035,-0.5781 -1.27,-1.0078 v 2.4609 h 13.907 v -2.4609 c -0.235,0.4297 -0.586,0.9882 -1.192,1.0078"
         style="fill:#9f8c50;fill-opacity:1;fill-rule:nonzero;stroke:none"
         id="path58" />
      <path
         d="m 763.148,30.8711 c 0.403,0.2344 0.657,0.5859 0.657,1.1406 v 12.7656 c 0,0.293 0.058,0.586 0.058,0.586 l -0.234,-0.586 -6.094,-14.2578 -6.133,13.8477 -0.175,0.6836 V 44.3672 32.0117 c 0,-0.5547 0.281,-0.9062 0.703,-1.1406 h -2.793 c 0.371,0.2344 0.652,0.5859 0.652,1.1406 v 14.9727 c 0,0.4765 -0.41,0.9453 -0.82,1.1328 h 4.465 l 5.078,-11.6328 4.883,11.6328 h 4.296 c -0.41,-0.1875 -0.664,-0.5586 -0.664,-1.1328 V 32.0117 c 0,-0.5547 0.254,-0.9062 0.664,-1.1406 h -4.543"
         style="fill:#9f8c50;fill-opacity:1;fill-rule:nonzero;stroke:none"
         id="path60" />
    </g>
  </g>
</svg>
