<?xml version="1.0" encoding="UTF-8" standalone="no"?>
<!-- Created with Inkscape (http://www.inkscape.org/) -->

<svg
   version="1.1"
   id="svg2"
   width="944.88"
   height="300.06668"
   viewBox="0 0 944.88 300.06668"
   sodipodi:docname="movenpick-seeklogo.com.eps"
   xmlns:inkscape="http://www.inkscape.org/namespaces/inkscape"
   xmlns:sodipodi="http://sodipodi.sourceforge.net/DTD/sodipodi-0.dtd"
   xmlns="http://www.w3.org/2000/svg"
   xmlns:svg="http://www.w3.org/2000/svg">
  <defs
     id="defs6">
    <clipPath
       clipPathUnits="userSpaceOnUse"
       id="clipPath40">
      <path
         d="m 4170.5,2003.45 c -61.57,-41.32 -98.03,-65.63 -103.29,-69.09 68.91,-26.83 131.39,-32.6 194.79,-24.05 v 0 c 19.06,20.93 28.45,31.55 44.6,49.46 118.54,131.51 188.87,126.45 221.33,128.83 -48.68,24.12 -179.74,34.14 -357.43,-85.15 z"
         id="path38" />
    </clipPath>
    <linearGradient
       x1="0"
       y1="0"
       x2="1"
       y2="0"
       gradientUnits="userSpaceOnUse"
       gradientTransform="matrix(-415.738,-829.469,-829.469,415.738,4540.89,2496.95)"
       spreadMethod="pad"
       id="linearGradient46">
      <stop
         style="stop-opacity:1;stop-color:#ffffff"
         offset="0"
         id="stop42" />
      <stop
         style="stop-opacity:1;stop-color:#6d5f2f"
         offset="1"
         id="stop44" />
    </linearGradient>
    <clipPath
       clipPathUnits="userSpaceOnUse"
       id="clipPath56">
      <path
         d="m 4052.84,1925.11 c -75.82,30.27 -159.71,85.72 -261.82,174.99 -147.75,129.14 -287.74,141.57 -376.51,130.69 61.25,-18.56 169.48,-66.94 291.3,-214.18 63.58,-76.84 122.32,-126.56 174.96,-157.97 0.08,-0.02 0.18,-0.04 0.27,-0.06 -0.05,0.03 -0.09,0.05 -0.13,0.08 11.14,1.09 86.9,7.52 171.93,66.45 z"
         id="path54" />
    </clipPath>
    <linearGradient
       x1="0"
       y1="0"
       x2="1"
       y2="0"
       gradientUnits="userSpaceOnUse"
       gradientTransform="matrix(74.9369,778.25,778.25,-74.9369,3694.7,1673.19)"
       spreadMethod="pad"
       id="linearGradient62">
      <stop
         style="stop-opacity:1;stop-color:#ffffff"
         offset="0"
         id="stop58" />
      <stop
         style="stop-opacity:1;stop-color:#6d5f2f"
         offset="1"
         id="stop60" />
    </linearGradient>
    <clipPath
       clipPathUnits="userSpaceOnUse"
       id="clipPath72">
      <path
         d="m 4052.84,1925.11 c -85.05,-58.95 -160.92,-65.37 -172.07,-66.47 1.43,-0.86 2.98,-1.71 4.41,-2.55 181.7,-107.79 319.75,-0.71 362.72,40.01 l 3.03,2.91 v 0 c -64.43,-8.35 -127.81,-1.95 -198.09,26.1 z"
         id="path70" />
    </clipPath>
    <linearGradient
       x1="0"
       y1="0"
       x2="1"
       y2="0"
       gradientUnits="userSpaceOnUse"
       gradientTransform="matrix(662.095,-238.263,-238.263,-662.095,3622.58,2034.27)"
       spreadMethod="pad"
       id="linearGradient78">
      <stop
         style="stop-opacity:1;stop-color:#ffffff"
         offset="0"
         id="stop74" />
      <stop
         style="stop-opacity:1;stop-color:#6d5f2f"
         offset="1"
         id="stop76" />
    </linearGradient>
    <clipPath
       clipPathUnits="userSpaceOnUse"
       id="clipPath88">
      <path
         d="m 4067.21,1934.36 c -77.48,30.15 -163.09,86.92 -267.23,179.89 -175.13,156.33 -340.93,144.45 -420.09,125.51 8.74,-1.96 20.42,-4.66 34.62,-8.97 88.77,10.88 228.76,-1.55 376.51,-130.69 196.78,-172.02 325.91,-218.51 459.91,-201.09 1.74,1.72 11.07,11.3 11.07,11.3 -63.4,-8.55 -125.88,-2.78 -194.79,24.05 z"
         id="path86" />
    </clipPath>
    <linearGradient
       x1="0"
       y1="0"
       x2="1"
       y2="0"
       gradientUnits="userSpaceOnUse"
       gradientTransform="matrix(882.109,0,0,-882.109,3379.89,2073.06)"
       spreadMethod="pad"
       id="linearGradient94">
      <stop
         style="stop-opacity:1;stop-color:#e9e4d4"
         offset="0"
         id="stop90" />
      <stop
         style="stop-opacity:1;stop-color:#6d5f2f"
         offset="1"
         id="stop92" />
    </linearGradient>
  </defs>
  <sodipodi:namedview
     id="namedview4"
     pagecolor="#ffffff"
     bordercolor="#000000"
     borderopacity="0.25"
     inkscape:showpageshadow="2"
     inkscape:pageopacity="0.0"
     inkscape:pagecheckerboard="0"
     inkscape:deskcolor="#d1d1d1" />
  <g
     id="g8"
     inkscape:groupmode="layer"
     inkscape:label="ink_ext_XXXXXX"
     transform="matrix(1.3333333,0,0,-1.3333333,0,300.06667)">
    <g
       id="g10"
       transform="scale(0.1)">
      <path
         d="m 1785.23,969.281 c -234.85,0 -270.66,223.399 -270.66,299.299 0,75.9 35.81,293.57 270.66,293.57 234.86,0 269.23,-217.67 269.23,-293.57 0,-75.9 -34.37,-299.299 -269.23,-299.299 z m 0,721.749 c -320.78,0 -412.43,-249.17 -412.43,-422.45 0,-179.01 91.65,-428.189 412.43,-428.189 320.79,0 412.44,249.179 412.44,428.189 0,173.28 -91.65,422.45 -412.44,422.45"
         style="fill:#ad0c3c;fill-opacity:1;fill-rule:nonzero;stroke:none"
         id="path12" />
      <path
         d="m 2580.02,1121.08 -231.99,561.37 H 2197.67 L 2574.3,838.961 h 11.45 l 376.63,843.489 h -151.79 l -230.57,-561.37"
         style="fill:#ad0c3c;fill-opacity:1;fill-rule:nonzero;stroke:none"
         id="path14" />
      <path
         d="m 3048.29,846.121 h 557.07 V 973.57 h -415.29 v 221.98 h 325.08 V 1323 h -325.08 v 233.42 h 415.29 v 126.03 H 3048.29 V 846.121"
         style="fill:#ad0c3c;fill-opacity:1;fill-rule:nonzero;stroke:none"
         id="path16" />
      <path
         d="m 4280.74,1172.63 -532.71,521.27 -5.74,-2.87 V 846.121 h 143.21 v 509.819 l 529.86,-522.71 8.6,2.872 v 846.348 h -143.22 v -509.82"
         style="fill:#ad0c3c;fill-opacity:1;fill-rule:nonzero;stroke:none"
         id="path18" />
      <path
         d="m 4904.52,1278.6 h -183.3 v 279.26 h 179 c 118.86,0 146.08,-91.66 146.08,-138.91 0,-44.4 -27.22,-140.35 -141.78,-140.35 z m -11.45,403.85 H 4579.44 V 846.121 h 141.78 v 303.599 h 189.03 c 133.18,0 276.39,105.97 276.39,269.23 0,108.83 -68.74,263.5 -293.57,263.5"
         style="fill:#ad0c3c;fill-opacity:1;fill-rule:nonzero;stroke:none"
         id="path20" />
      <path
         d="m 5303.43,846.121 h 143.2 v 836.329 h -143.2 V 846.121"
         style="fill:#ad0c3c;fill-opacity:1;fill-rule:nonzero;stroke:none"
         id="path22" />
      <path
         d="m 5992.39,1569.31 c 85.93,0 173.28,-51.55 223.41,-105.97 l 93.08,90.22 c -80.19,87.35 -174.71,144.64 -316.49,144.64 -319.35,0 -413.86,-257.78 -413.86,-429.62 0,-179.01 94.51,-435.35 413.86,-435.35 137.48,0 233.43,48.688 313.63,128.891 l -83.06,103.109 c -54.42,-51.56 -137.48,-100.25 -230.57,-100.25 -234.85,4.301 -270.65,226.27 -270.65,303.6 0,75.9 35.8,300.73 270.65,300.73"
         style="fill:#ad0c3c;fill-opacity:1;fill-rule:nonzero;stroke:none"
         id="path24" />
      <path
         d="m 6674.19,1278.6 385.22,399.55 -1.43,4.3 h -171.85 l -317.92,-332.24 v 332.24 H 6426.44 V 846.121 h 141.77 V 1211.3 l 343.7,-365.179 h 173.28 l 1.43,4.297 -412.43,428.182"
         style="fill:#ad0c3c;fill-opacity:1;fill-rule:nonzero;stroke:none"
         id="path26" />
      <path
         d="m 1592.37,1781.03 c 45.44,0 82.41,36.96 82.41,82.4 0,45.43 -36.97,82.4 -82.41,82.4 -45.44,0 -82.4,-36.97 -82.4,-82.4 0,-45.44 36.96,-82.4 82.4,-82.4"
         style="fill:#ad0c3c;fill-opacity:1;fill-rule:nonzero;stroke:none"
         id="path28" />
      <path
         d="m 1934.34,1781.03 c 45.43,0 82.4,36.96 82.4,82.4 0,45.43 -36.97,82.4 -82.4,82.4 -45.44,0 -82.42,-36.97 -82.42,-82.4 0,-45.44 36.98,-82.4 82.42,-82.4"
         style="fill:#ad0c3c;fill-opacity:1;fill-rule:nonzero;stroke:none"
         id="path30" />
      <path
         d="M 1005.22,1857.16 680.359,1154.03 355.496,1857.16 H 345.449 L 0,847.512 h 47.8125 c 0,0 110.8985,-2.121 143.6795,98.629 L 368.113,1482.03 674.629,834.621 v 0 0 h 11.457 v 0 0 L 992.605,1482.03 1169.22,946.141 c 32.78,-100.75 143.69,-98.629 143.69,-98.629 h 47.8 L 1015.26,1857.16 h -10.04"
         style="fill:#ad0c3c;fill-opacity:1;fill-rule:nonzero;stroke:none"
         id="path32" />
      <g
         id="g34">
        <g
           id="g36"
           clip-path="url(#clipPath40)">
          <path
             d="m 4170.5,2003.45 c -61.57,-41.32 -98.03,-65.63 -103.29,-69.09 68.91,-26.83 131.39,-32.6 194.79,-24.05 v 0 c 19.06,20.93 28.45,31.55 44.6,49.46 118.54,131.51 188.87,126.45 221.33,128.83 -48.68,24.12 -179.74,34.14 -357.43,-85.15"
             style="fill:url(#linearGradient46);fill-opacity:1;fill-rule:nonzero;stroke:none"
             id="path48" />
        </g>
      </g>
      <g
         id="g50">
        <g
           id="g52"
           clip-path="url(#clipPath56)">
          <path
             d="m 4052.84,1925.11 c -75.82,30.27 -159.71,85.72 -261.82,174.99 -147.75,129.14 -287.74,141.57 -376.51,130.69 61.25,-18.56 169.48,-66.94 291.3,-214.18 63.58,-76.84 122.32,-126.56 174.96,-157.97 0.08,-0.02 0.18,-0.04 0.27,-0.06 -0.05,0.03 -0.09,0.05 -0.13,0.08 11.14,1.09 86.9,7.52 171.93,66.45"
             style="fill:url(#linearGradient62);fill-opacity:1;fill-rule:nonzero;stroke:none"
             id="path64" />
        </g>
      </g>
      <g
         id="g66">
        <g
           id="g68"
           clip-path="url(#clipPath72)">
          <path
             d="m 4052.84,1925.11 c -85.05,-58.95 -160.92,-65.37 -172.07,-66.47 1.43,-0.86 2.98,-1.71 4.41,-2.55 181.7,-107.79 319.75,-0.71 362.72,40.01 l 3.03,2.91 v 0 c -64.43,-8.35 -127.81,-1.95 -198.09,26.1"
             style="fill:url(#linearGradient78);fill-opacity:1;fill-rule:nonzero;stroke:none"
             id="path80" />
        </g>
      </g>
      <g
         id="g82">
        <g
           id="g84"
           clip-path="url(#clipPath88)">
          <path
             d="m 4067.21,1934.36 c -77.48,30.15 -163.09,86.92 -267.23,179.89 -175.13,156.33 -340.93,144.45 -420.09,125.51 8.74,-1.96 20.42,-4.66 34.62,-8.97 88.77,10.88 228.76,-1.55 376.51,-130.69 196.78,-172.02 325.91,-218.51 459.91,-201.09 1.74,1.72 11.07,11.3 11.07,11.3 -63.4,-8.55 -125.88,-2.78 -194.79,24.05"
             style="fill:url(#linearGradient94);fill-opacity:1;fill-rule:nonzero;stroke:none"
             id="path96" />
        </g>
      </g>
      <path
         d="M 246.355,9.51172 V 165.012 H 74.3438 V 9.51172 h -46 V 347.02 h 46 v -143 H 246.355 v 143 h 46.004 V 9.51172 h -46.004"
         style="fill:#ad0c3c;fill-opacity:1;fill-rule:nonzero;stroke:none"
         id="path98" />
      <path
         d="m 564.848,311.531 c -56.004,0 -106.004,-45.511 -106.004,-130.511 0,-80.508 34.004,-135.5083 105.508,-135.5083 55,0 107.003,44 107.003,131.0083 0,86.5 -39,135.011 -106.507,135.011 z m -4.5,-307.01928 c -101.504,0 -150.508,67.49998 -150.508,170.00028 0,112.508 72.008,177.508 160.008,177.508 91.007,0 150.507,-59 150.507,-170.008 0,-112.5003 -72,-177.50028 -160.007,-177.50028"
         style="fill:#ad0c3c;fill-opacity:1;fill-rule:nonzero;stroke:none"
         id="path100" />
      <path
         d="M 925.844,308.52 V 9.51172 H 879.84 V 308.52 h -97.008 v 38.5 h 240.518 v -38.5 h -97.506"
         style="fill:#ad0c3c;fill-opacity:1;fill-rule:nonzero;stroke:none"
         id="path102" />
      <path
         d="M 1123.33,9.51172 V 347.02 h 173.51 v -37.989 h -127.5 V 202.012 h 121.5 v -37 h -121.5 V 48.0117 h 127.5 V 9.51172 h -173.51"
         style="fill:#ad0c3c;fill-opacity:1;fill-rule:nonzero;stroke:none"
         id="path104" />
      <path
         d="M 1427.83,9.51172 V 347.02 h 46 V 49.0117 h 121.01 V 9.51172 h -167.01"
         style="fill:#ad0c3c;fill-opacity:1;fill-rule:nonzero;stroke:none"
         id="path106" />
      <path
         d="m 1747.84,5 c -27.5,0 -53.01,3.51172 -74.01,9.5117 l 5.51,44 C 1700.83,50 1725.34,45 1750.34,45 c 39,0 73,16.0117 73,57.512 0,76.008 -152.51,46 -152.51,153.508 0,55.511 42.01,95.511 118.01,95.511 19.5,0 42,-2.011 61,-6.511 l -5.49,-40.5 c -18.01,5.5 -38.51,9 -58.01,9 -46,0 -68.01,-20.5 -68.01,-52.5 0,-73 154.52,-46.508 154.52,-152.508 C 1872.85,48.0117 1823.34,5 1747.84,5"
         style="fill:#ad0c3c;fill-opacity:1;fill-rule:nonzero;stroke:none"
         id="path108" />
      <path
         d="m 2249.83,343.531 c -23.51,0 -40.5,-16.511 -40.5,-39.5 0,-16.511 9.49,-35.511 36.5,-66.511 28,23 43,42.5 43,68 0,20.511 -11.5,38.011 -39,38.011 z m -12.51,-159.019 c -35,-27.992 -49.5,-50.492 -49.5,-76.5 0,-35.0003 27.5,-65.0003 71.51,-65.0003 40,0 71,16 92.5,34.5 -41,33.5003 -87,77.0003 -114.51,107.0003 z M 2454.34,0 c -24,16.5117 -52.01,37.0117 -71.01,53.0117 -32.5,-28.5 -77,-48.49998 -132,-48.49998 -72.01,0 -109.51,42.98828 -109.51,98.00028 0,45.5 28.5,76.508 69.5,108.508 -35,40.5 -46.5,63.5 -46.5,91 0,40.5 31.5,75.5 89.01,75.5 52,0 80,-28.489 80,-67.5 0,-34 -17.5,-63.5 -62.5,-98.5 29,-30 72,-70.508 110.51,-101.508 v -0.5 c 22,31 36.49,74.508 33.99,124.008 h 45.01 c 1.5,-56.508 -15,-108.508 -46,-148.5083 25,-19.5 50.5,-38 68.5,-50.5 L 2454.34,0"
         style="fill:#ad0c3c;fill-opacity:1;fill-rule:nonzero;stroke:none"
         id="path110" />
      <path
         d="m 2847.32,311.531 c -11.5,0 -21.5,-0.511 -30.5,-1.011 v -115 c 5,-0.508 15,-1.008 28.5,-1.008 48.5,0 76.51,24.508 76.51,60.508 0,40.5 -25.51,56.511 -74.51,56.511 z M 2933.33,9.51172 2822.82,161.02 h -6 V 9.51172 h -46 V 347.02 c 23,1.511 47.5,2.011 84.5,2.011 66.51,0 114.51,-23.511 114.51,-88.011 0,-57.5 -45.5,-91.008 -99,-95 9.5,-12 20.49,-24.5 28.99,-36.008 L 2991.83,9.51172 h -58.5"
         style="fill:#ad0c3c;fill-opacity:1;fill-rule:nonzero;stroke:none"
         id="path112" />
      <path
         d="M 3106.81,9.51172 V 347.02 h 173.52 V 309.031 H 3152.82 V 202.012 h 121.5 v -37 h -121.5 V 48.0117 h 127.51 V 9.51172 h -173.52"
         style="fill:#ad0c3c;fill-opacity:1;fill-rule:nonzero;stroke:none"
         id="path114" />
      <path
         d="m 3471.31,5 c -27.51,0 -53,3.51172 -74,9.5117 l 5.5,44 C 3424.31,50 3448.8,45 3473.81,45 c 39,0 73,16.0117 73,57.512 0,76.008 -152.51,46 -152.51,153.508 0,55.511 42,95.511 118.01,95.511 19.5,0 42,-2.011 61,-6.511 l -5.49,-40.5 c -18,5.5 -38.51,9 -58.01,9 -46,0 -68,-20.5 -68,-52.5 0,-73 154.51,-46.508 154.51,-152.508 C 3596.32,48.0117 3546.81,5 3471.31,5"
         style="fill:#ad0c3c;fill-opacity:1;fill-rule:nonzero;stroke:none"
         id="path116" />
      <path
         d="m 3850.3,311.531 c -55.99,0 -105.99,-45.511 -105.99,-130.511 0,-80.508 34,-135.5083 105.5,-135.5083 55,0 107.02,44 107.02,131.0083 0,86.5 -39.01,135.011 -106.53,135.011 z M 3845.81,4.51172 c -101.5,0 -150.51,67.49998 -150.51,170.00028 0,112.508 72.01,177.508 160.02,177.508 91,0 150.51,-59 150.51,-170.008 0,-112.5003 -72.01,-177.50028 -160.02,-177.50028"
         style="fill:#ad0c3c;fill-opacity:1;fill-rule:nonzero;stroke:none"
         id="path118" />
      <path
         d="m 4199.79,311.531 c -11.48,0 -21.48,-0.511 -30.48,-1.011 v -115 c 5,-0.508 15,-1.008 28.49,-1.008 48.5,0 76.51,24.508 76.51,60.508 0,40.5 -25.51,56.511 -74.52,56.511 z M 4285.81,9.51172 4175.3,161.02 h -5.99 V 9.51172 h -46.02 V 347.02 c 23.01,1.511 47.52,2.011 84.51,2.011 66.51,0 114.51,-23.511 114.51,-88.011 0,-57.5 -45.5,-91.008 -99,-95 9.49,-12 20.49,-24.5 29,-36.008 l 92,-120.50028 h -58.5"
         style="fill:#ad0c3c;fill-opacity:1;fill-rule:nonzero;stroke:none"
         id="path120" />
      <path
         d="M 4548.29,308.52 V 9.51172 h -46 V 308.52 h -97.01 v 38.5 h 240.51 v -38.5 h -97.5"
         style="fill:#ad0c3c;fill-opacity:1;fill-rule:nonzero;stroke:none"
         id="path122" />
      <path
         d="m 4799.79,5 c -27.5,0 -53,3.51172 -74,9.5117 l 5.51,44 C 4752.8,50 4777.29,45 4802.29,45 c 39.01,0 73.01,16.0117 73.01,57.512 0,76.008 -152.52,46 -152.52,153.508 0,55.511 42.01,95.511 118.01,95.511 19.51,0 42.01,-2.011 61.02,-6.511 l -5.51,-40.5 c -17.99,5.5 -38.5,9 -58.01,9 -46,0 -67.99,-20.5 -67.99,-52.5 0,-73 154.49,-46.508 154.49,-152.508 C 4924.79,48.0117 4875.3,5 4799.79,5"
         style="fill:#ad0c3c;fill-opacity:1;fill-rule:nonzero;stroke:none"
         id="path124" />
    </g>
  </g>
</svg>
