<svg width="403" height="120" viewBox="0 0 403 120" fill="none" xmlns="http://www.w3.org/2000/svg">
<rect x="3.5" y="3.5" width="396" height="113" stroke="white" stroke-width="7"/>
<path d="M45.2321 82H36.164L47.9424 47.0909H59.1753L70.9537 82H61.8855L53.6867 55.8864H53.414L45.2321 82ZM44.0219 68.2614H62.9765V74.6705H44.0219V68.2614ZM74.7591 82V55.8182H83.0944V82H74.7591ZM78.9353 52.767C77.7648 52.767 76.7591 52.3807 75.9182 51.608C75.0773 50.8239 74.6569 49.8807 74.6569 48.7784C74.6569 47.6875 75.0773 46.7557 75.9182 45.983C76.7591 45.1989 77.7648 44.8068 78.9353 44.8068C80.1171 44.8068 81.1228 45.1989 81.9523 45.983C82.7932 46.7557 83.2137 47.6875 83.2137 48.7784C83.2137 49.8807 82.7932 50.8239 81.9523 51.608C81.1228 52.3807 80.1171 52.767 78.9353 52.767ZM88.3998 82V55.8182H96.4963V60.5909H96.7691C97.2463 58.8636 98.0248 57.5795 99.1043 56.7386C100.184 55.8864 101.44 55.4602 102.871 55.4602C103.258 55.4602 103.655 55.4886 104.065 55.5455C104.474 55.5909 104.854 55.6648 105.207 55.767V63.0114C104.809 62.875 104.286 62.767 103.638 62.6875C103.002 62.608 102.434 62.5682 101.934 62.5682C100.945 62.5682 100.053 62.7898 99.2577 63.233C98.4736 63.6648 97.8543 64.2727 97.3998 65.0568C96.9566 65.8295 96.735 66.7386 96.735 67.7841V82H88.3998ZM116.938 67.0682V82H108.603V55.8182H116.529V60.625H116.819C117.398 59.0227 118.387 57.767 119.785 56.858C121.182 55.9375 122.847 55.4773 124.779 55.4773C126.62 55.4773 128.217 55.892 129.569 56.7216C130.932 57.5398 131.989 58.6875 132.739 60.1648C133.501 61.6307 133.876 63.3466 133.864 65.3125V82H125.529V66.9489C125.54 65.4943 125.171 64.358 124.421 63.5398C123.682 62.7216 122.654 62.3125 121.336 62.3125C120.461 62.3125 119.688 62.5057 119.018 62.892C118.359 63.267 117.847 63.8068 117.484 64.5114C117.131 65.2159 116.949 66.0682 116.938 67.0682ZM151.263 82.4943C148.525 82.4943 146.161 81.9545 144.172 80.875C142.195 79.7841 140.672 78.233 139.604 76.2216C138.547 74.1989 138.019 71.7955 138.019 69.0114C138.019 66.3068 138.553 63.9432 139.621 61.9205C140.69 59.8864 142.195 58.3068 144.138 57.1818C146.082 56.0455 148.371 55.4773 151.008 55.4773C152.871 55.4773 154.576 55.767 156.121 56.3466C157.667 56.9261 159.002 57.7841 160.127 58.9205C161.252 60.0568 162.127 61.4602 162.752 63.1307C163.377 64.7898 163.69 66.6932 163.69 68.8409V70.9205H140.934V66.0795H155.934C155.922 65.1932 155.712 64.4034 155.303 63.7102C154.894 63.017 154.332 62.4773 153.616 62.0909C152.911 61.6932 152.099 61.4943 151.178 61.4943C150.246 61.4943 149.411 61.7045 148.672 62.125C147.934 62.5341 147.349 63.0966 146.917 63.8125C146.485 64.517 146.258 65.3182 146.235 66.2159V71.142C146.235 72.2102 146.445 73.1477 146.866 73.9545C147.286 74.75 147.883 75.3693 148.655 75.8125C149.428 76.2557 150.349 76.4773 151.417 76.4773C152.155 76.4773 152.826 76.375 153.428 76.1705C154.03 75.9659 154.547 75.6648 154.979 75.267C155.411 74.8693 155.735 74.3807 155.951 73.8011L163.604 74.0227C163.286 75.7386 162.587 77.233 161.508 78.5057C160.44 79.767 159.036 80.75 157.297 81.4545C155.559 82.1477 153.547 82.4943 151.263 82.4943ZM182.725 55.8182V61.9545H166.208V55.8182H182.725ZM169.668 49.5455H178.003V73.767C178.003 74.2784 178.083 74.6932 178.242 75.0114C178.413 75.3182 178.657 75.5398 178.975 75.6761C179.293 75.8011 179.674 75.8636 180.117 75.8636C180.435 75.8636 180.77 75.8352 181.123 75.7784C181.486 75.7102 181.759 75.6534 181.941 75.608L183.202 81.625C182.805 81.7386 182.242 81.8807 181.515 82.0511C180.799 82.2216 179.941 82.3295 178.941 82.375C176.986 82.4659 175.31 82.2386 173.913 81.6932C172.526 81.1364 171.464 80.2727 170.725 79.1023C169.998 77.9318 169.645 76.4602 169.668 74.6875V49.5455ZM196.148 53.9432V47.0909H225.654V53.9432H215.069V82H206.751V53.9432H196.148ZM227.056 82V55.8182H235.153V60.5909H235.425C235.903 58.8636 236.681 57.5795 237.761 56.7386C238.84 55.8864 240.096 55.4602 241.528 55.4602C241.914 55.4602 242.312 55.4886 242.721 55.5455C243.13 55.5909 243.511 55.6648 243.863 55.767V63.0114C243.465 62.875 242.942 62.767 242.295 62.6875C241.658 62.608 241.09 62.5682 240.59 62.5682C239.601 62.5682 238.709 62.7898 237.914 63.233C237.13 63.6648 236.511 64.2727 236.056 65.0568C235.613 65.8295 235.391 66.7386 235.391 67.7841V82H227.056ZM253.655 82.4432C251.985 82.4432 250.502 82.1648 249.207 81.608C247.922 81.0398 246.905 80.1875 246.155 79.0511C245.417 77.9034 245.047 76.4659 245.047 74.7386C245.047 73.2841 245.303 72.0568 245.815 71.0568C246.326 70.0568 247.03 69.2443 247.928 68.6193C248.826 67.9943 249.86 67.5227 251.03 67.2045C252.201 66.875 253.451 66.6534 254.78 66.5398C256.269 66.4034 257.468 66.2614 258.377 66.1136C259.286 65.9545 259.945 65.733 260.354 65.4489C260.775 65.1534 260.985 64.7386 260.985 64.2045V64.1193C260.985 63.2443 260.684 62.5682 260.082 62.0909C259.479 61.6136 258.667 61.375 257.644 61.375C256.542 61.375 255.655 61.6136 254.985 62.0909C254.315 62.5682 253.888 63.2273 253.707 64.0682L246.019 63.7955C246.246 62.2045 246.832 60.7841 247.775 59.5341C248.729 58.2727 250.036 57.2841 251.695 56.5682C253.366 55.8409 255.371 55.4773 257.712 55.4773C259.383 55.4773 260.922 55.6761 262.332 56.0739C263.741 56.4602 264.968 57.0284 266.013 57.7784C267.059 58.517 267.866 59.4261 268.434 60.5057C269.013 61.5852 269.303 62.8182 269.303 64.2045V82H261.462V78.3523H261.258C260.792 79.2386 260.195 79.9886 259.468 80.6023C258.752 81.2159 257.905 81.6761 256.928 81.983C255.962 82.2898 254.871 82.4432 253.655 82.4432ZM256.229 76.9886C257.127 76.9886 257.934 76.8068 258.65 76.4432C259.377 76.0795 259.957 75.5795 260.388 74.9432C260.82 74.2955 261.036 73.5455 261.036 72.6932V70.2045C260.797 70.3295 260.508 70.4432 260.167 70.5455C259.837 70.6477 259.474 70.7443 259.076 70.8352C258.678 70.9261 258.269 71.0057 257.849 71.0739C257.428 71.142 257.025 71.2045 256.638 71.2614C255.854 71.3864 255.184 71.5795 254.627 71.8409C254.082 72.1023 253.661 72.4432 253.366 72.8636C253.082 73.2727 252.94 73.7614 252.94 74.3295C252.94 75.1932 253.246 75.8523 253.86 76.3068C254.485 76.7614 255.275 76.9886 256.229 76.9886ZM298.86 55.8182L289.877 82H280.332L271.366 55.8182H280.144L284.968 73.8523H285.241L290.082 55.8182H298.86ZM313.451 82.4943C310.712 82.4943 308.349 81.9545 306.36 80.875C304.383 79.7841 302.86 78.233 301.792 76.2216C300.735 74.1989 300.207 71.7955 300.207 69.0114C300.207 66.3068 300.741 63.9432 301.809 61.9205C302.877 59.8864 304.383 58.3068 306.326 57.1818C308.269 56.0455 310.559 55.4773 313.195 55.4773C315.059 55.4773 316.763 55.767 318.309 56.3466C319.854 56.9261 321.19 57.7841 322.315 58.9205C323.44 60.0568 324.315 61.4602 324.94 63.1307C325.565 64.7898 325.877 66.6932 325.877 68.8409V70.9205H303.121V66.0795H318.121C318.11 65.1932 317.9 64.4034 317.491 63.7102C317.082 63.017 316.519 62.4773 315.803 62.0909C315.099 61.6932 314.286 61.4943 313.366 61.4943C312.434 61.4943 311.599 61.7045 310.86 62.125C310.121 62.5341 309.536 63.0966 309.104 63.8125C308.672 64.517 308.445 65.3182 308.422 66.2159V71.142C308.422 72.2102 308.633 73.1477 309.053 73.9545C309.474 74.75 310.07 75.3693 310.843 75.8125C311.616 76.2557 312.536 76.4773 313.604 76.4773C314.343 76.4773 315.013 76.375 315.616 76.1705C316.218 75.9659 316.735 75.6648 317.167 75.267C317.599 74.8693 317.922 74.3807 318.138 73.8011L325.792 74.0227C325.474 75.7386 324.775 77.233 323.695 78.5057C322.627 79.767 321.224 80.75 319.485 81.4545C317.746 82.1477 315.735 82.4943 313.451 82.4943ZM338.469 47.0909V82H330.134V47.0909H338.469ZM366.633 63.8125L358.979 64.017C358.9 63.4716 358.684 62.9886 358.332 62.5682C357.979 62.1364 357.519 61.8011 356.951 61.5625C356.394 61.3125 355.746 61.1875 355.008 61.1875C354.042 61.1875 353.218 61.3807 352.536 61.767C351.866 62.1534 351.536 62.6761 351.547 63.3352C351.536 63.8466 351.741 64.2898 352.161 64.6648C352.593 65.0398 353.36 65.3409 354.462 65.5682L359.508 66.5227C362.121 67.0227 364.065 67.8523 365.337 69.0114C366.621 70.1705 367.269 71.7045 367.28 73.6136C367.269 75.4091 366.735 76.9716 365.678 78.3011C364.633 79.6307 363.201 80.6648 361.383 81.4034C359.565 82.1307 357.485 82.4943 355.144 82.4943C351.405 82.4943 348.457 81.7273 346.297 80.1932C344.15 78.6477 342.922 76.5795 342.616 73.9886L350.849 73.7841C351.03 74.7386 351.502 75.4659 352.263 75.9659C353.025 76.4659 353.996 76.7159 355.178 76.7159C356.246 76.7159 357.116 76.517 357.786 76.1193C358.457 75.7216 358.797 75.1932 358.809 74.5341C358.797 73.9432 358.536 73.4716 358.025 73.1193C357.513 72.7557 356.712 72.4716 355.621 72.267L351.053 71.3977C348.428 70.9205 346.474 70.0398 345.19 68.7557C343.905 67.4602 343.269 65.8125 343.28 63.8125C343.269 62.0625 343.735 60.5682 344.678 59.3295C345.621 58.0795 346.962 57.125 348.701 56.4659C350.44 55.8068 352.491 55.4773 354.854 55.4773C358.4 55.4773 361.195 56.2216 363.241 57.7102C365.286 59.1875 366.417 61.2216 366.633 63.8125Z" fill="white"/>
</svg>
