<svg width="994" height="423" viewBox="0 0 994 423" fill="none" xmlns="http://www.w3.org/2000/svg">
<g clip-path="url(#clip0_991_177)">
<path d="M608.038 422.322H386.63C380.369 422.322 375.275 417.228 375.275 410.967V11.3553C375.275 5.09431 380.368 0 386.63 0H608.038C614.299 0 619.393 5.09431 619.393 11.3553V410.967C619.393 417.228 614.299 422.322 608.038 422.322ZM473.168 1.89625C420.15 1.89625 377.171 44.8757 377.171 97.8935V410.967C377.171 416.191 381.406 420.426 386.63 420.426H608.038C613.262 420.426 617.497 416.191 617.497 410.967V11.3553C617.497 6.13118 613.262 1.89624 608.038 1.89624L473.168 1.89625Z" fill="#E6E6E6"/>
<path d="M618.244 105.309C618.244 105.986 619.003 106.53 619.948 106.53H912.471C913.416 106.53 914.175 105.986 914.175 105.309C914.175 104.633 913.416 104.089 912.471 104.089H619.948C619.003 104.089 618.244 104.633 618.244 105.309Z" fill="#E6E6E6"/>
<path d="M380.339 279.582L383.234 356.301H376.187V364.986H395.883V356.301H390.138L390.549 279.582H380.339Z" fill="black"/>
<path d="M372.739 343.997C375.737 343.997 378.168 346.427 378.168 349.425V371.862C378.168 374.86 375.737 377.29 372.739 377.29C369.741 377.29 367.311 374.86 367.311 371.862V349.425C367.311 346.427 369.741 343.997 372.739 343.997Z" fill="black"/>
<path d="M400.242 343.997C403.24 343.997 405.671 346.427 405.671 349.425V371.862C405.671 374.86 403.24 377.29 400.242 377.29C397.245 377.29 394.814 374.86 394.814 371.862V349.425C394.814 346.427 397.245 343.997 400.242 343.997Z" fill="black"/>
<path d="M444.392 231.781L332.932 226.715L350.303 218.754L448.011 220.201L444.392 231.781Z" fill="#008374"/>
<path d="M0 243.032L13.4609 237.965L431.364 248.822L448.735 240.86L441.497 290.076L109.538 254.704L0 243.032Z" fill="#008374"/>
<path d="M107.479 271.62L109.538 254.704L441.497 290.076L439.688 315.046L107.479 271.62Z" fill="black"/>
<path d="M330.761 321.56C349.748 321.56 365.14 305.196 365.14 285.01C365.14 264.824 349.748 248.46 330.761 248.46C311.774 248.46 296.382 264.824 296.382 285.01C296.382 305.196 311.774 321.56 330.761 321.56Z" fill="black"/>
<path d="M330.761 303.828C344.751 303.828 356.093 292.486 356.093 278.496C356.093 264.506 344.751 253.164 330.761 253.164C316.771 253.164 305.429 264.506 305.429 278.496C305.429 292.486 316.771 303.828 330.761 303.828Z" fill="#008374"/>
<path d="M613.391 279.582L610.496 356.301H617.543V364.986H597.848V356.301H603.592L603.182 279.582H613.391Z" fill="black"/>
<path d="M620.991 343.997H620.991C617.993 343.997 615.562 346.427 615.562 349.425V371.862C615.562 374.86 617.993 377.29 620.991 377.29H620.991C623.989 377.29 626.419 374.86 626.419 371.862V349.425C626.419 346.427 623.989 343.997 620.991 343.997Z" fill="black"/>
<path d="M593.488 343.997H593.488C590.49 343.997 588.06 346.427 588.06 349.425V371.862C588.06 374.86 590.49 377.29 593.488 377.29H593.488C596.486 377.29 598.916 374.86 598.916 371.862V349.425C598.916 346.427 596.486 343.997 593.488 343.997Z" fill="black"/>
<path d="M549.338 231.781L660.798 226.715L643.428 218.754L545.719 220.201L549.338 231.781Z" fill="#008374"/>
<path d="M509.444 216.188L504.378 104.728L496.416 122.099L497.864 219.807L509.444 216.188Z" fill="#008374"/>
<path d="M993.73 243.032L980.269 237.965L562.366 248.822L544.996 240.86L552.233 290.076L884.192 254.704L993.73 243.032Z" fill="#008374"/>
<path d="M886.251 271.62L884.193 254.704L552.233 290.076L554.043 315.046L886.251 271.62Z" fill="black"/>
<path d="M662.969 321.56C681.956 321.56 697.348 305.196 697.348 285.01C697.348 264.824 681.956 248.46 662.969 248.46C643.982 248.46 628.59 264.824 628.59 285.01C628.59 305.196 643.982 321.56 662.969 321.56Z" fill="black"/>
<path d="M662.969 303.828C676.96 303.828 688.301 292.486 688.301 278.496C688.301 264.506 676.96 253.164 662.969 253.164C648.979 253.164 637.638 264.506 637.638 278.496C637.638 292.486 648.979 303.828 662.969 303.828Z" fill="#008374"/>
<path d="M560.014 217.897L558.371 230.004L557.517 295.172C557.451 300.021 556.865 304.812 555.765 309.459C552.595 322.993 545.191 335.304 534.255 344.228C524.332 352.335 510.798 358.472 492.884 357.386C445.116 354.491 440.896 313.837 440.896 313.837L442.698 240.115L442.945 230.004L445.116 211.76C445.116 211.76 450.906 160.373 504.465 161.82C558.023 163.268 560.014 217.897 560.014 217.897Z" fill="#008374"/>
<path d="M456.696 200.903L467.553 183.533L481.304 179.19H528.349L539.929 183.533L550.438 200.903L531.244 192.218H477.4L456.696 200.903Z" fill="#E6E6E6"/>
<path d="M496.509 325.785L498.366 375.001H493.845V380.573H506.48V375.001H502.795L503.058 325.785H496.509Z" fill="black"/>
<path d="M491.634 367.108C493.557 367.108 495.116 368.667 495.116 370.59V384.984C495.116 386.907 493.557 388.466 491.634 388.466C489.71 388.466 488.151 386.907 488.151 384.984V370.59C488.151 368.667 489.71 367.108 491.634 367.108Z" fill="black"/>
<path d="M509.277 367.108C511.2 367.108 512.759 368.667 512.759 370.59V384.984C512.759 386.907 511.2 388.466 509.277 388.466C507.354 388.466 505.795 386.907 505.795 384.984V370.59C505.795 368.667 507.354 367.108 509.277 367.108Z" fill="black"/>
<path d="M483.036 168.522L473.037 204.523L474.964 205.058L484.963 169.058L483.036 168.522Z" fill="#008374"/>
<path d="M528.379 174.266L526.417 174.652L533.621 211.314L535.583 210.928L528.379 174.266Z" fill="#008374"/>
<path d="M734.416 116.754C741.596 116.754 747.416 110.933 747.416 103.754C747.416 96.574 741.596 90.7537 734.416 90.7537C727.236 90.7537 721.416 96.574 721.416 103.754C721.416 110.933 727.236 116.754 734.416 116.754Z" fill="#008374"/>
<path d="M374.602 159.306C381.782 159.306 387.602 153.486 387.602 146.306C387.602 139.127 381.782 133.306 374.602 133.306C367.422 133.306 361.602 139.127 361.602 146.306C361.602 153.486 367.422 159.306 374.602 159.306Z" fill="#008374"/>
<path d="M80.2439 390.309C80.2439 390.986 81.0028 391.53 81.9479 391.53H374.471C375.416 391.53 376.175 390.986 376.175 390.309C376.175 389.633 375.416 389.089 374.471 389.089H81.9479C81.0028 389.089 80.2439 389.633 80.2439 390.309Z" fill="#E6E6E6"/>
<path d="M196.416 401.754C203.596 401.754 209.416 395.933 209.416 388.754C209.416 381.574 203.596 375.754 196.416 375.754C189.237 375.754 183.416 381.574 183.416 388.754C183.416 395.933 189.237 401.754 196.416 401.754Z" fill="#008374"/>
</g>
<defs>
<clipPath id="clip0_991_177">
<rect width="993.73" height="422.322" fill="white"/>
</clipPath>
</defs>
</svg>
